<svg width="12" height="16" viewBox="0 0 12 16" fill="none" xmlns="http://www.w3.org/2000/svg">
<path d="M10.5157 10.9827V8.45861H11.4434V9.8724H10.8466C10.6812 9.8724 10.5508 9.9655 10.5508 10.0758C10.5508 10.1345 10.5909 10.1896 10.6511 10.2276C10.5909 10.2655 10.5508 10.3207 10.5508 10.3793C10.5508 10.4379 10.5909 10.4931 10.6511 10.531C10.5909 10.569 10.5508 10.6207 10.5508 10.6827C10.5508 10.7448 10.5909 10.7965 10.6511 10.8345C10.5909 10.8724 10.5508 10.9276 10.5508 10.9862C10.5508 11.1 10.6862 11.1896 10.8466 11.1896H11.4434V12.5414H10.5157V10.9827ZM11.6991 10.1103H11.6941H11.5186H11.4434H10.8466C10.8165 10.1103 10.7915 10.0931 10.7915 10.0724C10.7915 10.0517 10.8165 10.0345 10.8466 10.0345H11.4434H11.5186H11.6941H11.6991C11.7292 10.0345 11.7543 10.0517 11.7543 10.0724C11.7543 10.0931 11.7342 10.1103 11.6991 10.1103ZM11.4434 11.0207H10.8466C10.8165 11.0207 10.7915 11.0034 10.7915 10.9827C10.7915 10.9621 10.8165 10.9448 10.8466 10.9448H11.4434H11.5186H11.6941H11.6991C11.7292 10.9448 11.7543 10.9621 11.7543 10.9827C11.7543 11.0034 11.7292 11.0207 11.6991 11.0207H11.6941H11.5186H11.4434ZM11.6991 10.7172H11.6941H11.5186H11.4434H10.8466C10.8165 10.7172 10.7915 10.7 10.7915 10.6793C10.7915 10.6586 10.8165 10.6414 10.8466 10.6414H11.4434H11.5186H11.6941H11.6991C11.7292 10.6414 11.7543 10.6586 11.7543 10.6793C11.7543 10.7 11.7342 10.7172 11.6991 10.7172ZM11.6991 10.4138H11.6941H11.5186H11.4434H10.8466C10.8165 10.4138 10.7915 10.3965 10.7915 10.3759C10.7915 10.3552 10.8165 10.3379 10.8466 10.3379H11.4434H11.5186H11.6941H11.6991C11.7292 10.3379 11.7543 10.3552 11.7543 10.3759C11.7543 10.3965 11.7342 10.4138 11.6991 10.4138ZM10.8517 8.05516L10.7714 7.99309C10.5157 7.79999 10.6561 7.6793 10.6711 7.66895L10.6761 7.66551C10.7413 7.61378 10.8065 7.58964 10.8717 7.58964C10.967 7.58964 11.0522 7.63792 11.0873 7.66206C11.2277 7.82757 11.0322 7.95171 11.0071 7.96551L10.8817 8.03792L11.0221 8.09999C11.1575 8.15861 11.2277 8.22757 11.2629 8.28275H10.5558C10.626 8.16551 10.7313 8.12757 10.7313 8.12757L10.8817 8.0793L10.8517 8.05516ZM10.1295 8.28275H9.44254C9.33723 8.14137 9.38738 7.95861 9.43251 7.84826C9.77351 8.02413 10.0293 8.1793 10.1295 8.28275ZM9.21688 7.74482C9.16172 7.85516 9.07647 8.0793 9.17175 8.28619H8.19891C8.6051 8.03792 8.80568 7.74826 8.89093 7.59309C9.00627 7.64482 9.11659 7.69309 9.21688 7.74482ZM9.33222 5.63102V5.63792C9.33222 5.64482 9.31216 5.75861 9.05641 5.84826C9.12662 5.66895 9.16172 5.4793 9.16172 5.28275C9.16172 5.23102 9.15671 5.1793 9.15169 5.12757C9.27706 5.20689 9.40242 5.35861 9.33222 5.63102ZM2.52236 5.64137V5.63102C2.45215 5.35171 2.58755 5.19999 2.71291 5.12068C2.7079 5.17585 2.70288 5.22757 2.70288 5.28275C2.70288 5.4793 2.743 5.6724 2.81321 5.85171C2.54743 5.76206 2.52737 5.64482 2.52236 5.64137ZM3.10907 5.93792C3.00878 5.73102 2.95361 5.51033 2.95361 5.28275C2.95361 5.20689 2.95863 5.13102 2.97367 5.05516C3.0188 4.7724 3.14918 4.50689 3.34476 4.2724C4.23736 4.02068 5.2804 3.95861 6.02758 3.95171H6.03761C6.60928 3.94826 7.00042 3.97585 7.01045 3.9793C7.00042 3.9793 6.60928 3.94826 6.04262 3.95171H6.03761C6.72963 3.95861 7.65733 4.01723 8.48475 4.22413C8.70038 4.4724 8.8458 4.75171 8.89595 5.05516C8.90598 5.13102 8.91601 5.20689 8.91601 5.28275C8.91601 5.49654 8.87087 5.69999 8.78061 5.89309C8.59005 6.31033 8.21396 6.66895 7.71751 6.92413C7.22106 7.1793 6.60426 7.33102 5.93732 7.33102C5.29043 7.33102 4.68868 7.18964 4.20226 6.94482L4.19724 6.94137C4.19724 6.94137 4.19724 6.94137 4.19223 6.94137C3.69578 6.69654 3.30965 6.34482 3.10907 5.93792ZM5.9323 7.50344C6.60426 7.50344 7.23109 7.36206 7.7476 7.11723C7.83285 7.14826 7.91308 7.18275 7.99833 7.21723C7.87296 7.41723 7.3715 8.01723 5.98245 8.03447C4.60844 8.01033 4.11701 7.41378 3.99164 7.21723C4.05182 7.19309 4.11199 7.16895 4.17217 7.14482C4.68366 7.3724 5.28542 7.50344 5.9323 7.50344ZM3.78103 7.30344C3.95153 7.54826 4.51316 8.16551 5.92227 8.20688V8.21033C5.94233 8.21033 5.96239 8.21033 5.97743 8.21033H5.98245C6.01254 8.21033 6.04262 8.21033 6.07773 8.21033V8.20344C7.48684 8.16206 8.04847 7.54482 8.21897 7.29999C8.37443 7.36206 8.52486 7.42757 8.6753 7.49309C8.6051 7.63447 8.3644 8.02068 7.78771 8.28275H6.07773H4.20727C3.6356 8.02068 3.3949 7.63792 3.31968 7.49309C3.47012 7.43102 3.62557 7.36551 3.78103 7.30344ZM3.10907 7.59309C3.19432 7.74826 3.3949 8.03792 3.80109 8.28619H2.82323C2.91851 8.0793 2.83326 7.85516 2.7781 7.74826C2.88341 7.69654 2.99373 7.64482 3.10907 7.59309ZM2.56749 7.85171C2.61262 7.96206 2.66277 8.14137 2.55746 8.28619H1.86544C1.97075 8.1793 2.22649 8.02413 2.56749 7.85171ZM0.556623 10.0379H1.15336C1.18345 10.0379 1.20852 10.0552 1.20852 10.0758C1.20852 10.0965 1.18345 10.1138 1.15336 10.1138H0.556623H0.476389H0.305892H0.295863C0.265775 10.1138 0.240702 10.0965 0.240702 10.0758C0.240702 10.0552 0.265775 10.0379 0.295863 10.0379H0.300878H0.471375H0.556623ZM0.295863 10.3379H0.300878H0.471375H0.551609H1.14835C1.17844 10.3379 1.20351 10.3552 1.20351 10.3759C1.20351 10.3965 1.17844 10.4138 1.14835 10.4138H0.556623H0.476389H0.305892H0.295863C0.265775 10.4138 0.240702 10.3965 0.240702 10.3759C0.240702 10.3552 0.265775 10.3379 0.295863 10.3379ZM0.295863 10.6414H0.300878H0.471375H0.551609H1.14835C1.17844 10.6414 1.20351 10.6586 1.20351 10.6793C1.20351 10.7 1.17844 10.7172 1.14835 10.7172H0.556623H0.476389H0.305892H0.295863C0.265775 10.7172 0.240702 10.7 0.240702 10.6793C0.240702 10.6586 0.265775 10.6414 0.295863 10.6414ZM0.295863 10.9448H0.300878H0.471375H0.551609H1.14835C1.17844 10.9448 1.20351 10.9621 1.20351 10.9827C1.20351 11.0034 1.17844 11.0207 1.14835 11.0207H0.556623H0.476389H0.305892H0.295863C0.265775 11.0207 0.240702 11.0034 0.240702 10.9827C0.240702 10.9621 0.265775 10.9448 0.295863 10.9448ZM0.556623 12.5379V11.1862H1.15336C1.31885 11.1862 1.44923 11.0931 1.44923 10.9827C1.44923 10.9241 1.40911 10.869 1.34893 10.831C1.40911 10.7931 1.44923 10.7414 1.44923 10.6793C1.44923 10.6207 1.40911 10.5655 1.34893 10.5276C1.40911 10.4896 1.44923 10.4379 1.44923 10.3759C1.44923 10.3138 1.40911 10.2621 1.34893 10.2241C1.40911 10.1862 1.44923 10.131 1.44923 10.0724C1.44923 9.95861 1.31383 9.86895 1.15336 9.86895H0.556623V8.45516H1.48433V10.9793V12.5345H0.556623V12.5379ZM0.977852 8.09999L1.11826 8.03792L0.992896 7.96551C0.967823 7.95171 0.777267 7.82757 0.912662 7.66206C0.947764 7.63792 1.03301 7.58964 1.12829 7.58964C1.19348 7.58964 1.25867 7.61723 1.32386 7.66551L1.32888 7.66895C1.32888 7.66895 1.49436 7.79309 1.22858 7.99309L1.14835 8.05516L1.12328 8.07585L1.26369 8.12413C1.2687 8.12757 1.36899 8.16206 1.44421 8.2793H0.73715C0.772252 8.22757 0.842457 8.15861 0.977852 8.09999ZM1.20852 12.8931L1.06812 12.9552L1.19348 13.0276C1.21354 13.0414 1.40911 13.1621 1.27371 13.331C1.23861 13.3552 1.15336 13.4034 1.05809 13.4034C0.992896 13.4034 0.927706 13.3759 0.862516 13.3276L0.857501 13.3241C0.857501 13.3241 0.692018 13.2 0.957794 13L1.03803 12.9379L1.06812 12.9138L0.917677 12.8655C0.917677 12.8655 0.812369 12.8276 0.742165 12.7103H1.44923C1.41412 12.7655 1.34392 12.8379 1.20852 12.8931ZM3.29962 14.3069C2.34183 14.331 2.08608 14.269 2.02089 14.2448L2.31174 12.7103H3.41997L3.29962 14.3069ZM5.45591 15.1862V15.3586V15.7931C5.26536 15.8069 5.00961 15.8172 4.73381 15.8207C4.6285 15.8207 4.51818 15.8207 4.41287 15.8207C3.81613 15.8138 3.19933 15.7586 2.95863 15.5965C2.88842 15.5483 2.85834 15.4965 2.86335 15.4345C2.9486 15.269 3.13414 15.0345 3.29461 15.0069C3.3247 15.0034 3.36481 15 3.42499 15.0379L3.44505 15.0483C3.46511 15.0552 3.55036 15.0896 3.66068 15.1069C3.76097 15.1241 3.88634 15.1241 3.98663 15.0793C4.11701 15.0172 4.17217 14.9034 4.15211 14.731C4.54325 14.7552 5.01463 14.7655 5.4509 14.769V15.1862H5.45591ZM8.00836 15.0758C8.11366 15.1241 8.23402 15.1207 8.33932 15.1034C8.44964 15.0862 8.53489 15.0517 8.55495 15.0448L8.57501 15.0345C8.63519 14.9965 8.68032 15 8.70539 15.0034C8.86586 15.0345 9.0514 15.269 9.13665 15.431C9.14166 15.4931 9.11158 15.5448 9.04137 15.5931C8.80067 15.7552 8.18387 15.8103 7.58713 15.8172C7.47681 15.8172 7.3715 15.8172 7.26619 15.8172C6.99039 15.8138 6.73464 15.8034 6.54409 15.7896V15.3552V15.1827V14.7621C6.98036 14.7586 7.45173 14.7448 7.84287 14.7241C7.82282 14.9 7.87798 15.0138 8.00836 15.0758ZM8.17886 14.5276C8.09361 14.5345 7.9883 14.5448 7.84789 14.5552C7.47179 14.5793 6.86502 14.6 5.91726 14.6C5.05976 14.5965 4.50313 14.5793 4.13707 14.5552C3.77601 14.531 3.60552 14.5069 3.5303 14.4896L3.66569 12.7103H8.32428L8.45967 14.4896C8.40953 14.5 8.32428 14.5138 8.17886 14.5276ZM9.97409 14.2448C9.9089 14.269 9.65315 14.331 8.69536 14.3069L8.57501 12.7103H9.68324L9.97409 14.2448ZM8.57 12.5379H3.43H1.73506V8.45516H2.73297H4.10698H7.89804H9.27204H10.27V12.5379H8.57ZM10.957 12.9379L11.0372 13C11.2929 13.1931 11.1525 13.3138 11.1375 13.3241L11.1325 13.3276C11.0673 13.3793 11.0021 13.4034 10.9369 13.4034C10.8466 13.4034 10.7564 13.3552 10.7213 13.331C10.5809 13.1655 10.7764 13.0414 10.8015 13.0276L10.9319 12.9552L10.7915 12.8931C10.6561 12.8345 10.5859 12.7655 10.5508 12.7103H11.2578C11.1876 12.8276 11.0823 12.8655 11.0823 12.8655L10.9319 12.9138L10.957 12.9379ZM9.23193 4.31033C9.26201 4.45516 9.28709 4.68964 9.24196 4.95861C9.43251 5.05516 9.67823 5.25861 9.57794 5.65861C9.56791 5.70688 9.50272 5.94482 8.95612 6.06206C8.75554 6.43447 8.40953 6.75861 7.96824 7.00688C8.17885 7.08964 8.57 7.24826 8.97618 7.42757C9.0163 7.44482 9.05641 7.46206 9.09653 7.48275C9.88383 7.84137 10.2098 8.06206 10.3452 8.20344C10.3953 8.12757 10.4555 8.07585 10.5107 8.04137C10.285 7.82068 10.3903 7.63447 10.4956 7.56206C10.6059 7.4724 10.7313 7.42757 10.8717 7.42757C11.0974 7.42757 11.2578 7.54826 11.2779 7.56206L11.2879 7.5724C11.4484 7.75171 11.3682 7.91723 11.2629 8.01723C11.4183 8.11033 11.4885 8.21378 11.5186 8.28619H11.6941H11.7693V9.87585C11.8997 9.89654 12 9.9793 12 10.0758C12 10.1345 11.9599 10.1896 11.8997 10.2276C11.9599 10.2655 12 10.3172 12 10.3793C12 10.4379 11.9599 10.4931 11.8997 10.531C11.9599 10.569 12 10.6207 12 10.6827C12 10.7414 11.9599 10.7965 11.8997 10.8345C11.9599 10.8724 12 10.9241 12 10.9862C12 11.0827 11.8997 11.1655 11.7693 11.1862V12.7172H11.6941H11.5136C11.4584 12.8379 11.3732 12.9172 11.303 12.9621C11.5286 13.1827 11.4233 13.369 11.318 13.4414C11.2077 13.5276 11.0823 13.5758 10.9419 13.5758C10.7163 13.5758 10.5558 13.4552 10.5407 13.4414L10.5307 13.431C10.3753 13.2517 10.4505 13.0862 10.5558 12.9827C10.4003 12.8896 10.3301 12.7862 10.3 12.7138H10.27H9.93899L10.2248 14.2172C10.2399 14.2448 10.2449 14.2827 10.2098 14.3241C10.1496 14.4034 9.95403 14.4896 9.09653 14.4896C8.98119 14.4896 8.85082 14.4862 8.70539 14.4827L8.71041 14.5724L8.68533 14.5965C8.63017 14.6483 8.3995 14.6862 8.08859 14.7103C8.06352 14.8793 8.12369 14.9241 8.14375 14.9345C8.20393 14.9621 8.34434 14.9276 8.40953 14.9034C8.54492 14.8241 8.6753 14.8276 8.76055 14.8414C9.11659 14.9069 9.34726 15.3414 9.37234 15.3931L9.37735 15.4034V15.4138C9.39741 15.531 9.33723 15.6414 9.21187 15.7241C8.88592 15.9448 8.11366 16 7.45675 16C7.45173 16 7.44672 16 7.4417 16C6.93021 16 6.49394 15.969 6.39866 15.9621L6.28834 15.9552V14.7759C6.21312 14.7759 6.14292 14.7759 6.07271 14.7759C6.02257 14.7759 5.97242 14.7759 5.91726 14.7759C5.84705 14.7759 5.77685 14.7759 5.70163 14.7759V15.9552L5.59131 15.9621C5.49102 15.969 5.05474 16 4.54827 16C4.54325 16 4.53824 16 4.53322 16C3.87631 16 3.10405 15.9448 2.7781 15.7241C2.65274 15.6379 2.59758 15.531 2.61262 15.4138V15.4034L2.61763 15.3931C2.64271 15.3448 2.87338 14.9069 3.22942 14.8448C3.31467 14.8276 3.44505 14.8276 3.58044 14.9069C3.65566 14.9379 3.79106 14.9655 3.84622 14.9379C3.86628 14.9276 3.92645 14.8862 3.90138 14.7138C3.59047 14.6862 3.3598 14.6517 3.30464 14.6L3.27957 14.5758L3.28458 14.4862C3.14417 14.4896 3.01379 14.4896 2.89344 14.4896C2.03594 14.4896 1.84538 14.4034 1.78019 14.3241C1.7501 14.2862 1.7501 14.2483 1.77016 14.2172L2.056 12.7138H1.72503H1.70497C1.67489 12.7827 1.60468 12.8896 1.44923 12.9827C1.55453 13.0862 1.62975 13.2483 1.4743 13.431L1.46427 13.4414C1.44421 13.4552 1.28876 13.5758 1.0631 13.5758C0.922691 13.5758 0.797326 13.531 0.687004 13.4414C0.586711 13.3655 0.476389 13.1793 0.702048 12.9621C0.631843 12.9138 0.546594 12.8379 0.491433 12.7172H0.305892H0.220644V11.1862C0.0902633 11.1621 0 11.0827 0 10.9896C0 10.931 0.040117 10.8758 0.100293 10.8379C0.040117 10.8 0 10.7448 0 10.6862C0 10.6276 0.040117 10.5724 0.100293 10.5345C0.040117 10.4965 0 10.4448 0 10.3827C0 10.3241 0.040117 10.269 0.100293 10.231C0.040117 10.1931 0 10.1414 0 10.0793C0 9.98275 0.0952779 9.90344 0.220644 9.88275V8.28964H0.476389C0.506477 8.21723 0.576682 8.11378 0.732135 8.02068C0.626828 7.91723 0.551609 7.75516 0.707062 7.57585L0.717092 7.56551C0.73715 7.55171 0.892603 7.43102 1.11826 7.43102C1.25867 7.43102 1.38404 7.47585 1.49436 7.56551C1.59465 7.64137 1.70497 7.82757 1.47931 8.04482C1.53448 8.0793 1.59465 8.13102 1.6448 8.20688C1.77518 8.06206 2.10614 7.84482 2.89344 7.4862C3.29461 7.30344 3.69578 7.14137 3.94651 7.04137C3.48015 6.79309 3.11408 6.45516 2.90347 6.06895C2.34684 5.95516 2.27664 5.71033 2.27163 5.66551C2.14626 5.15861 2.5725 4.96551 2.743 4.91033C2.7079 4.66551 2.73297 4.45516 2.76306 4.32068C2.69787 4.24482 2.6728 4.10344 2.68282 3.8793C2.68282 3.85861 2.68282 3.64137 2.72294 3.32068C2.76306 3.33792 2.81321 3.34826 2.86837 3.34826C2.90848 3.34826 2.94359 3.34482 2.97367 3.33447C2.93356 3.65861 2.92854 3.8793 2.92854 3.88275C2.92353 4.07585 2.94359 4.16551 2.95863 4.20689L3.07397 4.16895C3.10405 4.15861 3.12913 4.15171 3.15921 4.14137C3.29461 4.09999 3.43502 4.06551 3.57041 4.03102C4.02674 3.92757 4.50313 3.86206 4.94944 3.82757H4.95445C5.34058 3.79654 5.70664 3.7862 6.02257 3.78275H6.02758C6.32344 3.7862 6.66444 3.79654 7.02048 3.82757C7.41162 3.85861 7.82282 3.91033 8.22399 3.99309C8.3644 4.02068 8.49979 4.05516 8.63519 4.08964C8.72545 4.11378 8.81571 4.13792 8.90096 4.16551L9.0163 4.20344C9.0163 4.19999 9.02131 4.19309 9.02131 4.18964C9.04137 4.12413 9.04638 4.05516 9.04638 3.94826C9.04638 3.92757 9.04638 3.90344 9.04638 3.8793C9.04638 3.8724 9.04639 3.65171 9.00125 3.32757C9.03636 3.33792 9.07146 3.34137 9.10656 3.34137C9.16172 3.34137 9.20685 3.33102 9.25198 3.31378C9.2921 3.63447 9.2921 3.85516 9.2921 3.87585C9.32219 4.09309 9.29712 4.23102 9.23193 4.31033Z" fill="#060403"/>
<path d="M11.6987 10.0345H11.6936H11.5181H11.4429H10.8462C10.8161 10.0345 10.791 10.0517 10.791 10.0724C10.791 10.0931 10.8161 10.1103 10.8462 10.1103H11.4429H11.5181H11.6936H11.6987C11.7288 10.1103 11.7538 10.0931 11.7538 10.0724C11.7538 10.0517 11.7338 10.0345 11.6987 10.0345Z" fill="#F4DDC6"/>
<path d="M11.6987 10.338H11.6936H11.5181H11.4429H10.8462C10.8161 10.338 10.791 10.3552 10.791 10.3759C10.791 10.3966 10.8161 10.4138 10.8462 10.4138H11.4429H11.5181H11.6936H11.6987C11.7288 10.4138 11.7538 10.3966 11.7538 10.3759C11.7538 10.3552 11.7338 10.338 11.6987 10.338Z" fill="#F4DDC6"/>
<path d="M11.6987 10.6414H11.6936H11.5181H11.4429H10.8462C10.8161 10.6414 10.791 10.6586 10.791 10.6793C10.791 10.7 10.8161 10.7172 10.8462 10.7172H11.4429H11.5181H11.6936H11.6987C11.7288 10.7172 11.7538 10.7 11.7538 10.6793C11.7538 10.6586 11.7338 10.6414 11.6987 10.6414Z" fill="#F4DDC6"/>
<path d="M11.6987 11.0207C11.7288 11.0207 11.7538 11.0034 11.7538 10.9828C11.7538 10.9621 11.7288 10.9448 11.6987 10.9448H11.6936H11.5181H11.4429H10.8462C10.8161 10.9448 10.791 10.9621 10.791 10.9828C10.791 11.0034 10.8161 11.0207 10.8462 11.0207H11.4429H11.5181H11.6936H11.6987Z" fill="#F4DDC6"/>
<path d="M11.4433 11.1862H10.8466C10.6811 11.1862 10.5507 11.0931 10.5507 10.9828C10.5507 10.9242 10.5908 10.869 10.651 10.8311C10.5908 10.7931 10.5507 10.7414 10.5507 10.6793C10.5507 10.6173 10.5908 10.5655 10.651 10.5276C10.5908 10.4897 10.5507 10.4345 10.5507 10.3759C10.5507 10.3173 10.5908 10.2621 10.651 10.2242C10.5908 10.1862 10.5507 10.1345 10.5507 10.0724C10.5507 9.95865 10.6861 9.86899 10.8466 9.86899H11.4433V8.4552H10.5156V10.9793V12.5345H11.4433V11.1862Z" fill="#EAE8D8"/>
<path d="M10.5557 8.28276H11.2627C11.2276 8.22759 11.1574 8.15518 11.022 8.10001L10.8816 8.03794L11.007 7.96552C11.0321 7.95173 11.2226 7.83104 11.0872 7.66207C11.0521 7.63794 10.9669 7.58966 10.8716 7.58966C10.8064 7.58966 10.7412 7.61725 10.676 7.66552L10.671 7.66897C10.656 7.67932 10.5155 7.80001 10.7713 7.99311L10.8515 8.05518L10.8816 8.07932L10.7312 8.12759C10.7312 8.13104 10.6259 8.16552 10.5557 8.28276Z" fill="#C69A7B"/>
<path d="M11.2578 12.7103H10.5508C10.5859 12.7655 10.6561 12.8379 10.7915 12.8931L10.9319 12.9552L10.8015 13.0276C10.7815 13.0414 10.5859 13.1621 10.7213 13.331C10.7564 13.3552 10.8416 13.4034 10.9369 13.4034C11.0021 13.4034 11.0673 13.3758 11.1325 13.3276L11.1375 13.3241C11.1525 13.3103 11.2929 13.1931 11.0372 13L10.957 12.9379L10.9269 12.9138L11.0773 12.8655C11.0823 12.8655 11.1826 12.8276 11.2578 12.7103Z" fill="#C69A7B"/>
<path d="M9.26732 8.4552H7.89331H4.10727H2.73326H1.73535V12.538H3.4303H8.57029H10.2652V8.4552H9.26732Z" fill="#EAE8D8"/>
<path d="M9.44227 8.28275H10.1293C10.029 8.17585 9.77324 8.02068 9.43224 7.84827C9.38711 7.96206 9.33696 8.14137 9.44227 8.28275Z" fill="#F2F106"/>
<path d="M8.69555 14.3069C9.65334 14.331 9.90909 14.2689 9.97428 14.2448L9.68343 12.7103H8.5752L8.69555 14.3069Z" fill="#C30D23"/>
<path d="M9.1568 5.12756C9.16182 5.17929 9.16683 5.23101 9.16683 5.28274C9.16683 5.47929 9.13173 5.66894 9.06152 5.84825C9.31727 5.7586 9.33231 5.6448 9.33733 5.63791V5.63101C9.40252 5.3586 9.27715 5.20687 9.1568 5.12756Z" fill="#F4DDC6"/>
<path d="M8.19922 8.28276H9.17206C9.07678 8.07587 9.16203 7.85173 9.21719 7.74139C9.11188 7.69311 9.00156 7.64138 8.89124 7.58966C8.80599 7.74828 8.6054 8.03794 8.19922 8.28276Z" fill="#C30D23"/>
<path d="M7.76252 15.3862C7.74246 15.3862 7.72742 15.3862 7.70736 15.3862L7.28613 15.3759C7.33126 15.6241 7.51681 15.769 7.58701 15.8207C8.18375 15.8138 8.80055 15.7586 9.04125 15.5966C9.11146 15.5483 9.14154 15.4966 9.13653 15.4345C9.05128 15.269 8.86574 15.0345 8.70527 15.0069C8.68521 15.0621 8.64008 15.1448 8.52475 15.2207C8.35926 15.331 8.0985 15.3862 7.76252 15.3862Z" fill="#2B2828"/>
<path d="M8.83073 3.11724C8.83073 3.07587 8.84578 3.03793 8.87085 3.0069C8.62513 2.76897 8.08356 2.32069 7.32635 2.16897C7.32133 2.16897 6.94022 2.08621 6.22814 2.05862C6.22313 2.05862 6.21811 2.05862 6.2131 2.05862C6.20307 2.05862 6.19806 2.05862 6.18803 2.05862C6.13287 2.05518 6.07269 2.05518 6.01251 2.05518H6.0075C5.9373 2.05518 5.86709 2.05862 5.8019 2.06207C5.79187 2.06207 5.78686 2.06552 5.77683 2.06552C5.77181 2.06552 5.7668 2.06552 5.76178 2.06552C5.05974 2.08966 4.67862 2.16897 4.67361 2.16897C3.9164 2.32069 3.36981 2.76897 3.12409 3.0069C3.14916 3.03793 3.16421 3.07587 3.16421 3.11724C3.16421 3.21035 3.08397 3.28966 2.97365 3.32069C2.93353 3.64483 2.92852 3.86552 2.92852 3.86897C2.92351 4.06207 2.94356 4.15173 2.95861 4.19311L3.07394 4.15518C3.10403 4.14483 3.1291 4.13793 3.15919 4.12759C3.29459 4.08621 3.42998 4.05173 3.57541 4.02069C4.03174 3.9138 4.50813 3.85173 4.95443 3.81724H4.95944C5.34557 3.78621 5.71164 3.77587 6.02756 3.77242H6.03257C6.32844 3.77587 6.66943 3.78621 7.02547 3.81724C7.41661 3.84828 7.82781 3.9 8.22898 3.98276C8.36939 4.01035 8.50478 4.04483 8.64018 4.07931C8.73044 4.10345 8.82071 4.12759 8.90595 4.15518L9.02129 4.19311C9.03633 4.15173 9.06141 4.06207 9.05138 3.86897C9.05138 3.86207 9.05138 3.64138 9.01126 3.31724C8.91097 3.28966 8.83073 3.21035 8.83073 3.11724Z" fill="#282625"/>
<path d="M4.19786 6.94482C4.68929 7.1862 5.28603 7.33103 5.93292 7.33103C6.59987 7.33103 7.21667 7.17931 7.71311 6.92413C8.20956 6.66896 8.58566 6.31034 8.77621 5.8931C8.86648 5.7 8.91161 5.4931 8.91161 5.28276C8.91161 5.20689 8.90659 5.12758 8.89155 5.05517C8.8414 4.75517 8.69598 4.47241 8.48035 4.22414C7.65294 4.01724 6.72523 3.95862 6.03321 3.95172H6.02318C5.27601 3.95862 4.23296 4.02069 3.34036 4.27241C3.14479 4.50689 3.01441 4.77241 2.96928 5.05517C2.95925 5.13103 2.94922 5.20689 2.94922 5.28276C2.94922 5.51034 3.00438 5.73448 3.10467 5.93793C3.30526 6.34482 3.68637 6.6931 4.18282 6.94138H4.18783L4.19786 6.94482ZM4.77454 5.36207C4.66422 5.36207 4.58399 5.27586 4.58399 5.16896C4.58399 5.06207 4.66924 4.97586 4.77454 4.97586C4.87985 4.97586 4.9651 5.06207 4.9651 5.16896C4.9651 5.27586 4.87985 5.36207 4.77454 5.36207ZM6.58984 6.62069C6.58482 6.62758 6.42435 6.82758 6.01316 6.82758C5.60697 6.82758 5.41641 6.63448 5.40639 6.62413C5.3763 6.5931 5.38633 6.54827 5.43146 6.52758C5.47659 6.50689 5.53677 6.51379 5.57187 6.54482C5.57688 6.55172 5.71729 6.6862 6.01316 6.6862C6.29899 6.6862 6.40931 6.55517 6.41433 6.55172C6.4394 6.51724 6.49957 6.50689 6.54972 6.52413C6.59987 6.54482 6.61491 6.5862 6.58984 6.62069ZM7.05118 6.31034C7.01608 6.4 6.8506 6.41724 6.73025 6.42413H6.72523L5.40137 6.42069C5.3763 6.42069 5.3412 6.42413 5.30108 6.42413C5.1707 6.42413 5.0002 6.40689 4.94504 6.32413C4.87985 6.23103 5.01023 6.13448 5.05035 6.10345L5.06038 6.09655L5.07542 6.0931C5.11052 6.07931 5.94796 5.76896 6.85561 6.0931L6.86564 6.09655C6.91579 6.12069 7.0913 6.21034 7.05118 6.31034ZM7.20664 5.36207C7.09631 5.36207 7.01608 5.27586 7.01608 5.16896C7.01608 5.06207 7.10133 4.97586 7.20664 4.97586C7.31696 4.97586 7.39719 5.06207 7.39719 5.16896C7.39719 5.27586 7.31696 5.36207 7.20664 5.36207ZM6.51963 4.67931L6.52465 4.67586C6.52966 4.67241 7.17153 4.39655 7.84851 4.67586C7.86857 4.6862 7.99895 4.75862 7.96886 4.82413C7.95381 4.86207 7.88862 4.88276 7.76827 4.88965L6.74529 4.8862C6.73526 4.8862 6.71019 4.88965 6.67509 4.88965C6.59987 4.88965 6.48453 4.88276 6.44441 4.83103C6.41934 4.7931 6.44441 4.74482 6.51963 4.67931ZM5.95298 5.15517C6.00313 5.12069 6.07835 5.12069 6.12849 5.15517C6.23881 5.22758 6.58984 5.48276 6.48453 5.65862C6.43438 5.74138 6.31403 5.7862 6.11345 5.7862C6.04324 5.7862 5.98808 5.74827 5.98808 5.7C5.98808 5.65172 6.04324 5.61379 6.11345 5.61379C6.22878 5.61379 6.25386 5.5931 6.25386 5.5931C6.27893 5.55862 6.14354 5.40689 5.95298 5.27586C5.90283 5.24138 5.90283 5.18965 5.95298 5.15517ZM4.01733 4.83103C3.98725 4.7931 4.01232 4.74138 4.08754 4.67931L4.09255 4.67586C4.09757 4.67241 4.73944 4.39655 5.41641 4.67586C5.43647 4.6862 5.56685 4.75862 5.53677 4.82413C5.52172 4.86207 5.45653 4.88276 5.33618 4.88965L4.3132 4.8862C4.30317 4.8862 4.27809 4.88965 4.24299 4.88965C4.16777 4.88965 4.05244 4.87931 4.01733 4.83103Z" fill="#F4DDC6"/>
<path d="M7.92824 1.16205C7.67751 1.02067 7.32649 0.88964 6.8501 0.820674L6.83505 0.817226C6.83004 0.817226 6.64951 0.775847 6.34863 0.751709V1.59309L6.59936 1.35861C6.63948 1.32067 6.71972 1.31378 6.77488 1.34136C6.83004 1.36895 6.84007 1.42412 6.79995 1.46205L6.34863 1.87929L6.59936 1.90688C6.60438 1.90688 6.60939 1.90688 6.61441 1.90688C7.11587 1.94136 7.38666 1.99998 7.40672 2.00343C8.09874 2.14136 8.62026 2.49654 8.92615 2.75861C8.84592 2.40688 8.71554 2.01723 8.50994 1.66205C8.49489 1.64826 8.34445 1.39309 7.92824 1.16205Z" fill="#282625"/>
<path d="M7.71737 15.2138L6.54395 15.1862V15.3586L7.03538 15.369C7.06547 15.569 7.17077 15.7172 7.26605 15.8207C7.37136 15.8207 7.47667 15.8207 7.58699 15.8207C7.51177 15.7724 7.33124 15.6241 7.28611 15.3759L7.70734 15.3862C7.7274 15.3862 7.74244 15.3862 7.7625 15.3862C8.09848 15.3862 8.35924 15.331 8.52472 15.2172C8.64006 15.1414 8.68519 15.0586 8.70525 15.0034C8.67516 14.9965 8.63504 14.9965 8.57487 15.0345L8.55481 15.0448C8.53475 15.0517 8.4495 15.0862 8.33918 15.1034C8.23387 15.1655 8.04833 15.2207 7.71737 15.2138Z" fill="white"/>
<path d="M3.67641 12.7103L3.54102 14.4896C3.61624 14.5034 3.78172 14.531 4.14779 14.5552C4.50884 14.5793 5.07048 14.5965 5.92798 14.6C6.87574 14.6 7.4775 14.5793 7.85861 14.5552C7.994 14.5483 8.10433 14.5379 8.18957 14.5276C8.335 14.5138 8.42025 14.5 8.47039 14.4896L8.335 12.7103H3.67641Z" fill="#C30D23"/>
<path d="M6.54395 14.7655V15.1862L7.71737 15.2138C8.04833 15.2207 8.23387 15.1655 8.33918 15.1035C8.23387 15.1207 8.11352 15.1242 8.00822 15.0759C7.87784 15.0138 7.82267 14.9 7.84273 14.7276C7.44658 14.7517 6.9752 14.7621 6.54395 14.7655Z" fill="#2B2828"/>
<path d="M6.67948 4.88967C6.71458 4.88967 6.73965 4.88967 6.74968 4.88622L7.77267 4.88967C7.888 4.88277 7.95319 4.86208 7.97325 4.82415C8.00334 4.76208 7.86794 4.68622 7.8529 4.67587C7.17593 4.39656 6.53405 4.67242 6.52904 4.67587L6.52402 4.67932C6.4488 4.74484 6.42373 4.79311 6.45382 4.83104C6.48892 4.87932 6.60426 4.88967 6.67948 4.88967ZM6.55411 4.70346C6.60426 4.68277 7.19598 4.44484 7.82281 4.70346C7.8529 4.7207 7.94316 4.77587 7.92812 4.8138C7.91809 4.83449 7.86293 4.85173 7.77267 4.85518L6.74968 4.85173H6.74467C6.68951 4.85518 6.52904 4.85863 6.49394 4.8138C6.47889 4.79311 6.49895 4.75173 6.55411 4.70346Z" fill="#060403"/>
<path d="M6.74458 4.8517L7.77258 4.85514C7.86284 4.84825 7.918 4.83445 7.92803 4.81376C7.94308 4.77928 7.85783 4.72066 7.82273 4.70342C7.20091 4.4448 6.60417 4.68273 6.55403 4.70342C6.49385 4.7517 6.47379 4.79308 6.49385 4.81376C6.52895 4.85859 6.68942 4.85514 6.74458 4.8517Z" fill="#000303"/>
<path d="M5.98774 8.03449C7.3768 8.01725 7.87324 7.4138 8.00362 7.21725C7.91838 7.18277 7.83814 7.15173 7.75289 7.11725C7.23639 7.36208 6.60956 7.50346 5.9376 7.50346C5.29071 7.50346 4.68896 7.37242 4.18248 7.14483C4.1223 7.16897 4.06213 7.19311 4.00195 7.21725C4.1223 7.4138 4.61374 8.01035 5.98774 8.03449Z" fill="white"/>
<path d="M6.90473 0.651749C6.95488 0.658645 7.00001 0.665542 7.04514 0.675886C7.37109 0.734507 7.63686 0.820714 7.85751 0.917266C7.7522 0.679335 7.54159 0.324162 7.19056 0.210369C7.02007 0.151749 6.82951 0.162093 6.6189 0.237955C6.57878 0.262093 6.39825 0.379335 6.36816 0.579335L6.45341 0.593128C6.70916 0.610369 6.86461 0.644852 6.90473 0.651749Z" fill="#282625"/>
<path d="M7.20618 4.97589C7.09586 4.97589 7.01562 5.0621 7.01562 5.16899C7.01562 5.27589 7.10087 5.3621 7.20618 5.3621C7.3165 5.3621 7.39674 5.27589 7.39674 5.16899C7.39674 5.0621 7.3165 4.97589 7.20618 4.97589ZM7.20618 5.32762C7.13096 5.32762 7.06577 5.2552 7.06577 5.16899C7.06577 5.08279 7.13096 5.01037 7.20618 5.01037C7.2814 5.01037 7.34659 5.08279 7.34659 5.16899C7.34659 5.2552 7.28641 5.32762 7.20618 5.32762Z" fill="#060403"/>
<path d="M7.20584 5.01031C7.13062 5.01031 7.06543 5.08273 7.06543 5.16894C7.06543 5.25514 7.13062 5.32756 7.20584 5.32756C7.28106 5.32756 7.34625 5.25514 7.34625 5.16894C7.34625 5.08273 7.28607 5.01031 7.20584 5.01031Z" fill="#000303"/>
<path d="M6.54395 15.3586V15.7931C6.7345 15.8069 6.99025 15.8173 7.26605 15.8207C7.16576 15.7207 7.06045 15.5724 7.03538 15.369L6.54395 15.3586Z" fill="#2B2828"/>
<path d="M6.86478 6.09654L6.85475 6.09309C5.9471 5.7724 5.10966 6.0793 5.07456 6.09309L5.05951 6.09654L5.04948 6.10344C5.00435 6.13447 4.87397 6.23102 4.94418 6.32413C4.99934 6.40689 5.17485 6.42413 5.30022 6.42413C5.34033 6.42413 5.37042 6.42413 5.40051 6.42068L6.72437 6.42413H6.72938C6.84974 6.41723 7.01522 6.39999 7.05032 6.31033C7.09044 6.21033 6.91493 6.12068 6.86478 6.09654ZM6.71936 6.2862L5.39549 6.28275H5.38547C5.28016 6.28964 5.16482 6.2793 5.1247 6.26551C5.12972 6.25861 5.13975 6.23792 5.18488 6.20689C5.29019 6.1724 6.00226 5.94482 6.75947 6.21033C6.79458 6.22757 6.82968 6.25171 6.84974 6.26895C6.82466 6.27585 6.78956 6.28275 6.71936 6.2862Z" fill="#060403"/>
<path d="M6.75391 6.21379C5.9967 5.94827 5.28462 6.17586 5.17932 6.21034C5.1392 6.24137 5.12416 6.25861 5.11914 6.26896C5.15424 6.28275 5.27459 6.2931 5.3799 6.2862H5.38993L6.71379 6.28965C6.784 6.2862 6.82411 6.2793 6.84417 6.27241C6.82913 6.25517 6.78901 6.23103 6.75391 6.21379Z" fill="#000303"/>
<path d="M6.54945 6.5276C6.4993 6.51036 6.43913 6.52071 6.41405 6.55519C6.40904 6.56209 6.30373 6.68967 6.01288 6.68967C5.71702 6.68967 5.57661 6.55519 5.5716 6.54829C5.54151 6.51726 5.47632 6.51036 5.43119 6.53105C5.38605 6.55174 5.37101 6.59657 5.40611 6.6276C5.41614 6.6345 5.61171 6.83105 6.01288 6.83105C6.42408 6.83105 6.58455 6.63105 6.58956 6.62416C6.61464 6.58622 6.59959 6.54485 6.54945 6.5276Z" fill="#060403"/>
<path d="M6.25265 5.59313C6.25265 5.59313 6.22757 5.61382 6.11224 5.61382C6.04203 5.61382 5.98687 5.6552 5.98687 5.70003C5.98687 5.7483 6.04203 5.78624 6.11224 5.78624C6.30781 5.78624 6.43317 5.74141 6.48332 5.65865C6.58863 5.48279 6.2376 5.22761 6.12728 5.1552C6.07714 5.12072 5.9969 5.12417 5.95177 5.1552C5.90162 5.18968 5.90664 5.24486 5.95177 5.27589C6.14233 5.40693 6.27772 5.55865 6.25265 5.59313Z" fill="#060403"/>
<path d="M6.00765 0.737915C5.97255 0.737915 5.93745 0.737915 5.90234 0.741363V1.8586V1.88274C5.93745 1.88274 5.96753 1.88274 6.00264 1.88274H6.00765C6.03774 1.88274 6.06281 1.88274 6.0929 1.88274V1.8586V0.737915C6.06783 0.737915 6.04275 0.737915 6.01267 0.737915H6.00765Z" fill="#000303"/>
<path d="M4.20693 8.28275H6.07237H7.78235C8.35904 8.02068 8.59472 7.63792 8.66994 7.49309C8.5195 7.42757 8.36906 7.36206 8.21361 7.29999C8.04311 7.54482 7.48148 8.15861 6.07237 8.20344V8.20688C6.04228 8.20688 6.01219 8.20688 5.97709 8.20688C5.97709 8.20688 5.97709 8.20688 5.97207 8.20688C5.95201 8.20688 5.93196 8.20688 5.91691 8.20688V8.20344C4.5078 8.16206 3.94616 7.54482 3.77567 7.29999C3.62021 7.36206 3.46476 7.42757 3.31934 7.49309C3.39456 7.63792 3.63526 8.02413 4.20693 8.28275Z" fill="#C30D23"/>
<path d="M5.15014 0.820674C4.67375 0.88964 4.32273 1.02067 4.072 1.16205C3.65578 1.39309 3.50534 1.64826 3.49532 1.6655C3.28972 2.02067 3.15934 2.41033 3.0791 2.76205C3.38499 2.49998 3.9015 2.14481 4.59853 2.00688C4.61358 2.00343 4.88437 1.94481 5.38583 1.91033L5.64659 1.88274L5.20029 1.4655C5.16017 1.42757 5.1702 1.3724 5.22536 1.34481C5.28052 1.31723 5.36076 1.32412 5.40087 1.36205L5.6516 1.59654V0.751709C5.35073 0.775847 5.1702 0.817226 5.16519 0.817226L5.15014 0.820674Z" fill="#282625"/>
<path d="M4.95397 0.675848C4.9991 0.668951 5.04423 0.658606 5.09438 0.65171C5.1345 0.641365 5.28995 0.61033 5.53567 0.586192L5.63095 0.572399C5.60086 0.372399 5.42033 0.255158 5.38021 0.23102C5.1696 0.155158 4.97904 0.148261 4.80855 0.203434C4.46254 0.320675 4.25192 0.672399 4.1416 0.91033C4.36225 0.817227 4.62802 0.73102 4.95397 0.675848Z" fill="#282625"/>
<path d="M4.31218 4.88622L5.33517 4.88967C5.4505 4.88277 5.51569 4.86208 5.53575 4.82415C5.56584 4.76208 5.43044 4.68622 5.4154 4.67587C4.73842 4.39656 4.09655 4.67242 4.09154 4.67587L4.08652 4.67932C4.0113 4.74484 3.98623 4.79311 4.01632 4.83104C4.05644 4.87932 4.17177 4.88967 4.24699 4.88967C4.27708 4.88967 4.30215 4.88622 4.31218 4.88622ZM4.05644 4.8138C4.03638 4.78967 4.06145 4.75173 4.11661 4.70346C4.16676 4.68277 4.75848 4.44484 5.3803 4.70346C5.41038 4.7207 5.50065 4.77587 5.4856 4.8138C5.47557 4.83449 5.42041 4.85173 5.33015 4.85518L4.31218 4.85173H4.30717C4.25702 4.85518 4.09154 4.85863 4.05644 4.8138Z" fill="#060403"/>
<path d="M4.30695 4.8517L5.33495 4.85514C5.42521 4.84825 5.48037 4.83445 5.4904 4.81376C5.50545 4.77928 5.4202 4.72066 5.38509 4.70342C4.76328 4.4448 4.16654 4.68273 4.12141 4.70342C4.06123 4.7517 4.04117 4.79308 4.06123 4.81376C4.09132 4.85859 4.2568 4.85514 4.30695 4.8517Z" fill="#000303"/>
<path d="M4.7334 15.8207C5.0092 15.8173 5.26495 15.8069 5.4555 15.7931V15.3586L4.96407 15.369C4.93398 15.5724 4.83369 15.7207 4.7334 15.8207Z" fill="#2B2828"/>
<path d="M3.66587 15.1035C3.55555 15.0862 3.46529 15.0517 3.45024 15.0448L3.43018 15.0345C3.37001 14.9966 3.32488 15 3.2998 15.0035C3.31485 15.0586 3.35998 15.1414 3.48033 15.2172C3.65083 15.3276 3.90657 15.3862 4.24255 15.3862C4.26261 15.3862 4.27766 15.3862 4.29771 15.3862L4.71393 15.3759C4.6688 15.6241 4.48326 15.769 4.41305 15.8207C4.52337 15.8207 4.62868 15.8207 4.73399 15.8207C4.83428 15.7207 4.93959 15.569 4.96466 15.369L5.45609 15.3586V15.1862L4.28267 15.2138C3.95171 15.2207 3.76616 15.1655 3.66587 15.1035Z" fill="white"/>
<path d="M3.99197 15.0759C3.88666 15.1242 3.76631 15.1207 3.66602 15.1035C3.77132 15.1655 3.95686 15.2173 4.28783 15.2138L5.46125 15.1862V14.7655C5.02498 14.7621 4.5536 14.7483 4.16246 14.7276C4.17751 14.9 4.12235 15.0138 3.99197 15.0759Z" fill="#2B2828"/>
<path d="M4.77454 4.97589C4.66422 4.97589 4.58398 5.0621 4.58398 5.16899C4.58398 5.27589 4.66923 5.3621 4.77454 5.3621C4.87985 5.3621 4.9651 5.27589 4.9651 5.16899C4.9651 5.0621 4.87985 4.97589 4.77454 4.97589ZM4.77454 5.32762C4.69932 5.32762 4.63413 5.2552 4.63413 5.16899C4.63413 5.08279 4.69932 5.01037 4.77454 5.01037C4.84976 5.01037 4.91495 5.08279 4.91495 5.16899C4.91495 5.2552 4.84976 5.32762 4.77454 5.32762Z" fill="#060403"/>
<path d="M4.77322 5.01031C4.698 5.01031 4.63281 5.08273 4.63281 5.16894C4.63281 5.25514 4.698 5.32756 4.77322 5.32756C4.84844 5.32756 4.91363 5.25514 4.91363 5.16894C4.91363 5.08273 4.84844 5.01031 4.77322 5.01031Z" fill="#000303"/>
<path d="M4.29299 15.3862C4.27293 15.3862 4.25788 15.3862 4.23782 15.3862C3.89683 15.3862 3.64108 15.331 3.4756 15.2172C3.36026 15.1413 3.31513 15.0586 3.29507 15.0034C3.13461 15.0345 2.94907 15.2689 2.86382 15.431C2.8588 15.4931 2.88889 15.5448 2.95909 15.5931C3.1998 15.7551 3.8166 15.8103 4.41334 15.8172C4.48856 15.7655 4.66908 15.6207 4.71421 15.3724L4.29299 15.3862Z" fill="#2B2828"/>
<path d="M2.92348 2.90345C2.96861 2.86207 3.01876 2.81379 3.07893 2.75862C3.15917 2.41034 3.28955 2.02069 3.49515 1.66552C3.50518 1.64828 3.65562 1.39655 4.07183 1.16207C4.32256 1.02069 4.67359 0.886207 5.14997 0.82069L5.16502 0.817241C5.17003 0.817241 5.35056 0.775862 5.65144 0.751724V0.744828V0.696552C5.65144 0.682759 5.65645 0.668965 5.66648 0.655172C5.68654 0.627586 5.72666 0.610345 5.7768 0.610345C5.82193 0.610345 5.85704 0.624138 5.88211 0.648276C5.89715 0.662069 5.90217 0.67931 5.90217 0.696552V0.737931V0.741379C5.93727 0.741379 5.97237 0.737931 6.00748 0.737931H6.01751C6.04258 0.737931 6.06765 0.737931 6.09774 0.737931V0.696552C6.09774 0.67931 6.10777 0.662069 6.1178 0.648276C6.13786 0.624138 6.17797 0.610345 6.2231 0.610345C6.27325 0.610345 6.31337 0.627586 6.33343 0.655172C6.34346 0.665517 6.34847 0.682759 6.34847 0.696552V0.748276V0.755172C6.64935 0.77931 6.82987 0.82069 6.83489 0.82069L6.84993 0.824138C7.32632 0.893103 7.67735 1.02414 7.92808 1.16552C8.34429 1.39655 8.49473 1.65172 8.50476 1.66897C8.71036 2.02069 8.84074 2.41034 8.92097 2.76552C8.98115 2.81724 9.0313 2.86552 9.07643 2.9069C9.09147 2.90345 9.11153 2.90345 9.12657 2.90345C9.15165 2.90345 9.18173 2.9069 9.20681 2.91034C9.12657 2.5069 8.98616 2.03448 8.73543 1.60345C8.7254 1.58621 8.57998 1.33103 8.17881 1.08621C8.12866 0.927586 7.88796 0.251724 7.30125 0.0551724C7.05553 -0.0275862 6.77973 -0.0172414 6.49389 0.0862069L6.47384 0.0931034C6.45879 0.1 6.15791 0.265517 6.1178 0.565517C6.08771 0.565517 6.05762 0.565517 6.02753 0.565517H6.02252C5.97739 0.565517 5.92724 0.565517 5.8771 0.565517C5.83698 0.265517 5.5361 0.1 5.52106 0.0931034L5.501 0.0862069C5.21015 -0.0172414 4.93936 -0.0275862 4.69364 0.0551724C4.10693 0.248276 3.86623 0.927586 3.81608 1.08621C3.41993 1.33448 3.26949 1.58621 3.25946 1.60345C3.00873 2.03448 2.86832 2.5069 2.78809 2.91034C2.81316 2.90345 2.83823 2.90345 2.86832 2.90345C2.88838 2.9 2.90844 2.90345 2.92348 2.90345ZM6.61926 0.231034C6.82987 0.155172 7.02043 0.148276 7.19093 0.203448C7.53694 0.32069 7.74755 0.672414 7.85787 0.910345C7.63723 0.813793 7.37145 0.727586 7.0455 0.668965C7.00037 0.662069 6.95524 0.651724 6.90509 0.644827C6.86498 0.634483 6.70952 0.603448 6.45879 0.57931L6.37354 0.565517C6.39862 0.372414 6.57914 0.255172 6.61926 0.231034ZM4.80898 0.206897C4.97948 0.148276 5.17003 0.158621 5.38065 0.234483C5.42076 0.258621 5.60129 0.375862 5.63138 0.575862L5.5361 0.589655C5.29038 0.613793 5.13493 0.644828 5.09481 0.655172C5.04968 0.662069 4.99954 0.668965 4.9544 0.67931C4.62845 0.737931 4.36268 0.82069 4.14203 0.917241C4.24734 0.675862 4.45796 0.324138 4.80898 0.206897Z" fill="#060403"/>
<path d="M2.82345 8.28276H3.79629C3.3901 8.03449 3.18952 7.74483 3.10427 7.58966C2.98893 7.64138 2.88363 7.69311 2.77832 7.74139C2.83348 7.85518 2.91873 8.07932 2.82345 8.28276Z" fill="#C30D23"/>
<path d="M2.02051 14.2448C2.0857 14.2689 2.34144 14.331 3.29924 14.3069L3.41959 12.7103H2.31637L2.02051 14.2448Z" fill="#C30D23"/>
<path d="M2.97903 3.32067C3.08935 3.28963 3.16959 3.21032 3.16959 3.11722C3.16959 3.07584 3.15454 3.03791 3.12947 3.00687C3.37519 2.76894 3.91677 2.32067 4.67899 2.16894C4.684 2.16894 5.06512 2.08618 5.77218 2.0586C5.77719 2.0586 5.78221 2.0586 5.78722 2.0586C5.79725 2.0586 5.80728 2.0586 5.8123 2.05515C5.87749 2.0517 5.94769 2.0517 6.01789 2.04825H6.02291C6.08308 2.04825 6.14326 2.0517 6.19842 2.0517C6.20845 2.0517 6.21347 2.0517 6.22349 2.0517C6.22851 2.0517 6.23352 2.0517 6.23854 2.0517C6.9456 2.07929 7.32671 2.1586 7.33674 2.16204C8.09395 2.31377 8.63553 2.76204 8.88125 2.99998C8.85617 3.03101 8.84113 3.06894 8.84113 3.11032C8.84113 3.20342 8.92136 3.28273 9.03168 3.31377C9.06679 3.32411 9.10189 3.32756 9.13699 3.32756C9.18714 3.32756 9.23728 3.31722 9.28242 3.29998C9.37268 3.26204 9.43286 3.19308 9.43286 3.11032C9.43286 3.01032 9.34259 2.92411 9.21723 2.89998C9.19215 2.89308 9.16708 2.89308 9.13699 2.89308C9.11693 2.89308 9.10189 2.89308 9.08685 2.89653C9.04171 2.85515 8.99157 2.80687 8.93139 2.75515C8.6255 2.49308 8.10899 2.13791 7.41196 1.99998C7.3919 1.99653 7.12613 1.93791 6.61965 1.90342C6.61464 1.90342 6.60962 1.90342 6.60461 1.90342L6.35387 1.87584L6.80519 1.4586C6.84531 1.42067 6.83528 1.36549 6.78012 1.33791C6.72496 1.31032 6.64472 1.31722 6.60461 1.35515L6.35387 1.58963V0.7517V0.744804V0.693079C6.35387 0.679286 6.34886 0.665493 6.33883 0.6517C6.31877 0.624114 6.27866 0.606873 6.22851 0.606873C6.18338 0.606873 6.14828 0.620666 6.1232 0.644804C6.10816 0.658597 6.10314 0.675838 6.10314 0.693079V0.734459V1.8517V1.87584C6.07306 1.87584 6.04798 1.87584 6.01789 1.87584H6.01288C5.98279 1.87584 5.94769 1.87584 5.91259 1.87584V1.8517V0.737907V0.734459V0.693079C5.91259 0.675838 5.90256 0.658597 5.89253 0.644804C5.87247 0.620666 5.83235 0.606873 5.78722 0.606873C5.73708 0.606873 5.69696 0.624114 5.6769 0.6517C5.66687 0.662045 5.66186 0.679286 5.66186 0.693079V0.741355V0.748252V1.58963L5.41113 1.35515C5.37101 1.31722 5.29077 1.31032 5.23561 1.33791C5.18045 1.36549 5.17042 1.42067 5.21054 1.4586L5.65684 1.87584L5.39608 1.90342C4.89462 1.93791 4.62383 1.99653 4.60879 1.99998C3.91175 2.13791 3.39525 2.49308 3.08935 2.75515C3.02918 2.80687 2.97903 2.85515 2.9339 2.89998C2.91886 2.89653 2.8988 2.89653 2.88375 2.89653C2.85367 2.89653 2.82859 2.89998 2.80352 2.90342C2.67815 2.92756 2.58789 3.01377 2.58789 3.11377C2.58789 3.19653 2.64807 3.26549 2.73833 3.30342C2.78346 3.32067 2.82859 3.33101 2.88375 3.33101C2.90883 3.33791 2.94393 3.33101 2.97903 3.32067Z" fill="#F2F106"/>
<path d="M2.71369 5.12067C2.58833 5.19653 2.45293 5.34825 2.52314 5.63101V5.64136C2.52314 5.6448 2.54319 5.76549 2.80897 5.8517C2.73876 5.66894 2.69865 5.47929 2.69865 5.28274C2.70366 5.22756 2.70868 5.17584 2.71369 5.12067Z" fill="#F4DDC6"/>
<path d="M2.56813 7.85175C2.22713 8.02416 1.97139 8.17933 1.87109 8.28623H2.5581C2.65839 8.1414 2.61326 7.96209 2.56813 7.85175Z" fill="#F2F106"/>
<path d="M1.48435 8.45862H0.556641V9.87241H1.15338C1.31886 9.87241 1.44924 9.96207 1.44924 10.0759C1.44924 10.1345 1.40913 10.1897 1.34895 10.2276C1.40913 10.2655 1.44924 10.3172 1.44924 10.3793C1.44924 10.4414 1.40913 10.4931 1.34895 10.531C1.40913 10.569 1.44924 10.6241 1.44924 10.6828C1.44924 10.7448 1.40913 10.7965 1.34895 10.8345C1.40913 10.8724 1.44924 10.9241 1.44924 10.9862C1.44924 11.1 1.31385 11.1897 1.15338 11.1897H0.556641V12.5414H1.48435V10.9862V8.45862Z" fill="#EAE8D8"/>
<path d="M0.922714 12.8655L1.07315 12.9138L1.04307 12.9379L0.962831 13C0.697056 13.2 0.857524 13.3241 0.862539 13.3241L0.867553 13.3276C0.927729 13.3793 0.997933 13.4034 1.06312 13.4034C1.15339 13.4034 1.24365 13.3552 1.27875 13.331C1.41415 13.1655 1.22359 13.0414 1.19852 13.0276L1.07315 12.9552L1.21356 12.8931C1.34896 12.8345 1.41916 12.7655 1.45426 12.7103H0.742188C0.817407 12.8276 0.917699 12.8655 0.922714 12.8655Z" fill="#C69A7B"/>
<path d="M1.26286 8.12756L1.12245 8.07929L1.14753 8.0586L1.22776 7.99653C1.49354 7.79653 1.32805 7.67239 1.32805 7.67239L1.32304 7.66894C1.25785 7.61722 1.19266 7.59308 1.12747 7.59308C1.03721 7.59308 0.946942 7.64135 0.91184 7.66549C0.771431 7.83101 0.967001 7.95515 0.992074 7.96894L1.11744 8.04135L0.97703 8.10342C0.841635 8.16204 0.771431 8.23101 0.736328 8.28618H1.44339C1.36817 8.16549 1.26788 8.13101 1.26286 8.12756Z" fill="#C69A7B"/>
<path d="M0.296372 10.0379C0.266284 10.0379 0.241211 10.0551 0.241211 10.0758C0.241211 10.0965 0.266284 10.1138 0.296372 10.1138H0.301386H0.471884H0.552118H1.14886C1.17895 10.1138 1.20402 10.0965 1.20402 10.0758C1.20402 10.0551 1.17895 10.0379 1.14886 10.0379H0.557132H0.476898H0.306401H0.296372Z" fill="#F4DDC6"/>
<path d="M0.296372 10.4138H0.301386H0.471884H0.552118H1.14886C1.17895 10.4138 1.20402 10.3966 1.20402 10.3759C1.20402 10.3552 1.17895 10.338 1.14886 10.338H0.557132H0.476898H0.306401H0.296372C0.266284 10.338 0.241211 10.3552 0.241211 10.3759C0.241211 10.3966 0.266284 10.4138 0.296372 10.4138Z" fill="#F4DDC6"/>
<path d="M0.296372 10.7172H0.301386H0.471884H0.552118H1.14886C1.17895 10.7172 1.20402 10.7 1.20402 10.6793C1.20402 10.6586 1.17895 10.6414 1.14886 10.6414H0.557132H0.476898H0.306401H0.296372C0.266284 10.6414 0.241211 10.6586 0.241211 10.6793C0.241211 10.7 0.266284 10.7172 0.296372 10.7172Z" fill="#F4DDC6"/>
<path d="M0.296372 11.0207H0.301386H0.471884H0.552118H1.14886C1.17895 11.0207 1.20402 11.0034 1.20402 10.9828C1.20402 10.9621 1.17895 10.9448 1.14886 10.9448H0.557132H0.476898H0.306401H0.296372C0.266284 10.9448 0.241211 10.9621 0.241211 10.9828C0.241211 11.0034 0.266284 11.0207 0.296372 11.0207Z" fill="#F4DDC6"/>
</svg>
