<svg width="80" height="20" viewBox="0 0 80 20" fill="none" xmlns="http://www.w3.org/2000/svg">
<path d="M13.3265 12.6275C13.2331 12.6586 13.1631 12.6741 13.1164 12.6741C12.9608 12.6741 12.7585 12.6197 12.5096 12.5108C12.2762 12.3863 12.1595 12.2618 12.1595 12.1373C12.1595 12.0129 12.1517 11.8962 12.1362 11.7873C12.1362 11.6628 12.1362 11.515 12.1362 11.3438C12.1362 11.2816 12.1517 11.2349 12.1829 11.2038C12.214 11.1571 12.2295 11.1104 12.2295 11.0638C12.2295 11.0326 12.2218 10.9471 12.2062 10.807C12.1906 10.6514 12.1751 10.4881 12.1595 10.3169C12.1595 10.1458 12.1517 9.99018 12.1362 9.85015C12.1206 9.69455 12.1128 9.6012 12.1128 9.57008C12.1128 9.50784 12.1284 9.46894 12.1595 9.45339C12.1906 9.43783 12.2062 9.41449 12.2062 9.38337C12.2062 9.35225 12.1829 9.31335 12.1362 9.26667C12.0895 9.20444 12.0662 9.1422 12.0662 9.07996C12.0662 9.04885 12.0895 9.01773 12.1362 8.98661C12.1829 8.95549 12.2062 8.90881 12.2062 8.84658C12.2062 8.76878 12.1829 8.69876 12.1362 8.63653C12.0895 8.57429 12.0662 8.52761 12.0662 8.49649C12.0662 8.43426 12.0817 8.3798 12.1128 8.33312C12.144 8.27089 12.1595 8.19309 12.1595 8.09973C12.1595 8.0375 12.1517 7.98304 12.1362 7.93636C12.1206 7.87413 12.1128 7.81967 12.1128 7.77299C12.1128 7.72631 12.1362 7.67964 12.1829 7.63296C12.1362 7.55516 12.1051 7.48515 12.0895 7.42291C12.0739 7.34511 12.0662 7.26732 12.0662 7.18952C12.0662 7.09617 12.0817 7.01059 12.1128 6.93279C12.144 6.855 12.1595 6.7772 12.1595 6.69941C12.1595 6.62161 12.1517 6.53603 12.1362 6.44268C12.1362 6.34932 12.1362 6.25597 12.1362 6.16261C12.1362 6.03814 12.1284 5.92145 12.1128 5.81253C12.1128 5.70362 12.1128 5.5947 12.1128 5.48579C12.1128 5.42355 12.1051 5.36909 12.0895 5.32242C12.0739 5.26018 12.0662 5.19794 12.0662 5.13571C12.0662 5.02679 12.0739 4.92566 12.0895 4.8323C12.1206 4.72339 12.1362 4.61447 12.1362 4.50556V4.38886L12.0662 4.22549C12.0973 4.20993 12.1128 4.18659 12.1128 4.15548C12.1284 4.1088 12.144 4.07768 12.1595 4.06212L12.2062 3.92209C12.1128 3.84429 12.0662 3.70426 12.0662 3.50199L12.1128 2.63845C12.1128 2.56066 12.1206 2.47508 12.1362 2.38173C12.1517 2.28837 12.1595 2.21057 12.1595 2.14834C12.1595 2.11722 12.1595 2.10944 12.1595 2.125C12.1595 2.125 12.1362 2.0861 12.0895 2.00831C12.1362 1.99275 12.1595 1.95385 12.1595 1.89161C12.1595 1.86049 12.144 1.82159 12.1128 1.77492C12.0817 1.72824 12.0662 1.68156 12.0662 1.63488C12.0662 1.60377 12.0739 1.58043 12.0895 1.56487C12.1206 1.53375 12.1362 1.49485 12.1362 1.44817V1.02807C12.1206 0.856922 12.2062 0.71689 12.3929 0.607975C12.5952 0.499061 12.813 0.436825 13.0464 0.421266C13.3109 0.405705 13.5521 0.467942 13.7699 0.607975C14.0033 0.748008 14.12 0.981396 14.12 1.30814C14.12 1.38594 14.1122 1.46373 14.0966 1.54153C14.0966 1.60377 14.0966 1.666 14.0966 1.72824C14.0811 1.86827 14.0811 2.01608 14.0966 2.17168C14.1122 2.31171 14.12 2.39729 14.12 2.4284C14.12 2.45952 14.1122 2.5062 14.0966 2.56844C14.0966 2.63067 14.0966 2.67735 14.0966 2.70847C14.0966 2.80182 14.0811 2.91074 14.05 3.03521C14.0344 3.14413 14.0266 3.23748 14.0266 3.31528C14.0266 3.39307 14.0344 3.47865 14.05 3.57201C14.0811 3.6498 14.1122 3.71204 14.1433 3.75872C14.05 3.85207 14.0033 3.95321 14.0033 4.06212C14.0033 4.09324 14.0111 4.13214 14.0266 4.17881C14.0422 4.20993 14.05 4.24105 14.05 4.27217C14.0188 4.30329 14.0111 4.33441 14.0266 4.36552C14.0422 4.38108 14.05 4.40442 14.05 4.43554C14.05 4.51334 14.05 4.64559 14.05 4.8323C14.0655 5.01901 14.0733 5.12793 14.0733 5.15904C14.0733 5.26796 14.0577 5.36131 14.0266 5.43911C13.9955 5.50135 13.9799 5.57914 13.9799 5.6725C13.9799 5.71918 13.9799 5.76585 13.9799 5.81253C13.9955 5.85921 14.0033 5.90589 14.0033 5.95256C14.0033 5.98368 13.9877 6.02258 13.9566 6.06926C13.941 6.11594 13.9333 6.15483 13.9333 6.18595C14.0266 6.26375 14.0966 6.36488 14.1433 6.48936C14.1433 6.52048 14.1122 6.54381 14.05 6.55937C14.0033 6.57493 13.9799 6.59827 13.9799 6.62939C13.9799 6.66051 13.9955 6.69941 14.0266 6.74608C14.0733 6.79276 14.0966 6.84722 14.0966 6.90946C14.0966 6.98725 14.0811 7.07283 14.05 7.16618C14.0344 7.24398 14.0266 7.33733 14.0266 7.44625C14.0266 7.57072 14.0344 7.68742 14.05 7.79633C14.0811 7.90524 14.0966 8.0375 14.0966 8.19309C14.0966 8.23977 14.0811 8.28645 14.05 8.33312C14.0188 8.3798 14.0033 8.42648 14.0033 8.47316C14.0033 8.53539 14.0344 8.58985 14.0966 8.63653C14.0655 8.74544 14.05 8.83102 14.05 8.89325C14.05 8.93993 14.05 9.01773 14.05 9.12664C14.05 9.17332 14.05 9.29001 14.05 9.47672C14.05 9.64788 14.05 9.83459 14.05 10.0369C14.05 10.2391 14.05 10.4258 14.05 10.597C14.0655 10.7526 14.0889 10.8537 14.12 10.9004C14.1044 10.9782 14.0966 11.0404 14.0966 11.0871C14.1122 11.1182 14.12 11.1493 14.12 11.1805C14.1355 11.196 14.1433 11.2194 14.1433 11.2505C14.1589 11.266 14.1667 11.2972 14.1667 11.3438C14.1667 11.4061 14.1589 11.4761 14.1433 11.5539C14.1278 11.6161 14.12 11.6784 14.12 11.7406V12.184C14.12 12.3241 14.05 12.4408 13.9099 12.5341C13.7855 12.6119 13.6688 12.6508 13.5598 12.6508C13.4509 12.6508 13.3731 12.643 13.3265 12.6275ZM16.1971 4.62225C16.3216 4.62225 16.4694 4.65337 16.6406 4.71561C16.8273 4.76228 17.014 4.80118 17.2007 4.8323C17.2629 4.84786 17.3407 4.90232 17.4341 4.99567C17.5274 5.07347 17.6208 5.16682 17.7142 5.27574C17.8075 5.36909 17.8853 5.46245 17.9475 5.5558C18.0253 5.64916 18.0642 5.7114 18.0642 5.74251C18.0642 5.77363 18.0798 5.80475 18.1109 5.83587C18.142 5.86699 18.1576 5.89811 18.1576 5.92923C18.1576 5.96034 18.1343 5.99924 18.0876 6.04592C18.0565 6.07704 18.0409 6.10816 18.0409 6.13927C18.1343 6.27931 18.1809 6.41934 18.1809 6.55937C18.1809 7.07283 18.0176 7.47737 17.6908 7.77299C17.3641 8.05306 16.9284 8.19309 16.3838 8.19309C16.3527 8.19309 16.3138 8.18531 16.2672 8.16975C16.236 8.13863 16.2049 8.12307 16.1738 8.12307C16.1271 8.12307 16.0804 8.13085 16.0338 8.14641C16.0026 8.14641 15.9715 8.14641 15.9404 8.14641C15.7848 8.14641 15.6214 8.10751 15.4503 8.02972C15.2791 7.93636 15.1313 7.81967 15.0069 7.67964C14.8824 7.52404 14.7812 7.35289 14.7035 7.16618C14.6412 6.97947 14.6257 6.79276 14.6568 6.60605C14.6568 6.57493 14.6412 6.55159 14.6101 6.53603C14.5945 6.50492 14.5868 6.4738 14.5868 6.44268C14.5868 6.25597 14.6101 6.06148 14.6568 5.85921C14.719 5.64138 14.8124 5.43911 14.9368 5.2524C15.0769 5.06569 15.248 4.91788 15.4503 4.80896C15.6526 4.68449 15.9015 4.62225 16.1971 4.62225ZM8.58868 8.70654C8.47977 9.26668 8.28528 9.74123 8.00521 10.1302C7.72515 10.5192 7.45286 10.7837 7.18835 10.9237C6.86161 11.0949 6.55043 11.2583 6.2548 11.4138C5.97474 11.5694 5.67133 11.6239 5.34459 11.5772C5.26679 11.6395 5.16566 11.6706 5.04118 11.6706C5.01006 11.6706 4.97895 11.6706 4.94783 11.6706C4.91671 11.655 4.88559 11.6472 4.85447 11.6472C4.76112 11.6472 4.66776 11.6628 4.57441 11.6939C4.48105 11.725 4.37992 11.7406 4.271 11.7406C4.17765 11.7406 4.08429 11.7173 3.99094 11.6706C3.89758 11.6083 3.81979 11.5772 3.75755 11.5772C3.69531 11.5772 3.64085 11.585 3.59418 11.6006C3.56306 11.6006 3.52416 11.6006 3.47748 11.6006C3.44636 11.6006 3.41525 11.6006 3.38413 11.6006C3.35301 11.585 3.32967 11.5383 3.31411 11.4605C3.25187 11.4916 3.2052 11.4994 3.17408 11.4839C3.03405 11.4527 2.88623 11.3983 2.73064 11.3205C2.57505 11.2427 2.41946 11.1416 2.26386 11.0171C2.12383 10.8771 1.99158 10.7215 1.8671 10.5503C1.75819 10.3636 1.68039 10.1535 1.63372 9.92016C1.5248 9.81125 1.47812 9.72567 1.49368 9.66343L1.37699 9.26667C1.28363 9.18888 1.22918 9.08774 1.21362 8.96327C1.19806 8.82324 1.19028 8.71432 1.19028 8.63653C1.19028 8.49649 1.17472 8.35646 1.1436 8.21643C1.12804 8.06084 1.13582 7.87413 1.16694 7.6563C1.16694 7.51626 1.19028 7.37623 1.23696 7.2362C1.29919 7.08061 1.33031 6.96391 1.33031 6.88612L1.5637 6.55937C1.59482 6.46602 1.6415 6.38044 1.70373 6.30265C1.76597 6.22485 1.80487 6.13927 1.82043 6.04592C1.83599 5.92145 1.88266 5.82809 1.96046 5.76585C2.05382 5.68806 2.15495 5.64138 2.26386 5.62582L2.89401 5.27574C2.95625 5.19794 3.07294 5.14349 3.24409 5.11237C3.41525 5.06569 3.59418 5.03457 3.78089 5.01901C3.9676 4.98789 4.15431 4.97233 4.34102 4.97233C4.52773 4.97233 4.66776 4.97233 4.76112 4.97233C4.88559 4.94122 5.00228 4.91788 5.1112 4.90232C5.23567 4.88676 5.36015 4.87898 5.48462 4.87898C5.70245 4.87898 5.93584 4.91788 6.18478 4.99567C6.43373 5.05791 6.62822 5.15126 6.76826 5.27574C6.79937 5.30686 6.88495 5.38465 7.02498 5.50913C7.18057 5.6336 7.33617 5.77363 7.49176 5.92923C7.66291 6.06926 7.81072 6.20929 7.9352 6.34932C8.05967 6.4738 8.12191 6.56715 8.12191 6.62939C8.12191 6.87834 8.18414 7.07283 8.30862 7.21286C8.43309 7.33733 8.49533 7.50071 8.49533 7.70297C8.49533 7.74965 8.48755 7.80411 8.47199 7.86635C8.47199 7.91302 8.47199 7.9597 8.47199 8.00638C8.47199 8.14641 8.49533 8.26311 8.542 8.35646C8.60424 8.44982 8.6198 8.56651 8.58868 8.70654ZM6.13811 2.66179C6.20034 2.66179 6.27814 2.66179 6.3715 2.66179C6.48041 2.64623 6.56599 2.63067 6.62822 2.61511C6.73714 2.61511 6.81493 2.63067 6.86161 2.66179C6.90829 2.67735 6.96275 2.68513 7.02498 2.68513C7.07166 2.68513 7.17279 2.67735 7.32839 2.66179C7.48398 2.63067 7.62401 2.61511 7.74848 2.61511C7.84184 2.63067 7.95075 2.63845 8.07523 2.63845C8.21526 2.63845 8.33196 2.63845 8.42531 2.63845C8.47199 2.63845 8.51089 2.63845 8.542 2.63845C8.58868 2.62289 8.62758 2.61511 8.6587 2.61511C8.79873 2.61511 8.91543 2.63845 9.00878 2.68513C9.07102 2.65401 9.10992 2.63845 9.12548 2.63845C9.29663 2.63845 9.42888 2.72403 9.52223 2.89518C9.61559 3.05077 9.66227 3.2297 9.66227 3.43197C9.66227 3.6498 9.60781 3.84429 9.4989 4.01544C9.40554 4.18659 9.24995 4.27217 9.03212 4.27217C8.93876 4.27217 8.85319 4.26439 8.77539 4.24883C8.6976 4.23327 8.62758 4.22549 8.56534 4.22549C8.53422 4.22549 8.49533 4.23327 8.44865 4.24883C8.41753 4.26439 8.36307 4.27995 8.28528 4.29551H7.63179C7.50732 4.26439 7.42174 4.24883 7.37506 4.24883C7.34395 4.24883 7.23503 4.26439 7.04832 4.29551C6.87717 4.32663 6.7138 4.34219 6.55821 4.34219C6.48041 4.34219 6.37927 4.32663 6.2548 4.29551C6.14589 4.26439 6.02919 4.24883 5.90472 4.24883C5.84248 4.24883 5.78802 4.25661 5.74135 4.27217C5.69467 4.28773 5.63243 4.29551 5.55464 4.29551C5.43016 4.29551 5.31347 4.30329 5.20455 4.31885C5.09564 4.33441 4.97895 4.32663 4.85447 4.29551C4.82335 4.29551 4.78446 4.30329 4.73778 4.31885C4.70666 4.31885 4.66776 4.31885 4.62108 4.31885C4.51217 4.31885 4.43437 4.29551 4.3877 4.24883C4.32546 4.27995 4.28656 4.29551 4.271 4.29551C4.22432 4.29551 4.17765 4.28773 4.13097 4.27217C4.08429 4.25661 4.03761 4.24883 3.99094 4.24883C3.94426 4.24883 3.89758 4.25661 3.8509 4.27217C3.81979 4.28773 3.78867 4.29551 3.75755 4.29551C3.72643 4.29551 3.68753 4.28773 3.64085 4.27217C3.60974 4.25661 3.57862 4.24883 3.5475 4.24883C3.48526 4.24883 3.42303 4.26439 3.36079 4.29551C3.31411 4.31107 3.25187 4.31885 3.17408 4.31885C3.15852 4.30329 3.13518 4.29551 3.10406 4.29551H2.87067C2.83956 4.29551 2.81622 4.29551 2.80066 4.29551C2.7851 4.27995 2.76176 4.27217 2.73064 4.27217C2.69952 4.27217 2.66062 4.27995 2.61395 4.29551C2.58283 4.31107 2.54393 4.31885 2.49725 4.31885C2.41946 4.31885 2.31832 4.30329 2.19385 4.27217C2.14717 4.28773 2.06937 4.29551 1.96046 4.29551C1.8671 4.29551 1.76597 4.29551 1.65706 4.29551C1.54814 4.29551 1.43923 4.29551 1.33031 4.29551C1.23696 4.29551 1.16694 4.29551 1.12026 4.29551C0.840197 4.29551 0.58347 4.28773 0.350082 4.27217C0.116694 4.24105 0 4.09324 0 3.82873C0 3.51755 0.0466776 3.2686 0.140033 3.08189C0.155592 2.95742 0.225608 2.86406 0.350082 2.80182C0.490115 2.72403 0.661266 2.68513 0.863536 2.68513C1.00357 2.68513 1.15138 2.69291 1.30697 2.70847C1.47812 2.70847 1.62594 2.70847 1.75041 2.70847C1.81265 2.70847 1.89822 2.69291 2.00714 2.66179C2.13161 2.63067 2.20941 2.61511 2.24053 2.61511C2.33388 2.63067 2.52059 2.64623 2.80066 2.66179C3.09628 2.66179 3.42303 2.66179 3.78089 2.66179V2.125C3.78089 2.0472 3.78867 1.97719 3.80423 1.91495C3.81979 1.83715 3.82757 1.77492 3.82757 1.72824C3.82757 1.68156 3.81979 1.63488 3.80423 1.58821C3.78867 1.54153 3.76533 1.47929 3.73421 1.4015C3.78089 1.3237 3.80423 1.25368 3.80423 1.19145C3.80423 1.11365 3.80423 1.03585 3.80423 0.958059C3.80423 0.880263 3.79645 0.818026 3.78089 0.771347C3.78089 0.70911 3.78089 0.646873 3.78089 0.584636C3.79645 0.413485 3.8509 0.265674 3.94426 0.141199C4.05317 0.0167253 4.27878 0.00116609 4.62108 0.0945226C4.94783 -0.0455106 5.22011 -0.0299515 5.43794 0.141199C5.65577 0.31235 5.76469 0.553518 5.76469 0.864703C5.76469 0.942499 5.77247 1.02807 5.78803 1.12143C5.80358 1.21479 5.80358 1.30814 5.78803 1.4015C5.77247 1.52597 5.76469 1.65822 5.76469 1.79826C5.76469 1.93829 5.76469 2.07054 5.76469 2.19502C5.76469 2.21057 5.76469 2.26503 5.76469 2.35839C5.76469 2.45174 5.77247 2.55288 5.78803 2.66179H6.13811ZM5.1112 6.41934C4.59775 6.41934 4.17765 6.48936 3.8509 6.62939C3.53972 6.75386 3.29077 6.98725 3.10406 7.32955C3.07294 7.37623 3.02627 7.46181 2.96403 7.58628C2.91735 7.6952 2.89401 7.78077 2.89401 7.84301C2.89401 7.87413 2.90179 7.91302 2.91735 7.9597C2.93291 7.99082 2.94069 8.02194 2.94069 8.05306C2.94069 8.13085 2.92513 8.20087 2.89401 8.26311C2.87845 8.32534 2.87067 8.38758 2.87067 8.44982C2.87067 8.54317 2.89401 8.62097 2.94069 8.6832C3.00293 8.74544 3.03405 8.80768 3.03405 8.86992C3.03405 8.90103 3.03405 8.95549 3.03405 9.03329C3.03405 9.11108 3.0496 9.17332 3.08072 9.22C3.17408 9.43783 3.35301 9.63232 3.61752 9.80347C3.89758 9.97462 4.26322 10.0835 4.71444 10.1302C5.11898 10.1147 5.42238 10.0602 5.62465 9.96684C5.82692 9.87348 5.98252 9.78791 6.09143 9.71011C6.26258 9.58564 6.40261 9.45339 6.51153 9.31335C6.636 9.15776 6.69824 9.04107 6.69824 8.96327C6.69824 8.80768 6.72158 8.69098 6.76826 8.61319C6.78381 8.44204 6.76826 8.32534 6.72158 8.26311C6.69046 8.20087 6.6749 8.15419 6.6749 8.12307C6.6749 8.0764 6.65934 8.04528 6.62822 8.02972C6.5971 7.9986 6.58154 7.9597 6.58154 7.91302C6.58154 7.88191 6.58154 7.82745 6.58154 7.74965C6.5971 7.67186 6.60488 7.6174 6.60488 7.58628C6.58932 7.41513 6.52709 7.25954 6.41817 7.1195C6.32482 6.96391 6.20034 6.83944 6.04475 6.74608C5.90472 6.63717 5.74913 6.55937 5.57798 6.5127C5.42238 6.45046 5.26679 6.41934 5.1112 6.41934ZM14.7035 19.0456C14.4078 19.0301 14.1589 19.0301 13.9566 19.0456C13.7543 19.0612 13.4976 19.069 13.1864 19.069C13.1553 19.069 13.1164 19.0612 13.0697 19.0456C13.0231 19.0456 12.9842 19.0456 12.953 19.0456C12.9064 19.0456 12.8597 19.0456 12.813 19.0456C12.7819 19.0612 12.743 19.069 12.6963 19.069C12.6652 19.069 12.6263 19.0534 12.5796 19.0223C12.5329 19.0067 12.494 18.999 12.4629 18.999C12.1517 18.999 11.8483 19.0145 11.5527 19.0456C11.2571 19.0768 10.9615 19.0923 10.6658 19.0923C10.6347 19.0923 10.5958 19.0845 10.5491 19.069C10.5025 19.0534 10.4636 19.0456 10.4324 19.0456C10.4013 19.0456 10.378 19.0456 10.3624 19.0456C10.3469 19.0612 10.3313 19.069 10.3158 19.069C10.2691 19.069 10.2224 19.0534 10.1757 19.0223C10.129 18.9912 10.0824 18.9756 10.0357 18.9756C10.0046 18.9756 9.96567 18.9912 9.91899 19.0223C9.88788 19.069 9.8412 19.0923 9.77896 19.0923C9.74784 19.0923 9.68561 19.0845 9.59225 19.069C9.51446 19.069 9.4211 19.069 9.31219 19.069C9.20327 19.069 9.09436 19.0612 8.98544 19.0456C8.89209 19.0456 8.82985 19.0456 8.79873 19.0456C8.47199 19.0145 8.16858 19.0145 7.88852 19.0456C7.62401 19.0768 7.4373 19.0923 7.32839 19.0923C7.26615 19.0923 7.21169 19.069 7.16501 19.0223C7.1339 18.9912 7.07166 18.9756 6.9783 18.9756C6.88495 18.9756 6.81493 18.9834 6.76826 18.999C6.72158 19.0301 6.6749 19.0456 6.62822 19.0456C6.58154 19.0456 6.53487 19.0379 6.48819 19.0223C6.45707 19.0067 6.42595 18.9912 6.39483 18.9756C6.37928 19.0067 6.34816 19.0223 6.30148 19.0223C6.27036 19.0223 6.23924 18.999 6.20812 18.9523C6.19256 18.9212 6.16923 18.9056 6.13811 18.9056C6.10699 18.9056 6.03697 18.9289 5.92806 18.9756C5.81914 19.0379 5.74135 19.069 5.69467 19.069C5.64799 19.069 5.59354 19.0456 5.5313 18.999C5.46906 18.9678 5.40682 18.9523 5.34459 18.9523C5.31347 18.9523 5.28235 18.9601 5.25123 18.9756C5.22011 18.9912 5.189 18.999 5.15788 18.999C5.14232 18.999 5.12676 18.9912 5.1112 18.9756C5.09564 18.9756 5.08008 18.9756 5.06452 18.9756C5.0334 18.9756 4.99451 18.9834 4.94783 18.999C4.91671 19.0145 4.88559 19.0223 4.85447 19.0223C4.82335 19.0223 4.80002 19.0145 4.78446 18.999C4.7689 18.9834 4.74556 18.9756 4.71444 18.9756C4.26322 18.9756 3.8509 18.9834 3.47748 18.999C3.10406 19.0145 2.69174 19.0223 2.24053 19.0223H1.47035C1.42367 19.0223 1.37699 18.9834 1.33031 18.9056C1.31475 18.89 1.27586 18.8667 1.21362 18.8356C1.16694 18.82 1.11248 18.7889 1.05025 18.7422C1.00357 18.7111 0.956891 18.6644 0.910214 18.6022C0.863536 18.54 0.840197 18.4622 0.840197 18.3688C0.871316 18.3066 0.879095 18.2132 0.863536 18.0887C0.847977 17.9643 0.840197 17.8865 0.840197 17.8554C0.840197 17.762 0.840197 17.6375 0.840197 17.4819C0.855756 17.3263 0.863536 17.1863 0.863536 17.0618C0.863536 16.984 0.855756 16.9062 0.840197 16.8285C0.840197 16.7662 0.840197 16.6806 0.840197 16.5717L0.863536 15.9182C0.863536 15.8871 0.855756 15.8327 0.840197 15.7549C0.824638 15.6771 0.816858 15.6148 0.816858 15.5682C0.816858 15.4904 0.840197 15.4281 0.886875 15.3814C0.933552 15.3192 0.956891 15.2647 0.956891 15.2181C0.956891 15.1714 0.933552 15.1169 0.886875 15.0547C0.840197 14.9925 0.816858 14.9302 0.816858 14.868C0.816858 14.8213 0.816858 14.7824 0.816858 14.7513C0.832418 14.7046 0.840197 14.6579 0.840197 14.6113C0.840197 14.5646 0.832418 14.5257 0.816858 14.4946C0.816858 14.4479 0.816858 14.4012 0.816858 14.3545C0.816858 14.2923 0.832418 14.2378 0.863536 14.1912C0.910214 14.1445 0.933552 14.09 0.933552 14.0278C0.871316 13.9811 0.840197 13.9267 0.840197 13.8644C0.840197 13.8177 0.847977 13.7711 0.863536 13.7244C0.894654 13.6622 0.910214 13.6155 0.910214 13.5844C0.910214 13.5377 0.894654 13.491 0.863536 13.4443C0.832418 13.3976 0.816858 13.351 0.816858 13.3043C0.816858 13.0398 0.879095 12.8453 1.00357 12.7208C1.1436 12.5808 1.28363 12.5108 1.42367 12.5108C1.67261 12.5108 1.87488 12.5341 2.03048 12.5808C2.20163 12.6119 2.34166 12.6975 2.45058 12.8375C2.57505 12.8686 2.65285 12.9775 2.68396 13.1643C2.71508 13.351 2.73064 13.5532 2.73064 13.7711L2.68396 14.2845C2.65285 14.4557 2.64507 14.619 2.66062 14.7746C2.69174 14.9302 2.72286 15.0547 2.75398 15.1481C2.69174 15.2103 2.66062 15.3036 2.66062 15.4281C2.66062 15.4748 2.6684 15.5137 2.68396 15.5448C2.71508 15.5759 2.73064 15.6071 2.73064 15.6382C2.73064 15.6848 2.69952 15.7315 2.63729 15.7782V16.3617C2.63729 16.4395 2.65285 16.5095 2.68396 16.5717C2.71508 16.634 2.73064 16.7429 2.73064 16.8985C2.73064 16.9607 2.71508 17.0152 2.68396 17.0618C2.6684 17.1085 2.66062 17.1474 2.66062 17.1785C2.66062 17.2097 2.69174 17.2485 2.75398 17.2952L3.24409 17.2719C3.38413 17.2719 3.45414 17.3108 3.45414 17.3886C3.51638 17.373 3.57084 17.3497 3.61752 17.3186C3.67975 17.2874 3.72643 17.2719 3.75755 17.2719C3.78867 17.2719 3.81201 17.2797 3.82757 17.2952L4.43437 17.3886C4.46549 17.373 4.51217 17.3497 4.57441 17.3186C4.6522 17.2874 4.71444 17.2719 4.76112 17.2719C4.79224 17.2719 4.83113 17.2952 4.87781 17.3419C4.92449 17.2797 4.96339 17.2485 4.99451 17.2485C5.02562 17.2485 5.05674 17.2641 5.08786 17.2952C5.11898 17.3263 5.1501 17.3419 5.18122 17.3419C5.21233 17.3419 5.25123 17.3186 5.29791 17.2719C5.36015 17.2408 5.40682 17.2252 5.43794 17.2252C5.50018 17.2563 5.57798 17.2797 5.67133 17.2952C5.76469 17.3263 5.85026 17.3497 5.92806 17.3652C6.02141 17.3808 6.09921 17.3886 6.16145 17.3886C6.22368 17.3886 6.24702 17.3886 6.23146 17.3886C6.26258 17.3886 6.2937 17.373 6.32482 17.3419C6.35594 17.3263 6.39483 17.3186 6.44151 17.3186C6.47263 17.3186 6.49597 17.3341 6.51153 17.3652C6.54265 17.3964 6.57376 17.4119 6.60488 17.4119C6.636 17.4119 6.6749 17.3964 6.72158 17.3652C6.76826 17.3341 6.81493 17.3186 6.86161 17.3186C6.89273 17.3186 6.92385 17.3341 6.95497 17.3652C6.97052 17.3186 7.00164 17.2952 7.04832 17.2952C7.095 17.2952 7.1339 17.303 7.16501 17.3186C7.21169 17.3497 7.25837 17.3652 7.30505 17.3652C7.3984 17.3652 7.49954 17.373 7.60845 17.3886C7.71737 17.4197 7.75626 17.4353 7.72515 17.4353C7.80294 17.4353 7.8963 17.4197 8.00521 17.3886C8.11413 17.373 8.25416 17.3652 8.42531 17.3652C8.47199 17.3652 8.56534 17.3575 8.70538 17.3419C8.86097 17.3419 8.95432 17.3419 8.98544 17.3419C9.01656 17.3419 9.06324 17.3497 9.12548 17.3652C9.18771 17.3964 9.25773 17.4119 9.33552 17.4119C9.46 17.4119 9.56113 17.3886 9.63893 17.3419C9.71672 17.2952 9.81786 17.2719 9.94233 17.2719C9.98901 17.2719 10.0357 17.2797 10.0824 17.2952C10.1446 17.3108 10.1991 17.3186 10.2457 17.3186C10.2924 17.3186 10.3313 17.3108 10.3624 17.2952C10.3935 17.2952 10.4713 17.3108 10.5958 17.3419C10.7203 17.3886 10.8914 17.4119 11.1093 17.4119C11.1715 17.4119 11.2182 17.3886 11.2493 17.3419C11.296 17.3108 11.3427 17.2952 11.3893 17.2952C11.4205 17.2952 11.4594 17.3108 11.506 17.3419C11.5527 17.373 11.5916 17.3886 11.6227 17.3886C11.6538 17.3886 11.6927 17.373 11.7394 17.3419C11.7861 17.3108 11.825 17.2952 11.8561 17.2952C11.9028 17.3263 11.9495 17.3419 11.9961 17.3419C12.0584 17.3575 12.1051 17.3808 12.1362 17.4119C12.2451 17.3186 12.3773 17.2719 12.5329 17.2719C12.6885 17.2874 12.8363 17.3108 12.9764 17.3419C13.2253 17.3575 13.4587 17.3497 13.6765 17.3186C13.8944 17.303 14.0422 17.2952 14.12 17.2952C14.2133 17.3108 14.2911 17.3108 14.3534 17.2952C14.4312 17.2952 14.509 17.3108 14.5868 17.3419C14.6179 17.3108 14.649 17.2952 14.6801 17.2952C14.7268 17.3108 14.7657 17.3186 14.7968 17.3186C15.0146 17.3186 15.1858 17.4041 15.3103 17.5753C15.4347 17.762 15.497 17.9643 15.497 18.1821C15.497 18.3999 15.427 18.6022 15.2869 18.7889C15.1624 18.9756 14.968 19.0612 14.7035 19.0456ZM36.29 6.16261C36.29 6.44268 36.1811 6.65273 35.9633 6.79276C35.761 6.91723 35.5354 6.97947 35.2865 6.97947C35.0531 6.97947 34.8275 6.91723 34.6096 6.79276C34.4074 6.66829 34.3062 6.49714 34.3062 6.27931C34.3062 6.23263 34.314 6.19373 34.3296 6.16261C34.3451 6.11594 34.3529 6.07704 34.3529 6.04592V5.90589C34.3529 5.84365 34.3529 5.78919 34.3529 5.74251C34.3685 5.69584 34.3763 5.64138 34.3763 5.57914C34.3763 5.45467 34.3607 5.37687 34.3296 5.34576C34.2985 5.31464 34.2829 5.26018 34.2829 5.18238C34.2829 5.13571 34.2907 5.09681 34.3062 5.06569C34.3218 5.03457 34.3296 4.99567 34.3296 4.949C34.3296 4.93344 34.3218 4.90232 34.3062 4.85564C34.2907 4.7934 34.2829 4.74673 34.2829 4.71561L34.3062 4.29551C34.2751 4.20215 34.2596 4.12436 34.2596 4.06212C34.2596 3.93765 34.2829 3.83651 34.3296 3.75872C34.3763 3.66536 34.3996 3.54867 34.3996 3.40863C34.3996 3.31528 34.3685 3.23748 34.3062 3.17525C34.2596 3.11301 34.2362 3.05077 34.2362 2.98853C34.2362 2.94186 34.244 2.8874 34.2596 2.82516C34.2907 2.74737 34.3062 2.66179 34.3062 2.56844C34.3062 2.4284 34.1351 2.37395 33.7928 2.40506C33.6683 2.42062 33.5594 2.42062 33.466 2.40506C33.3882 2.38951 33.3104 2.38173 33.2327 2.38173C33.2015 2.38173 33.1315 2.38951 33.0226 2.40506C32.9137 2.42062 32.8437 2.4284 32.8126 2.4284C32.6725 2.44396 32.5325 2.44396 32.3925 2.4284C32.268 2.41284 32.1824 2.40506 32.1357 2.40506C32.0735 2.40506 31.9801 2.41284 31.8557 2.4284C31.7312 2.4284 31.5912 2.4284 31.4356 2.4284C31.2955 2.4284 31.1477 2.43618 30.9921 2.45174C30.8365 2.45174 30.7043 2.45174 30.5954 2.45174C30.502 2.45174 30.4087 2.45174 30.3153 2.45174C30.2219 2.43618 30.1364 2.4284 30.0586 2.4284C29.9963 2.4284 29.9341 2.43618 29.8719 2.45174C29.8252 2.4673 29.7629 2.47508 29.6852 2.47508C29.6229 2.47508 29.5607 2.4673 29.4984 2.45174C29.4518 2.42062 29.4051 2.40506 29.3584 2.40506C29.2962 2.40506 29.2417 2.45174 29.195 2.5451C29.055 2.48286 28.8916 2.45174 28.7049 2.45174C28.6427 2.45174 28.5804 2.45952 28.5182 2.47508C28.4715 2.47508 28.4249 2.47508 28.3782 2.47508C28.2848 2.47508 28.1992 2.4673 28.1214 2.45174C28.0437 2.42062 27.9659 2.40506 27.8881 2.40506C27.8103 2.40506 27.7403 2.41284 27.678 2.4284C27.6313 2.44396 27.5691 2.45174 27.4913 2.45174C27.4446 2.45174 27.3902 2.44396 27.3279 2.4284C27.2813 2.39729 27.2268 2.38173 27.1646 2.38173C27.0868 2.38173 27.0167 2.39729 26.9545 2.4284C26.8923 2.45952 26.8456 2.47508 26.8145 2.47508C26.7834 2.47508 26.7445 2.45952 26.6978 2.4284C26.6511 2.39729 26.5889 2.38173 26.5111 2.38173C26.4333 2.38173 26.3633 2.40507 26.301 2.45174C26.2543 2.49842 26.1921 2.52176 26.1143 2.52176C25.9743 2.52176 25.8342 2.51398 25.6942 2.49842C25.5542 2.48286 25.4064 2.47508 25.2508 2.47508C25.1263 2.47508 24.9863 2.48286 24.8307 2.49842C24.6751 2.49842 24.5195 2.5062 24.3639 2.52176C24.2083 2.52176 24.0605 2.52954 23.9205 2.5451C23.7804 2.5451 23.6715 2.5451 23.5937 2.5451C23.2359 2.57622 22.9714 2.49064 22.8002 2.28837C22.629 2.0861 22.5435 1.86049 22.5435 1.61155C22.5435 1.37816 22.6213 1.16811 22.7769 0.981397C22.9325 0.779126 23.1658 0.677992 23.477 0.677992H23.7338C23.7649 0.677992 23.8116 0.677992 23.8738 0.677992C23.936 0.677992 23.9983 0.670212 24.0605 0.654654C24.1072 0.670212 24.1616 0.670212 24.2239 0.654654C24.2861 0.639095 24.3406 0.631315 24.3872 0.631315C24.465 0.631315 24.5662 0.639095 24.6906 0.654654C24.8307 0.670212 24.9396 0.677992 25.0174 0.677992H25.6709C25.8109 0.677992 25.912 0.677992 25.9743 0.677992C26.0521 0.677992 26.1065 0.677992 26.1377 0.677992C26.1843 0.662434 26.2232 0.654654 26.2543 0.654654C26.2855 0.654654 26.3321 0.654654 26.3944 0.654654C26.4255 0.654654 26.4566 0.670212 26.4877 0.70133C26.5344 0.71689 26.5733 0.724669 26.6044 0.724669C26.6667 0.724669 26.7289 0.70911 26.7911 0.677992C26.8534 0.631314 26.9156 0.607975 26.9778 0.607975C27.009 0.607975 27.0323 0.615755 27.0479 0.631315C27.079 0.631315 27.1101 0.631315 27.1412 0.631315C27.1723 0.631315 27.1957 0.631315 27.2112 0.631315C27.2268 0.615755 27.2501 0.607975 27.2813 0.607975H27.5613C27.5924 0.607975 27.6236 0.615755 27.6547 0.631315C27.6858 0.631315 27.7169 0.631315 27.748 0.631315C27.7947 0.631315 27.8414 0.654654 27.8881 0.70133C27.9347 0.73245 27.997 0.748009 28.0748 0.748009C28.1059 0.748009 28.1448 0.740228 28.1915 0.724669C28.2381 0.693551 28.2693 0.677992 28.2848 0.677992C28.3004 0.677992 28.3315 0.685771 28.3782 0.70133C28.4404 0.70133 28.4871 0.70133 28.5182 0.70133C28.6894 0.670212 28.8294 0.654654 28.9383 0.654654C29.0628 0.654654 29.2651 0.654654 29.5451 0.654654C29.5762 0.654654 29.6229 0.654654 29.6852 0.654654C29.7474 0.639095 29.8174 0.631315 29.8952 0.631315C30.0041 0.631315 30.0741 0.639095 30.1052 0.654654C30.1364 0.670212 30.183 0.677992 30.2453 0.677992C30.3853 0.677992 30.502 0.677992 30.5954 0.677992C30.6887 0.662434 30.821 0.654654 30.9921 0.654654C31.101 0.654654 31.21 0.646874 31.3189 0.631315C31.4433 0.615755 31.5367 0.607975 31.5989 0.607975C31.7234 0.607975 31.8323 0.631314 31.9257 0.677992C32.0346 0.70911 32.1435 0.724669 32.2524 0.724669C32.408 0.693551 32.5636 0.677992 32.7192 0.677992C32.8748 0.662434 33.0148 0.646874 33.1393 0.631315C33.2949 0.615755 33.4349 0.607975 33.5594 0.607975C33.6372 0.607975 33.7228 0.615755 33.8161 0.631315C33.9095 0.646874 33.9951 0.654654 34.0728 0.654654C34.1351 0.639095 34.2207 0.615756 34.3296 0.584636C34.454 0.53796 34.5552 0.514621 34.633 0.514621C34.6952 0.514621 34.7419 0.53796 34.773 0.584636C34.8197 0.631314 34.8819 0.654654 34.9597 0.654654C34.9908 0.654654 35.0142 0.646874 35.0297 0.631315C35.0453 0.615755 35.0686 0.607975 35.0998 0.607975C35.1309 0.607975 35.162 0.631314 35.1931 0.677992C35.2242 0.70911 35.2553 0.724669 35.2865 0.724669C35.3176 0.724669 35.3487 0.70911 35.3798 0.677992C35.4265 0.631314 35.4654 0.607975 35.4965 0.607975C35.7143 0.607975 35.8855 0.646873 36.01 0.724669C36.1344 0.786906 36.2122 0.926939 36.2434 1.14477C36.2434 1.17589 36.2511 1.2459 36.2667 1.35482C36.2823 1.44817 36.29 1.54931 36.29 1.65822C36.3056 1.76714 36.3134 1.86827 36.3134 1.96163C36.3289 2.05498 36.3367 2.10944 36.3367 2.125C36.3367 2.17168 36.3289 2.21835 36.3134 2.26503C36.2978 2.29615 36.29 2.33505 36.29 2.38173C36.29 2.44396 36.2978 2.5062 36.3134 2.56844C36.3445 2.63067 36.36 2.69291 36.36 2.75515C36.36 2.9263 36.3289 3.06633 36.2667 3.17525C36.22 3.28416 36.1967 3.36196 36.1967 3.40863C36.1967 3.48643 36.2122 3.55645 36.2434 3.61868C36.29 3.66536 36.3134 3.70426 36.3134 3.73538C36.3134 3.7665 36.3056 3.81317 36.29 3.87541C36.29 3.93765 36.29 4.01544 36.29 4.1088C36.29 4.13992 36.2745 4.19437 36.2434 4.27217C36.2122 4.33441 36.1967 4.38886 36.1967 4.43554C36.1967 4.41998 36.2122 4.49 36.2434 4.64559C36.2745 4.80118 36.29 5.00345 36.29 5.2524V6.16261ZM24.1772 9.54674C23.9905 9.57786 23.8582 9.6012 23.7804 9.61676C23.7182 9.61676 23.6637 9.61676 23.6171 9.61676C23.5393 9.61676 23.4692 9.60898 23.407 9.59342C23.3448 9.57786 23.2748 9.57008 23.197 9.57008C23.0102 9.57008 22.8158 9.57786 22.6135 9.59342C22.4112 9.60898 22.2012 9.61676 21.9833 9.61676C21.7188 9.61676 21.5166 9.53896 21.3765 9.38337C21.2365 9.22778 21.1509 9.04107 21.1198 8.82324C21.0887 8.46538 21.2132 8.20087 21.4932 8.02972C21.7733 7.85857 22.0689 7.77299 22.3801 7.77299C22.4423 7.77299 22.4968 7.78077 22.5435 7.79633C22.6057 7.81189 22.6679 7.81967 22.7302 7.81967C22.7613 7.81967 22.8002 7.81189 22.8469 7.79633C22.8936 7.78077 22.9402 7.77299 22.9869 7.77299C23.0336 7.77299 23.0647 7.78855 23.0803 7.81967C23.1114 7.81967 23.1347 7.81967 23.1503 7.81967C23.1658 7.80411 23.1814 7.79633 23.197 7.79633C23.2281 7.78077 23.267 7.76521 23.3137 7.74965C23.3603 7.71853 23.4148 7.70297 23.477 7.70297C23.5081 7.70297 23.547 7.71075 23.5937 7.72631C23.6404 7.72631 23.6871 7.72631 23.7338 7.72631C23.7649 7.72631 23.796 7.71853 23.8271 7.70297C23.8582 7.67186 23.8893 7.6563 23.9205 7.6563C23.9516 7.6563 24.006 7.67964 24.0838 7.72631C24.1616 7.77299 24.2316 7.80411 24.2939 7.81967H24.4106C24.4106 7.81967 24.4261 7.81189 24.4573 7.79633V7.81967H24.644C24.7996 7.81967 24.9474 7.81967 25.0874 7.81967C25.243 7.80411 25.3986 7.79633 25.5542 7.79633C25.8031 7.79633 26.0443 7.80411 26.2777 7.81967C26.5111 7.83523 26.7367 7.84301 26.9545 7.84301C27.1568 7.84301 27.3357 7.85079 27.4913 7.86635C27.6469 7.86635 27.7869 7.85079 27.9114 7.81967C28.0048 7.83523 28.1137 7.85079 28.2381 7.86635C28.3626 7.86635 28.456 7.88191 28.5182 7.91302C28.6427 7.9597 28.7672 7.96748 28.8916 7.93636C29.0317 7.88969 29.1639 7.85857 29.2884 7.84301H29.6385C29.654 7.84301 29.6618 7.84301 29.6618 7.84301C29.6774 7.82745 29.6929 7.81967 29.7085 7.81967C29.724 7.81967 29.7318 7.82745 29.7318 7.84301C29.7474 7.84301 29.7707 7.84301 29.8018 7.84301C29.8796 7.84301 29.9574 7.85079 30.0352 7.86635C30.113 7.86635 30.1908 7.86635 30.2686 7.86635C30.3153 7.85079 30.362 7.83523 30.4087 7.81967C30.4553 7.80411 30.502 7.79633 30.5487 7.79633C30.5798 7.79633 30.6187 7.81189 30.6654 7.84301C30.7121 7.85857 30.7587 7.88191 30.8054 7.91302H31.2022C31.2333 7.89747 31.2644 7.88191 31.2955 7.86635C31.3266 7.85079 31.3578 7.84301 31.3889 7.84301C31.4356 7.84301 31.4978 7.86635 31.5756 7.91302H31.739C31.8634 7.91302 32.0113 7.89746 32.1824 7.86635C32.3536 7.81967 32.5169 7.79633 32.6725 7.79633C32.8437 7.79633 33.007 7.81189 33.1626 7.84301C33.3338 7.87413 33.5049 7.88969 33.6761 7.88969C33.8161 7.88969 33.9406 7.88191 34.0495 7.86635C34.1584 7.85079 34.2751 7.84301 34.3996 7.84301C34.5396 7.84301 34.6797 7.83523 34.8197 7.81967C34.9597 7.80411 35.0998 7.79633 35.2398 7.79633C35.3643 7.79633 35.481 7.80411 35.5899 7.81967C35.7143 7.81967 35.8233 7.81967 35.9166 7.81967C35.9944 7.81967 36.15 7.81189 36.3834 7.79633C36.6168 7.78077 36.7801 7.77299 36.8735 7.77299C37.3403 7.77299 37.6826 7.88191 37.9004 8.09973C38.1182 8.31756 38.2194 8.55095 38.2038 8.7999C38.1883 9.01773 38.0871 9.20444 37.9004 9.36003C37.7293 9.51562 37.4725 9.59342 37.1302 9.59342C37.0213 9.59342 36.9124 9.59342 36.8035 9.59342C36.7101 9.57786 36.6323 9.57786 36.5701 9.59342L36.36 9.57008C36.2978 9.58564 36.2434 9.6012 36.1967 9.61676C36.1656 9.61676 36.1111 9.61676 36.0333 9.61676C35.9711 9.58564 35.8622 9.57008 35.7066 9.57008C35.5354 9.57008 35.3954 9.58564 35.2865 9.61676C35.1931 9.63232 35.0842 9.6401 34.9597 9.6401L34.563 9.54674C34.4385 9.54674 34.3062 9.54674 34.1662 9.54674C34.0417 9.53118 33.9173 9.5234 33.7928 9.5234C33.6683 9.5234 33.5438 9.53896 33.4194 9.57008C33.3104 9.58564 33.1938 9.59342 33.0693 9.59342C32.9448 9.59342 32.8126 9.58564 32.6725 9.57008C32.548 9.53896 32.4158 9.5234 32.2758 9.5234C32.1202 9.5234 31.9568 9.5234 31.7856 9.5234C31.6301 9.5234 31.49 9.53896 31.3655 9.57008C31.101 9.57008 30.8365 9.57786 30.572 9.59342C30.3075 9.59342 30.0352 9.57786 29.7552 9.54674C29.6463 9.57786 29.4984 9.60898 29.3117 9.6401C29.1406 9.65566 29.0317 9.66343 28.985 9.66343C28.9072 9.66343 28.8372 9.66343 28.7749 9.66343C28.7127 9.64788 28.6427 9.63232 28.5649 9.61676C28.5027 9.64788 28.4482 9.66343 28.4015 9.66343C28.277 9.66343 28.1526 9.65566 28.0281 9.6401C27.9192 9.62454 27.8025 9.61676 27.678 9.61676C27.6002 9.61676 27.5224 9.63232 27.4446 9.66343C27.3824 9.67899 27.3124 9.68677 27.2346 9.68677C27.1568 9.68677 27.0712 9.67899 26.9778 9.66343C26.9001 9.63232 26.8223 9.61676 26.7445 9.61676C26.7133 9.61676 26.6822 9.62454 26.6511 9.6401C26.62 9.6401 26.5889 9.6401 26.5578 9.6401C26.371 9.6401 26.2466 9.62454 26.1843 9.59342C26.0132 9.57786 25.8498 9.57008 25.6942 9.57008C25.5386 9.55452 25.3752 9.54674 25.2041 9.54674H24.1772ZM24.1305 14.2612C24.2083 14.2612 24.2705 14.2767 24.3172 14.3079C24.3795 14.3234 24.4339 14.3312 24.4806 14.3312C24.6829 14.3312 24.854 14.3312 24.9941 14.3312C25.1341 14.3156 25.2975 14.3079 25.4842 14.3079C25.5775 14.3079 25.6475 14.3079 25.6942 14.3079C25.7409 14.2923 25.8031 14.2845 25.8809 14.2845C25.9743 14.2845 26.1143 14.2767 26.301 14.2612C26.5033 14.2456 26.6667 14.2534 26.7911 14.2845C27.2112 14.2845 27.538 14.3001 27.7714 14.3312C28.0203 14.3623 28.1681 14.3779 28.2148 14.3779C28.277 14.3779 28.3471 14.3623 28.4249 14.3312C28.5182 14.3001 28.6116 14.269 28.7049 14.2378C28.7983 14.2378 28.8839 14.2534 28.9616 14.2845C29.055 14.3001 29.1639 14.3079 29.2884 14.3079H29.6852C29.7163 14.3079 29.7474 14.3001 29.7785 14.2845C29.8252 14.269 29.8719 14.2612 29.9185 14.2612C30.0897 14.2612 30.2375 14.2767 30.362 14.3079C30.4864 14.339 30.6343 14.3545 30.8054 14.3545C30.8988 14.3545 31.0466 14.3312 31.2489 14.2845C31.4511 14.2223 31.6145 14.1912 31.739 14.1912C31.8168 14.1912 31.9101 14.2067 32.019 14.2378C32.1279 14.2534 32.2291 14.2612 32.3224 14.2612C32.4469 14.2612 32.5714 14.2612 32.6959 14.2612C32.8203 14.2456 32.9448 14.2378 33.0693 14.2378C33.1004 14.2378 33.1315 14.2456 33.1626 14.2612C33.1938 14.2612 33.2249 14.2612 33.256 14.2612C33.2871 14.2612 33.326 14.2534 33.3727 14.2378C33.4349 14.2223 33.4816 14.2145 33.5127 14.2145C33.5438 14.2145 33.5827 14.2223 33.6294 14.2378C33.6761 14.2378 33.715 14.2378 33.7461 14.2378C33.7928 14.2378 33.8472 14.2456 33.9095 14.2612C33.9717 14.2767 34.0262 14.2845 34.0728 14.2845C34.1506 14.2845 34.2284 14.2845 34.3062 14.2845C34.3996 14.269 34.4852 14.2612 34.563 14.2612C34.5941 14.2612 34.6174 14.2456 34.633 14.2145C34.6641 14.1834 34.6797 14.1523 34.6797 14.1211C34.6797 14.09 34.6719 14.0511 34.6563 14.0045C34.6563 13.9422 34.6563 13.88 34.6563 13.8177V12.9075C34.6563 12.7986 34.6096 12.7597 34.5163 12.7908C34.4229 12.822 34.3529 12.8375 34.3062 12.8375C34.2596 12.8375 34.2129 12.8297 34.1662 12.8142C34.1195 12.7986 34.0651 12.7908 34.0028 12.7908C33.9562 12.7908 33.9095 12.8142 33.8628 12.8609C33.8317 12.892 33.7928 12.9075 33.7461 12.9075C33.5905 12.9075 33.4427 12.8842 33.3027 12.8375C33.1782 12.7908 33.0304 12.7675 32.8592 12.7675C32.7348 12.7675 32.6492 12.7908 32.6025 12.8375C32.5558 12.8842 32.4469 12.9075 32.2758 12.9075C32.2446 12.892 32.2135 12.8686 32.1824 12.8375C32.1513 12.7908 32.1202 12.7675 32.089 12.7675C32.0579 12.7675 32.0268 12.7831 31.9957 12.8142C31.9646 12.8453 31.9412 12.8609 31.9257 12.8609C31.879 12.8609 31.8401 12.8453 31.809 12.8142C31.7934 12.7831 31.7312 12.7675 31.6223 12.7675C31.5445 12.7675 31.4589 12.7908 31.3655 12.8375C31.2877 12.8686 31.2022 12.8842 31.1088 12.8842C31.0466 12.8842 30.9921 12.8609 30.9454 12.8142C30.8988 12.7675 30.8365 12.7442 30.7587 12.7442C30.6343 12.7442 30.4865 12.7675 30.3153 12.8142C30.1441 12.8609 29.973 12.8842 29.8018 12.8842C29.5529 12.8842 29.2962 12.8842 29.0317 12.8842C28.7672 12.8686 28.526 12.8609 28.3082 12.8609C28.2148 12.8609 28.137 12.892 28.0748 12.9542C28.0125 12.892 27.9347 12.8609 27.8414 12.8609C27.8103 12.8609 27.7714 12.8686 27.7247 12.8842C27.6936 12.8842 27.6625 12.8842 27.6313 12.8842C27.5847 12.8842 27.538 12.8842 27.4913 12.8842C27.4446 12.8686 27.3979 12.8609 27.3513 12.8609C27.289 12.8609 27.2346 12.8842 27.1879 12.9309C27.1412 12.9775 27.1023 13.0009 27.0712 13.0009C27.0401 13.0009 26.9934 12.9853 26.9312 12.9542C26.8689 12.9075 26.8145 12.8842 26.7678 12.8842C26.7056 12.8998 26.6433 12.9386 26.5811 13.0009C26.5189 13.0476 26.48 13.0631 26.4644 13.0476C26.4022 12.9853 26.3244 12.9542 26.231 12.9542C26.1999 12.9542 26.1765 12.962 26.161 12.9775C26.1454 12.9775 26.1299 12.9775 26.1143 12.9775C26.0676 12.9775 26.0132 12.962 25.9509 12.9309C25.8887 12.9309 25.842 12.962 25.8109 13.0242C25.7953 13.0865 25.7331 13.1176 25.6242 13.1176C25.453 13.1176 25.2897 13.0865 25.1341 13.0242C24.9785 12.962 24.7996 12.9309 24.5973 12.9309C24.4573 12.9309 24.325 12.9542 24.2005 13.0009C24.0916 13.0476 24.006 13.0709 23.9438 13.0709C23.8971 13.0709 23.866 13.0709 23.8504 13.0709C23.8349 13.0709 23.8115 13.0709 23.7804 13.0709C23.7649 13.0553 23.7338 13.0476 23.6871 13.0476C23.656 13.032 23.5859 13.0242 23.477 13.0242C23.1347 13.0242 22.8858 12.9309 22.7302 12.7442C22.5902 12.5419 22.5279 12.3241 22.5435 12.0907C22.559 11.8573 22.6524 11.6472 22.8235 11.4605C22.9947 11.2583 23.2359 11.1571 23.547 11.1571C23.7493 11.1571 23.9516 11.1649 24.1539 11.1805C24.3561 11.1805 24.5195 11.1805 24.644 11.1805C24.7062 11.1805 24.7607 11.1727 24.8073 11.1571C24.8696 11.1416 24.9318 11.1338 24.9941 11.1338C25.0718 11.1338 25.1419 11.1571 25.2041 11.2038C25.2663 11.2349 25.3286 11.2505 25.3908 11.2505C25.5464 11.2505 25.6942 11.2427 25.8342 11.2271C25.9898 11.2116 26.0832 11.2038 26.1143 11.2038C26.2077 11.2038 26.2932 11.2038 26.371 11.2038C26.4644 11.1882 26.5733 11.1805 26.6978 11.1805C26.8845 11.1805 27.0479 11.196 27.1879 11.2271C27.3279 11.2583 27.4835 11.2738 27.6547 11.2738C27.6858 11.2738 27.748 11.2738 27.8414 11.2738C27.9503 11.2583 28.0592 11.2427 28.1681 11.2271C28.277 11.2116 28.3782 11.2038 28.4715 11.2038C28.5649 11.1882 28.6271 11.1805 28.6582 11.1805C28.7983 11.1805 28.9227 11.2349 29.0317 11.3438C29.0628 11.2972 29.125 11.266 29.2184 11.2505C29.3273 11.2194 29.4362 11.1882 29.5451 11.1571C29.6696 11.1416 29.7941 11.126 29.9185 11.1104C30.2142 11.1104 30.4942 11.1182 30.7587 11.1338C31.0232 11.1338 31.3422 11.1493 31.7156 11.1805C31.9023 11.1493 32.089 11.1416 32.2758 11.1571C32.478 11.1727 32.6103 11.1805 32.6725 11.1805C32.7503 11.1805 32.8281 11.1649 32.9059 11.1338C32.9993 11.0871 33.0848 11.0638 33.1626 11.0638C33.2715 11.0638 33.3727 11.0871 33.466 11.1338C33.575 11.1649 33.6916 11.1805 33.8161 11.1805H34.913C34.9908 11.1805 35.0609 11.1649 35.1231 11.1338C35.2009 11.1027 35.2865 11.0871 35.3798 11.0871C35.4109 11.1027 35.4654 11.1182 35.5432 11.1338C35.621 11.1338 35.6832 11.1338 35.7299 11.1338C36.01 11.1649 36.2045 11.2583 36.3134 11.4138C36.4378 11.5539 36.5156 11.7484 36.5468 11.9973C36.5623 12.1373 36.5701 12.2852 36.5701 12.4408C36.5857 12.5808 36.5934 12.6664 36.5934 12.6975C36.5779 12.7442 36.5623 12.7986 36.5468 12.8609C36.5468 12.9075 36.5468 12.9931 36.5468 13.1176C36.5468 13.1643 36.539 13.2265 36.5234 13.3043C36.5234 13.3665 36.5234 13.4365 36.5234 13.5143C36.5234 13.5921 36.5312 13.6777 36.5468 13.7711C36.5779 13.8644 36.5934 13.9578 36.5934 14.0511C36.5934 14.2223 36.5857 14.3857 36.5701 14.5412C36.5545 14.6968 36.5468 14.8369 36.5468 14.9613C36.5468 15.0236 36.539 15.078 36.5234 15.1247C36.5234 15.1714 36.5234 15.2336 36.5234 15.3114C36.5234 15.4048 36.4923 15.5059 36.4301 15.6148C36.3834 15.7237 36.2745 15.7782 36.1033 15.7782C36.0566 15.7782 36.0022 15.786 35.94 15.8015C35.8933 15.8015 35.8388 15.8015 35.7766 15.8015C35.7455 15.8015 35.7066 15.8015 35.6599 15.8015C35.6132 15.786 35.5743 15.7782 35.5432 15.7782C35.4654 15.7782 35.3954 15.7938 35.3331 15.8249C35.2709 15.856 35.2009 15.8716 35.1231 15.8716C35.0453 15.8716 34.9519 15.8638 34.843 15.8482C34.7497 15.8327 34.6563 15.8249 34.563 15.8249C34.4852 15.8249 34.4229 15.8327 34.3763 15.8482C34.3296 15.8638 34.2673 15.8716 34.1895 15.8716C34.1429 15.8716 34.104 15.8638 34.0728 15.8482C34.0417 15.8327 34.0028 15.8249 33.9562 15.8249C33.6916 15.8249 33.4972 15.8327 33.3727 15.8482C33.2482 15.8482 33.1237 15.8482 32.9993 15.8482C32.9681 15.8482 32.937 15.8404 32.9059 15.8249C32.8748 15.7938 32.8514 15.7782 32.8359 15.7782C32.8048 15.7782 32.7814 15.786 32.7659 15.8015C32.7503 15.8171 32.727 15.8249 32.6959 15.8249C32.6181 15.8249 32.548 15.8249 32.4858 15.8249C32.4391 15.8093 32.3847 15.8015 32.3224 15.8015H31.0388C30.961 15.8015 30.891 15.8171 30.8288 15.8482C30.7665 15.8793 30.6887 15.8949 30.5954 15.8949C30.5176 15.8949 30.4242 15.8793 30.3153 15.8482C30.2219 15.8171 30.1364 15.8015 30.0586 15.8015C29.9808 15.8015 29.9185 15.8171 29.8719 15.8482C29.8252 15.8793 29.7785 15.8949 29.7318 15.8949C29.7007 15.8949 29.6618 15.8871 29.6151 15.8716C29.5685 15.856 29.5296 15.8482 29.4984 15.8482C29.4362 15.8482 29.374 15.856 29.3117 15.8716C29.2651 15.8716 29.2106 15.8716 29.1484 15.8716C29.0861 15.8716 29.0394 15.8638 29.0083 15.8482C28.9772 15.8171 28.9461 15.8015 28.915 15.8015C28.8839 15.8015 28.845 15.8171 28.7983 15.8482C28.7672 15.8638 28.7205 15.8716 28.6582 15.8716C28.5804 15.8716 28.5104 15.8638 28.4482 15.8482C28.4015 15.8171 28.3393 15.8015 28.2615 15.8015C28.1214 15.8015 27.9814 15.8171 27.8414 15.8482C27.7014 15.8793 27.5535 15.8949 27.3979 15.8949C27.3513 15.8949 27.2968 15.8793 27.2346 15.8482C27.1879 15.8015 27.1334 15.7782 27.0712 15.7782C27.0245 15.7782 26.9856 15.8015 26.9545 15.8482C26.9234 15.8793 26.8923 15.8949 26.8612 15.8949C26.8145 15.8949 26.7678 15.8871 26.7211 15.8716C26.6744 15.856 26.6278 15.8482 26.5811 15.8482C26.55 15.8482 26.5266 15.856 26.5111 15.8716C26.5111 15.8716 26.4955 15.8716 26.4644 15.8716C26.4177 15.8716 26.371 15.8716 26.3244 15.8716C26.2932 15.856 26.2543 15.8482 26.2077 15.8482C26.1454 15.8482 26.0832 15.856 26.021 15.8716C25.9587 15.8871 25.9043 15.8949 25.8576 15.8949C25.8109 15.8949 25.7642 15.8871 25.7176 15.8716C25.6864 15.8404 25.6398 15.8249 25.5775 15.8249C25.5464 15.8249 25.5075 15.8327 25.4608 15.8482C25.4297 15.8638 25.3986 15.8716 25.3675 15.8716C25.2897 15.8716 25.2274 15.8638 25.1808 15.8482C25.1496 15.8327 25.0485 15.8249 24.8774 15.8249C24.7684 15.8249 24.6595 15.8327 24.5506 15.8482C24.4417 15.8482 24.3639 15.8482 24.3172 15.8482C24.3017 15.9105 24.2939 16.0194 24.2939 16.175C24.2939 16.315 24.2939 16.4939 24.2939 16.7118C24.2939 16.7429 24.3017 16.774 24.3172 16.8051C24.3328 16.8518 24.3406 16.8907 24.3406 16.9218C24.3406 16.9529 24.3328 16.9918 24.3172 17.0385C24.3172 17.1007 24.325 17.1552 24.3406 17.2019C24.3872 17.2174 24.4417 17.2252 24.5039 17.2252C24.5662 17.2252 24.6362 17.2252 24.714 17.2252C24.8073 17.2252 24.8929 17.2252 24.9707 17.2252C25.0641 17.2408 25.1652 17.2485 25.2741 17.2485H25.9509C26.0599 17.2485 26.1532 17.2563 26.231 17.2719C26.3244 17.2874 26.4177 17.303 26.5111 17.3186C26.5889 17.3186 26.6589 17.303 26.7211 17.2719C26.7989 17.2563 26.8767 17.2485 26.9545 17.2485C27.0634 17.2485 27.1646 17.2563 27.2579 17.2719C27.3513 17.303 27.4446 17.3186 27.538 17.3186C27.6313 17.3186 27.7014 17.3108 27.748 17.2952C27.7791 17.2952 27.8258 17.303 27.8881 17.3186C27.9659 17.3341 28.0359 17.3419 28.0981 17.3419C28.1292 17.3419 28.1603 17.3341 28.1915 17.3186C28.2226 17.303 28.2615 17.2952 28.3082 17.2952C28.3393 17.2952 28.3704 17.2952 28.4015 17.2952C28.4326 17.3108 28.4638 17.3186 28.4949 17.3186C28.5727 17.303 28.6193 17.2952 28.6349 17.2952C28.6505 17.3108 28.666 17.3186 28.6816 17.3186C28.8527 17.3186 29.0161 17.3108 29.1717 17.2952C29.3273 17.2952 29.4829 17.2952 29.6385 17.2952C29.7007 17.2952 29.7629 17.2874 29.8252 17.2719C29.8874 17.2719 29.9574 17.2719 30.0352 17.2719H30.9454C30.961 17.2719 30.9843 17.2719 31.0155 17.2719C31.0466 17.2874 31.0699 17.2952 31.0855 17.2952C31.1477 17.2485 31.2333 17.2252 31.3422 17.2252C31.3733 17.2252 31.4122 17.233 31.4589 17.2485C31.5056 17.2797 31.5445 17.2952 31.5756 17.2952C31.6067 17.2952 31.6378 17.2874 31.6689 17.2719C31.7001 17.2563 31.739 17.2485 31.7856 17.2485C31.8479 17.2485 31.9101 17.2485 31.9724 17.2485C32.0346 17.2641 32.0968 17.2719 32.1591 17.2719C32.3302 17.2719 32.5014 17.2641 32.6725 17.2485C32.8592 17.233 33.0382 17.2252 33.2093 17.2252C33.2871 17.2252 33.3727 17.233 33.466 17.2485C33.5594 17.2797 33.645 17.2952 33.7228 17.2952C33.785 17.2952 33.8472 17.2797 33.9095 17.2485C33.9717 17.2174 34.0262 17.2019 34.0728 17.2019C34.1506 17.2019 34.2207 17.2174 34.2829 17.2485C34.3607 17.2797 34.4385 17.2952 34.5163 17.2952H35.5899C35.5743 17.2952 35.621 17.2874 35.7299 17.2719C35.8388 17.2719 35.9477 17.2719 36.0566 17.2719C36.3212 17.2719 36.5312 17.3497 36.6868 17.5053C36.8424 17.6609 36.9357 17.8398 36.9669 18.0421C36.998 18.2599 36.9357 18.4544 36.7802 18.6255C36.6246 18.8122 36.3756 18.9056 36.0333 18.9056C35.9088 18.9056 35.7766 18.8978 35.6365 18.8823C35.4965 18.8667 35.3876 18.8434 35.3098 18.8122C35.232 18.8434 35.1231 18.8667 34.9831 18.8823C34.843 18.8978 34.7419 18.9056 34.6797 18.9056C34.4618 18.9056 34.2362 18.8978 34.0028 18.8823C33.785 18.8823 33.5827 18.8823 33.396 18.8823C33.3182 18.8823 33.256 18.8823 33.2093 18.8823C33.1626 18.8978 33.1082 18.9056 33.0459 18.9056C32.9993 18.9056 32.9292 18.89 32.8359 18.8589C32.7425 18.8434 32.6647 18.8356 32.6025 18.8356C32.5714 18.8356 32.5325 18.8434 32.4858 18.8589C32.4547 18.89 32.4158 18.9056 32.3691 18.9056C32.2913 18.9056 32.2213 18.8978 32.1591 18.8823C32.0968 18.8823 32.0424 18.8823 31.9957 18.8823C31.9179 18.8823 31.8479 18.8823 31.7856 18.8823C31.7234 18.8978 31.6534 18.9056 31.5756 18.9056C31.5134 18.9056 31.3811 18.8978 31.1788 18.8823C30.9766 18.8823 30.8365 18.8823 30.7587 18.8823C30.5565 18.8823 30.4009 18.8823 30.292 18.8823C30.183 18.8978 30.0352 18.9056 29.8485 18.9056C29.7863 18.9056 29.724 18.8978 29.6618 18.8823C29.5996 18.8823 29.5373 18.8823 29.4751 18.8823C29.3973 18.8823 29.3273 18.8978 29.2651 18.9289C29.2028 18.9601 29.1484 18.9756 29.1017 18.9756C29.055 18.9756 29.0005 18.9601 28.9383 18.9289C28.8761 18.8978 28.8138 18.8823 28.7516 18.8823C28.7205 18.8823 28.6816 18.89 28.6349 18.9056C28.5882 18.9212 28.5415 18.9289 28.4949 18.9289C28.4638 18.9289 28.3937 18.9212 28.2848 18.9056C28.1759 18.9056 28.0592 18.8978 27.9347 18.8823C27.8258 18.8823 27.7169 18.8745 27.608 18.8589C27.5146 18.8589 27.4602 18.8589 27.4446 18.8589C27.3357 18.8589 27.2501 18.8667 27.1879 18.8823C27.1412 18.8978 27.079 18.9056 27.0012 18.9056C26.9078 18.9056 26.8067 18.89 26.6978 18.8589C26.6044 18.8434 26.5189 18.8356 26.4411 18.8356C26.3321 18.8356 26.2232 18.8511 26.1143 18.8823C26.0054 18.9134 25.8887 18.9289 25.7642 18.9289C25.7331 18.9289 25.702 18.9212 25.6709 18.9056C25.6553 18.9056 25.632 18.9056 25.6009 18.9056C25.4919 18.9056 25.3519 18.8978 25.1808 18.8823C25.0096 18.8823 24.7684 18.8823 24.4573 18.8823C24.3795 18.8823 24.2472 18.8823 24.0605 18.8823C23.8893 18.8978 23.7571 18.9056 23.6637 18.9056C23.2592 18.9056 22.9791 18.7889 22.8235 18.5555C22.6679 18.3377 22.5902 18.0498 22.5902 17.692C22.5902 17.6142 22.5902 17.4897 22.5902 17.3186C22.6057 17.163 22.6135 17.0385 22.6135 16.9451C22.6135 16.8518 22.5979 16.7507 22.5668 16.6417C22.5357 16.5328 22.5124 16.4317 22.4968 16.3383C22.4968 16.2294 22.5201 16.1361 22.5668 16.0583C22.6135 15.9649 22.6368 15.8716 22.6368 15.7782C22.6368 15.6848 22.6213 15.6148 22.5902 15.5682V15.2647C22.5902 15.2181 22.5824 15.1792 22.5668 15.1481C22.5668 15.1014 22.5668 15.0547 22.5668 15.008C22.5668 14.8058 22.6135 14.6346 22.7068 14.4946C22.8158 14.3545 22.9869 14.2767 23.2203 14.2612C23.2981 14.2767 23.3681 14.2845 23.4303 14.2845C23.5081 14.2845 23.5859 14.2845 23.6637 14.2845C23.7415 14.2845 23.8193 14.2845 23.8971 14.2845C23.9749 14.2845 24.0527 14.2767 24.1305 14.2612ZM55.3094 0.53796C55.356 0.631314 55.3949 0.693551 55.426 0.724669C55.4572 0.755788 55.4961 0.786906 55.5427 0.818024C55.5739 0.864702 55.5894 0.9036 55.5894 0.934719C55.605 0.950279 55.6205 0.973618 55.6361 1.00473C55.6672 1.12921 55.7061 1.23034 55.7528 1.30814C55.815 1.38594 55.885 1.47151 55.9628 1.56487L56.1262 1.86827L56.4996 2.56844C56.6241 2.81738 56.7252 3.01187 56.803 3.15191C56.8964 3.29194 56.9897 3.42419 57.0831 3.54867L57.3865 4.08546C57.6355 4.45888 57.8222 4.80896 57.9466 5.13571C57.9466 5.15126 57.9544 5.1746 57.97 5.20572C57.9855 5.23684 58.0011 5.26796 58.0167 5.29908C58.0478 5.36131 58.0789 5.42355 58.11 5.48579C58.1411 5.53247 58.18 5.58692 58.2267 5.64916C58.2889 5.68028 58.3201 5.7114 58.3201 5.74251C58.3356 5.77363 58.3512 5.81253 58.3667 5.85921V5.90589C58.3823 5.90589 58.4134 5.94478 58.4601 6.02258C58.5223 6.10038 58.5846 6.18595 58.6468 6.27931C58.709 6.37266 58.7635 6.46602 58.8102 6.55937C58.8724 6.65273 58.9035 6.72274 58.9035 6.76942C59.0124 6.97169 59.0669 7.15062 59.0669 7.30621C59.0825 7.46181 59.028 7.59406 58.9035 7.70297C58.8102 7.74965 58.709 7.79633 58.6001 7.84301C58.5068 7.87413 58.4056 7.88969 58.2967 7.88969L58.2267 7.9597C58.1178 7.99082 57.9855 7.9986 57.8299 7.98304C57.6899 7.95192 57.5654 7.84301 57.4565 7.6563C57.3632 7.5007 57.2543 7.32955 57.1298 7.14284C57.0209 6.95613 56.9275 6.78498 56.8497 6.62939L56.7564 6.46602C56.6474 6.32598 56.5774 6.17817 56.5463 6.02258L56.4763 5.78919C56.3829 5.66472 56.3129 5.58692 56.2662 5.5558C56.2351 5.50913 56.204 5.44689 56.1729 5.36909C56.1418 5.32242 56.1029 5.28352 56.0562 5.2524C56.0251 5.20572 56.0173 5.15126 56.0329 5.08903V5.01901C55.9551 4.97233 55.9084 4.92566 55.8928 4.87898V4.85564C55.675 4.46666 55.5661 4.24883 55.5661 4.20215V4.17881L55.4961 3.9921C55.4649 3.88319 55.426 3.79761 55.3794 3.73538C55.3327 3.64202 55.3016 3.57978 55.286 3.54867C55.2705 3.51755 55.2471 3.48643 55.216 3.45531L55.076 3.66536V3.71204C55.076 3.7276 55.0682 3.74316 55.0526 3.75872C55.0371 3.75872 55.0293 3.7665 55.0293 3.78205C55.0293 3.82873 55.0137 3.86763 54.9826 3.89875L54.8192 4.13214V4.17881L54.7492 4.29551C54.6714 4.40442 54.617 4.52112 54.5858 4.64559L54.4925 4.76228L54.4225 4.85564L54.3058 4.949L54.2358 5.01901L54.1191 5.34576L54.0491 5.53247C53.8935 5.87477 53.7379 6.14705 53.5823 6.34932L53.4889 6.5127L53.3256 6.76942C53.31 6.8161 53.2711 6.90168 53.2089 7.02615C53.1622 7.13506 53.1077 7.2362 53.0455 7.32955C53.0144 7.36067 52.991 7.39957 52.9755 7.44625C52.9599 7.47737 52.9366 7.50848 52.9055 7.5396C52.8432 7.64852 52.7576 7.72631 52.6487 7.77299C52.5554 7.81967 52.4465 7.84301 52.322 7.84301C52.2131 7.84301 52.1042 7.83523 51.9952 7.81967C51.8863 7.78855 51.793 7.75743 51.7152 7.72631C51.6996 7.72631 51.6841 7.71853 51.6685 7.70297C51.6529 7.70297 51.6374 7.6952 51.6218 7.67964L51.4818 7.5396L51.2484 7.46959C51.1239 7.39179 51.0617 7.29066 51.0617 7.16618C51.0772 7.02615 51.1395 6.90168 51.2484 6.79276L51.7385 5.90589C51.723 5.92145 51.723 5.91367 51.7385 5.88255C51.7696 5.85143 51.8007 5.82031 51.8319 5.78919C51.863 5.74251 51.8941 5.69584 51.9252 5.64916C51.9719 5.58692 52.0108 5.54025 52.0419 5.50913C52.0886 5.43133 52.1275 5.34576 52.1586 5.2524C52.2053 5.14349 52.2286 5.04235 52.2286 4.949L52.4387 4.73895C52.5009 4.67671 52.5476 4.63003 52.5787 4.59891C52.6254 4.55224 52.6798 4.47444 52.7421 4.36552L52.9988 3.82873L53.2322 3.59534C53.2633 3.42419 53.3178 3.27638 53.3956 3.15191C53.4267 3.07411 53.4967 2.98076 53.6056 2.87184L53.769 2.68513C53.8157 2.57622 53.839 2.47508 53.839 2.38173C53.9168 2.30393 53.979 2.22613 54.0257 2.14834C54.0724 2.07054 54.1113 2.00053 54.1424 1.93829L54.2824 1.7049C54.3136 1.6271 54.3447 1.57265 54.3758 1.54153C54.4069 1.51041 54.4692 1.48707 54.5625 1.47151V1.35482C54.5158 1.3237 54.5081 1.29258 54.5392 1.26146L54.7025 1.09809C54.7803 0.973617 54.8426 0.880261 54.8893 0.818024C54.9515 0.740228 55.0059 0.677992 55.0526 0.631315L55.1226 0.53796C55.2004 0.491281 55.2627 0.491281 55.3094 0.53796ZM47.7943 1.7049C47.8876 1.86049 47.9498 1.96163 47.981 2.00831C48.0276 2.05498 48.0588 2.09388 48.0743 2.125C48.0899 2.2028 48.1132 2.26503 48.1443 2.31171C48.1755 2.35839 48.2066 2.40507 48.2377 2.45174C48.2377 2.48286 48.2533 2.52954 48.2844 2.59178C48.3155 2.63845 48.3388 2.67735 48.3544 2.70847C48.4477 2.78627 48.4944 2.87962 48.4944 2.98853C48.4944 3.05077 48.5411 3.12857 48.6345 3.22192C48.6656 3.3464 48.7045 3.46309 48.7511 3.57201C48.8134 3.66536 48.899 3.7665 49.0079 3.87541C49.0545 4.04656 49.1401 4.26439 49.2646 4.5289C49.3891 4.77784 49.5135 5.01123 49.638 5.22906L49.6847 5.29908C49.7003 5.42355 49.7314 5.50135 49.7781 5.53247C49.8247 5.57914 49.8481 5.61804 49.8481 5.64916C49.8636 5.69584 49.8792 5.75029 49.8947 5.81253C49.9259 5.87477 49.957 5.937 49.9881 5.99924C50.0192 6.06148 50.0503 6.12372 50.0815 6.18595L50.4082 6.67607L50.4782 6.76942L50.5249 6.93279C50.6027 7.07283 50.6105 7.20508 50.5482 7.32955C50.5016 7.43847 50.416 7.51626 50.2915 7.56294C50.1204 7.62518 49.957 7.67964 49.8014 7.72631C49.6458 7.75743 49.4824 7.76521 49.3113 7.74965C49.2024 7.73409 49.0857 7.67964 48.9612 7.58628C48.8523 7.49293 48.7356 7.32955 48.6111 7.09617L48.4477 6.76942V6.72274L48.331 6.55937L48.2377 6.396C48.0665 6.03814 47.9343 5.75029 47.8409 5.53247C47.7476 5.31464 47.6776 5.15126 47.6309 5.04235L47.5375 4.85564C47.4753 4.7934 47.4208 4.70783 47.3742 4.59891C47.343 4.49 47.3197 4.39664 47.3041 4.31885L46.7907 3.03521C46.7751 3.06633 46.7673 3.13635 46.7673 3.24526C46.7518 3.3075 46.7362 3.36196 46.7207 3.40863C46.7051 3.45531 46.6818 3.50977 46.6507 3.57201V3.61868C46.6351 3.69648 46.5962 3.79761 46.534 3.92209C46.4873 4.031 46.4484 4.10102 46.4173 4.13214C46.355 4.19437 46.3239 4.29551 46.3239 4.43554C46.3239 4.49778 46.3083 4.54446 46.2772 4.57557L46.2072 4.69227C46.145 4.75451 46.0983 4.84008 46.0672 4.949L45.9972 5.08903C45.9816 5.15126 45.9349 5.22906 45.8571 5.32242C45.8416 5.36909 45.8027 5.44689 45.7404 5.5558C45.6938 5.66472 45.6393 5.76585 45.5771 5.85921L45.4837 6.02258L45.3203 6.30265C45.3048 6.33376 45.2814 6.37266 45.2503 6.41934C45.2348 6.45046 45.2192 6.48158 45.2036 6.5127C45.1725 6.54381 45.1414 6.59827 45.1103 6.67607C45.0792 6.7383 45.0481 6.80054 45.0169 6.86278L44.9236 7.07283L44.8769 7.16618C44.8613 7.1973 44.8458 7.22842 44.8302 7.25954C44.8147 7.2751 44.8069 7.29844 44.8069 7.32955L44.7369 7.44625L44.6202 7.58628C44.5424 7.75743 44.4335 7.87413 44.2934 7.93636C44.1534 7.9986 43.9978 8.02972 43.8267 8.02972C43.6866 8.02972 43.5466 8.00638 43.4066 7.9597C43.2821 7.89746 43.1732 7.82745 43.0798 7.74965C42.9865 7.6563 42.9164 7.55516 42.8698 7.44625C42.8386 7.32177 42.8542 7.1973 42.9164 7.07283V7.04949C42.9164 7.03393 42.9242 7.01837 42.9398 7.00281L42.9865 6.95613L43.1265 6.74608C43.1576 6.71497 43.1809 6.68385 43.1965 6.65273C43.2121 6.62161 43.2276 6.59049 43.2432 6.55937L43.3132 6.34932C43.3288 6.28709 43.3754 6.21707 43.4532 6.13927C43.5622 5.98368 43.6166 5.87477 43.6166 5.81253C43.6477 5.78141 43.6633 5.73474 43.6633 5.6725L43.7566 5.5558C43.7878 5.52469 43.8111 5.47801 43.8267 5.41577C43.8422 5.35353 43.8656 5.30686 43.8967 5.27574L44.0834 4.949C44.1145 4.88676 44.1456 4.8323 44.1767 4.78562C44.2079 4.72339 44.2234 4.67671 44.2234 4.64559C44.2857 4.59891 44.3323 4.51334 44.3635 4.38886C44.3635 4.34219 44.3946 4.29551 44.4568 4.24883C44.5346 4.18659 44.5891 4.0699 44.6202 3.89875C44.6513 3.78983 44.6902 3.71204 44.7369 3.66536C44.8147 3.58756 44.8847 3.47087 44.9469 3.31528L45.0636 3.15191L45.2503 2.89518C45.4059 2.69291 45.5071 2.5062 45.5537 2.33505L45.9038 1.77492L46.5573 0.724669C46.6195 0.600196 46.6896 0.54574 46.7673 0.561298C46.8607 0.561298 46.9463 0.607975 47.0241 0.70133C47.1797 0.872483 47.3275 1.05919 47.4675 1.26146C47.6075 1.46373 47.7165 1.61155 47.7943 1.7049ZM49.4513 18.7422C49.249 18.7111 49.0546 18.68 48.8678 18.6489C48.6967 18.6333 48.5255 18.6411 48.3544 18.6722L47.8876 18.7189C47.8565 18.7033 47.7943 18.6878 47.7009 18.6722C47.6075 18.6722 47.5064 18.6722 47.3975 18.6722C47.2886 18.6722 47.1797 18.6722 47.0707 18.6722C46.9774 18.6878 46.9074 18.7033 46.8607 18.7189C46.8451 18.7189 46.814 18.7189 46.7673 18.7189C46.7207 18.7345 46.6818 18.7422 46.6507 18.7422C46.5729 18.7267 46.4951 18.7189 46.4173 18.7189C46.355 18.7345 46.2928 18.7422 46.2306 18.7422L45.9972 18.7189C45.437 18.8122 45.0325 18.8122 44.7835 18.7189C44.6591 18.7033 44.5502 18.6878 44.4568 18.6722C44.3634 18.6567 44.2779 18.6178 44.2001 18.5555C44.1378 18.5088 44.0912 18.4155 44.06 18.2755C44.0289 18.151 44.0134 17.9721 44.0134 17.7387C44.0756 17.4275 44.0834 17.1708 44.0367 16.9685C43.99 16.7662 43.99 16.5873 44.0367 16.4317C44.0834 16.2761 44.0989 16.1361 44.0834 16.0116C44.0834 15.8871 44.0756 15.7471 44.06 15.5915C44.06 15.5448 44.06 15.4281 44.06 15.2414C44.06 15.0391 44.0523 14.8213 44.0367 14.5879C44.0367 14.339 44.0367 14.0978 44.0367 13.8644C44.0367 13.6155 44.0367 13.421 44.0367 13.281C44.0367 13.172 44.0289 13.0709 44.0134 12.9775C43.9978 12.8686 44.0056 12.7753 44.0367 12.6975C44.1767 12.1685 44.5424 11.9662 45.1336 12.0907C45.367 12.0907 45.5382 12.1373 45.6471 12.2307C45.756 12.3241 45.826 12.4408 45.8571 12.5808C45.9038 12.7208 45.9271 12.8764 45.9271 13.0476C45.9271 13.2187 45.9427 13.3821 45.9738 13.5377C45.9272 13.6777 45.9349 13.8177 45.9972 13.9578C45.9816 13.9889 45.966 14.0978 45.9505 14.2845C45.9505 14.4557 45.9427 14.6502 45.9271 14.868C45.9271 15.0703 45.9271 15.2725 45.9271 15.4748C45.9427 15.6615 45.9505 15.7782 45.9505 15.8249C45.9038 15.9494 45.8883 16.0738 45.9038 16.1983C45.9349 16.3072 45.966 16.4239 45.9972 16.5484C45.9816 16.7507 46.0127 16.9218 46.0905 17.0618H46.1605C46.285 16.984 46.425 16.9607 46.5806 16.9918L46.7207 17.0618C46.7985 17.0618 46.8685 17.0618 46.9307 17.0618C46.993 17.0618 47.063 17.0541 47.1408 17.0385C47.1719 17.0385 47.203 17.0229 47.2341 16.9918C47.2964 16.9763 47.3508 16.984 47.3975 17.0152C47.4909 16.9996 47.5842 16.984 47.6776 16.9685C47.7709 16.9685 47.8643 16.9685 47.9576 16.9685C48.051 16.9374 48.1443 16.9296 48.2377 16.9451C48.3466 16.9763 48.4555 16.9918 48.5644 16.9918C48.6111 16.9918 48.65 17.0074 48.6811 17.0385C48.7122 17.0385 48.7278 17.0385 48.7278 17.0385C48.7434 17.0541 48.7667 17.0618 48.7978 17.0618C48.8134 17.0618 48.8212 17.0541 48.8212 17.0385C48.8212 17.0385 48.8367 17.0385 48.8678 17.0385L49.1712 17.0618C49.2024 17.0152 49.2879 16.984 49.428 16.9685C49.568 16.9529 49.6769 16.9607 49.7547 16.9918C49.8325 17.0385 49.9025 17.0618 49.9648 17.0618C50.027 17.0618 50.097 17.0463 50.1748 17.0152C50.3148 16.9685 50.4471 16.9607 50.5716 16.9918C50.7116 17.0385 50.8439 17.0385 50.9683 16.9918C51.0772 16.9918 51.1706 16.984 51.2484 16.9685C51.3418 16.9685 51.4273 16.9763 51.5051 16.9918C51.5829 17.0229 51.6452 17.0074 51.6918 16.9451C51.7541 16.8829 51.8241 16.8907 51.9019 16.9685C51.933 16.984 51.9952 16.9918 52.0886 16.9918C52.1664 16.9918 52.2753 16.9996 52.4153 17.0152C52.5554 17.0307 52.7032 17.0385 52.8588 17.0385C53.0299 17.0541 53.2011 17.0541 53.3722 17.0385C53.5589 17.0385 53.7301 17.0152 53.8857 16.9685H54.1891C54.3291 17.0307 54.4769 17.0541 54.6325 17.0385C54.757 17.0385 54.8893 17.0385 55.0293 17.0385C55.1693 17.0541 55.3016 17.0385 55.426 16.9918C55.6906 17.0541 55.9784 17.0696 56.2896 17.0385C56.6008 17.0074 56.8808 16.9996 57.1298 17.0152C57.2076 17.0152 57.262 17.0074 57.2932 16.9918C57.3243 16.9918 57.3709 16.984 57.4332 16.9685C57.6821 16.9062 57.9389 16.9218 58.2034 17.0152C58.4834 17.1085 58.639 17.2952 58.6701 17.5753C58.6857 17.7153 58.6857 17.8554 58.6701 17.9954C58.6546 18.151 58.6079 18.2832 58.5301 18.3921C58.4679 18.5011 58.3745 18.5789 58.25 18.6255C58.1256 18.6878 57.9622 18.7033 57.7599 18.6722H57.5499C57.5188 18.6722 57.4954 18.68 57.4799 18.6956C57.4643 18.7111 57.4487 18.7189 57.4332 18.7189C57.3709 18.7189 57.3009 18.7111 57.2231 18.6956C57.1453 18.68 57.0675 18.6722 56.9897 18.6722C56.8497 18.7189 56.7175 18.7422 56.593 18.7422C56.5619 18.7734 56.5307 18.7734 56.4996 18.7422C56.3752 18.7578 56.2118 18.7578 56.0095 18.7422C55.8228 18.7267 55.6672 18.7189 55.5427 18.7189H55.4494C55.3716 18.7189 55.3016 18.75 55.2393 18.8122C55.1771 18.8745 55.1149 18.8667 55.0526 18.7889C55.0059 18.7422 54.9593 18.7189 54.9126 18.7189C54.8815 18.7189 54.8426 18.7267 54.7959 18.7422C54.7648 18.7734 54.7337 18.7967 54.7025 18.8122C54.6714 18.8434 54.6481 18.8511 54.6325 18.8356C54.5081 18.7267 54.3914 18.6878 54.2824 18.7189C54.1735 18.75 54.0724 18.7422 53.979 18.6956C53.8546 18.6644 53.769 18.68 53.7223 18.7422C53.6756 18.8045 53.5978 18.7967 53.4889 18.7189C53.4422 18.6722 53.3878 18.6722 53.3256 18.7189C53.2633 18.7656 53.1933 18.7889 53.1155 18.7889C53.0688 18.8045 53.0144 18.7967 52.9521 18.7656C52.9055 18.7345 52.851 18.7111 52.7888 18.6956H52.6721C52.5943 18.7111 52.5243 18.7189 52.462 18.7189C52.4153 18.7189 52.3531 18.7345 52.2753 18.7656C52.1819 18.7967 52.1119 18.7889 52.0653 18.7422C52.0341 18.7111 51.9797 18.7111 51.9019 18.7422H51.8552C51.7619 18.7267 51.6529 18.7422 51.5285 18.7889C51.2328 18.7578 50.9528 18.7111 50.6883 18.6489C50.5794 18.6022 50.4704 18.5789 50.3615 18.5789C50.2526 18.5944 50.1437 18.6178 50.0348 18.6489C49.9414 18.68 49.8403 18.7111 49.7314 18.7422C49.638 18.7734 49.5447 18.7734 49.4513 18.7422ZM42.9398 10.7837C42.8153 10.7837 42.7064 10.7526 42.613 10.6903C42.5352 10.6125 42.4652 10.527 42.403 10.4336C42.3563 10.3247 42.3174 10.2236 42.2863 10.1302C42.2707 10.0213 42.263 9.93572 42.263 9.87348C42.263 9.62454 42.3408 9.44561 42.4963 9.33669C42.6675 9.22778 42.8464 9.17332 43.0331 9.17332H44.2468C44.449 9.17332 44.6513 9.17332 44.8536 9.17332C45.0558 9.17332 45.2425 9.1811 45.4137 9.19666C45.4759 9.19666 45.5693 9.19666 45.6938 9.19666C45.8182 9.19666 45.9427 9.19666 46.0672 9.19666C46.1917 9.1811 46.3084 9.17332 46.4173 9.17332C46.5417 9.17332 46.6351 9.17332 46.6973 9.17332C46.7907 9.17332 46.884 9.1811 46.9774 9.19666C47.0708 9.19666 47.1563 9.19666 47.2341 9.19666C47.3586 9.19666 47.4753 9.18888 47.5842 9.17332C47.6931 9.1422 47.802 9.12664 47.911 9.12664C47.9887 9.12664 48.0665 9.13442 48.1443 9.14998C48.2377 9.16554 48.3077 9.17332 48.3544 9.17332C48.4322 9.12664 48.5489 9.1033 48.7045 9.1033C48.8601 9.1033 49.0157 9.11108 49.1712 9.12664C49.3424 9.1422 49.498 9.15776 49.638 9.17332C49.7781 9.18888 49.8792 9.19666 49.9414 9.19666H51.6452C51.6763 9.19666 51.7619 9.19666 51.9019 9.19666C52.0575 9.1811 52.2208 9.17332 52.392 9.17332C52.5632 9.17332 52.7187 9.17332 52.8588 9.17332C52.9988 9.15776 53.0844 9.14998 53.1155 9.14998C53.1466 9.14998 53.1777 9.16554 53.2089 9.19666C53.2555 9.22778 53.2944 9.24334 53.3256 9.24334C53.3567 9.24334 53.3878 9.22778 53.4189 9.19666C53.4656 9.16554 53.5123 9.14998 53.5589 9.14998C53.5901 9.14998 53.629 9.16554 53.6756 9.19666C53.7379 9.21222 53.7923 9.22 53.839 9.22C53.8701 9.22 53.9246 9.22 54.0024 9.22C54.0957 9.20444 54.1891 9.18888 54.2824 9.17332C54.3914 9.15776 54.4847 9.14998 54.5625 9.14998C54.6403 9.13442 54.6948 9.12664 54.7259 9.12664C54.8037 9.12664 54.9282 9.13442 55.0993 9.14998C55.2705 9.16554 55.3716 9.17332 55.4027 9.17332C55.4338 9.1422 55.4727 9.12664 55.5194 9.12664C55.5816 9.12664 55.6283 9.12664 55.6594 9.12664C55.675 9.12664 55.7683 9.13442 55.9395 9.14998C56.1262 9.14998 56.3207 9.14998 56.523 9.14998C56.7408 9.14998 56.9353 9.15776 57.1064 9.17332C57.2932 9.17332 57.4021 9.17332 57.4332 9.17332C57.4487 9.17332 57.4876 9.17332 57.5499 9.17332C57.6277 9.17332 57.7055 9.17332 57.7833 9.17332C57.8766 9.15776 57.9622 9.14998 58.04 9.14998C58.1333 9.14998 58.1956 9.14998 58.2267 9.14998C58.3667 9.14998 58.5068 9.15776 58.6468 9.17332C58.8024 9.18888 58.9424 9.22 59.0669 9.26667C59.2069 9.31335 59.3158 9.38337 59.3936 9.47672C59.487 9.55452 59.5337 9.66343 59.5337 9.80347C59.5804 10.1147 59.5337 10.3714 59.3936 10.5736C59.2692 10.7604 59.0513 10.8537 58.7402 10.8537C58.709 10.8537 58.6779 10.8537 58.6468 10.8537C58.6157 10.8382 58.5846 10.8304 58.5534 10.8304C58.5068 10.8304 58.429 10.8304 58.3201 10.8304C58.2111 10.8304 58.0945 10.8382 57.97 10.8537C57.8611 10.8537 57.7521 10.8537 57.6432 10.8537C57.5343 10.8537 57.4565 10.8537 57.4098 10.8537C57.3632 10.8537 57.2387 10.8537 57.0364 10.8537C56.8342 10.8537 56.6163 10.8537 56.3829 10.8537C56.1496 10.8382 55.9317 10.8304 55.7295 10.8304C55.5427 10.8304 55.426 10.8304 55.3794 10.8304C55.2549 10.8304 55.1382 10.8382 55.0293 10.8537C54.9204 10.8537 54.8115 10.8537 54.7025 10.8537C54.6247 10.8537 54.4614 10.8382 54.2124 10.807C53.979 10.7759 53.8234 10.7604 53.7457 10.7604C53.6679 10.7604 53.5901 10.7681 53.5123 10.7837C53.45 10.7993 53.3878 10.807 53.3256 10.807C53.2789 10.807 53.2322 10.807 53.1855 10.807C53.1544 10.7915 53.1233 10.7837 53.0922 10.7837C53.061 10.7837 52.9677 10.7915 52.8121 10.807C52.6721 10.807 52.5165 10.807 52.3453 10.807C52.1742 10.807 52.0108 10.8148 51.8552 10.8304C51.7152 10.8304 51.6296 10.8304 51.5985 10.8304C51.5207 10.8304 51.4507 10.8226 51.3884 10.807C51.3262 10.7759 51.2562 10.7604 51.1784 10.7604C51.1161 10.7604 51.015 10.7681 50.875 10.7837C50.7505 10.7837 50.6105 10.7915 50.4549 10.807C50.2993 10.8226 50.1515 10.8382 50.0114 10.8537C49.887 10.8537 49.7936 10.8537 49.7314 10.8537C49.7003 10.8537 49.5913 10.8382 49.4046 10.807C49.2179 10.7759 49.109 10.7604 49.0779 10.7604C49.0623 10.7604 49.0157 10.7681 48.9379 10.7837C48.8756 10.7837 48.8056 10.7915 48.7278 10.807C48.65 10.807 48.5722 10.8148 48.4944 10.8304C48.4166 10.8304 48.3699 10.8304 48.3544 10.8304C48.1521 10.8304 47.9654 10.8148 47.7943 10.7837C47.6387 10.7526 47.4597 10.737 47.2575 10.737C47.1485 10.737 47.0241 10.7448 46.884 10.7604C46.744 10.7604 46.5962 10.7681 46.4406 10.7837C46.285 10.7993 46.1372 10.8148 45.9972 10.8304C45.8727 10.8304 45.7638 10.8304 45.6704 10.8304C45.6237 10.7993 45.5459 10.7759 45.437 10.7604C45.3281 10.7292 45.2348 10.7137 45.157 10.7137C45.0947 10.7137 45.0325 10.7292 44.9703 10.7604C44.908 10.7915 44.838 10.807 44.7602 10.807C44.698 10.7915 44.6357 10.7837 44.5735 10.7837C44.5268 10.7681 44.4646 10.7604 44.3868 10.7604C44.309 10.7604 44.2312 10.7681 44.1534 10.7837C44.0756 10.7837 43.9978 10.7837 43.92 10.7837H42.9398ZM64.0829 9.73345C64.0674 9.28223 64.1063 8.8777 64.1996 8.51983C64.3085 8.14641 64.4252 7.74965 64.5497 7.32955C64.5964 7.14284 64.6664 6.99503 64.7598 6.88612C64.8531 6.7772 64.9387 6.63717 65.0165 6.46602C65.1876 6.27931 65.3432 6.07704 65.4833 5.85921C65.6388 5.64138 65.8645 5.44689 66.1601 5.27574C66.6424 4.99567 67.0392 4.80896 67.3504 4.71561C67.6615 4.60669 67.8794 4.55224 68.0038 4.55224C68.035 4.55224 68.0739 4.53668 68.1205 4.50556C68.1828 4.45888 68.2684 4.43554 68.3773 4.43554C68.4551 4.43554 68.5329 4.4511 68.6107 4.48222C68.704 4.49778 68.7896 4.50556 68.8674 4.50556C68.9141 4.50556 68.9607 4.49778 69.0074 4.48222C69.0541 4.4511 69.093 4.43554 69.1241 4.43554C69.2019 4.43554 69.2719 4.45888 69.3342 4.50556C69.3964 4.55224 69.4742 4.57557 69.5675 4.57557C69.6453 4.57557 69.6998 4.56002 69.7309 4.5289C69.7776 4.49778 69.8243 4.48222 69.871 4.48222C70.1977 4.48222 70.4077 4.52112 70.5011 4.59891C70.5945 4.66115 70.68 4.70783 70.7578 4.73895C70.7889 4.75451 70.8123 4.77006 70.8278 4.78562C70.859 4.80118 70.8901 4.80896 70.9212 4.80896C71.139 4.80896 71.3569 4.87898 71.5747 5.01901C71.8081 5.14349 72.0181 5.28352 72.2048 5.43911C72.4071 5.5947 72.5783 5.74251 72.7183 5.88255C72.8583 6.00702 72.9517 6.07704 72.9984 6.0926C73.1228 6.18595 73.2395 6.32598 73.3484 6.5127C73.4574 6.68385 73.5507 6.87834 73.6285 7.09617C73.7219 7.31399 73.7997 7.54738 73.8619 7.79633C73.9241 8.04528 73.9786 8.27089 74.0253 8.47316C74.0564 8.61319 74.0642 8.72988 74.0486 8.82324C74.033 8.91659 74.0175 9.00217 74.0019 9.07996C74.0486 9.23556 74.0486 9.35225 74.0019 9.43005C73.9552 9.49228 73.9397 9.55452 73.9552 9.61676C73.9708 9.69455 73.9786 9.76457 73.9786 9.82681C73.9786 9.88904 73.9786 9.95128 73.9786 10.0135C73.9786 10.1847 73.9552 10.3714 73.9086 10.5736C73.8619 10.7759 73.8074 10.9704 73.7452 11.1571C73.683 11.3283 73.6207 11.4839 73.5585 11.6239C73.5118 11.7484 73.4807 11.8184 73.4651 11.8339C73.3095 12.0673 73.1617 12.3085 73.0217 12.5574C72.8972 12.7908 72.6561 12.9931 72.2982 13.1643C72.236 13.1954 72.1504 13.2498 72.0415 13.3276C71.9481 13.3899 71.8392 13.4599 71.7147 13.5377C71.6058 13.6155 71.4891 13.6855 71.3646 13.7477C71.2402 13.81 71.1079 13.8411 70.9679 13.8411C70.9056 13.9189 70.7734 13.9889 70.5711 14.0511C70.3844 14.0978 70.2677 14.1211 70.221 14.1211C70.1277 14.1211 70.0421 14.1367 69.9643 14.1678C69.8865 14.1989 69.7854 14.2378 69.6609 14.2845C69.552 14.3156 69.412 14.339 69.2408 14.3545C69.0697 14.3701 68.8596 14.3623 68.6107 14.3312C68.3928 14.3156 68.175 14.2534 67.9572 14.1445C67.7549 14.0356 67.5449 13.9811 67.327 13.9811C67.187 13.9656 67.047 13.9267 66.9069 13.8644C66.7825 13.7866 66.6658 13.7088 66.5568 13.631C66.4479 13.5532 66.3546 13.4832 66.2768 13.421C66.199 13.3432 66.1523 13.3043 66.1367 13.3043C65.9656 13.2887 65.8022 13.2265 65.6466 13.1176C65.5066 12.9931 65.3743 12.8609 65.2499 12.7208C65.141 12.5808 65.0398 12.4485 64.9465 12.3241C64.8687 12.1996 64.8142 12.114 64.7831 12.0673C64.5497 11.6939 64.3786 11.3127 64.2696 10.9237C64.1607 10.5348 64.0985 10.138 64.0829 9.73345ZM72.1582 8.86992C72.0959 8.23199 71.8859 7.71853 71.528 7.32955C71.5125 7.25176 71.4658 7.1973 71.388 7.16618C71.3102 7.1195 71.2791 7.04949 71.2946 6.95613C71.2946 6.92501 71.1935 6.855 70.9912 6.74608C70.8045 6.63717 70.6334 6.58271 70.4778 6.58271C70.3533 6.58271 70.2599 6.54381 70.1977 6.46602C70.1355 6.37266 70.0654 6.32598 69.9876 6.32598C69.9565 6.32598 69.9332 6.33376 69.9176 6.34932C69.9176 6.34932 69.9021 6.34932 69.871 6.34932C69.8398 6.34932 69.7932 6.33376 69.7309 6.30265C69.6842 6.25597 69.6453 6.23263 69.6142 6.23263C69.5831 6.23263 69.552 6.24041 69.5209 6.25597C69.5053 6.25597 69.482 6.25597 69.4509 6.25597C69.2953 6.25597 69.1475 6.24041 69.0074 6.20929C68.8674 6.16261 68.7585 6.13927 68.6807 6.13927C68.6496 6.13927 68.6029 6.16261 68.5406 6.20929C68.4784 6.25597 68.4006 6.28709 68.3073 6.30265C68.2139 6.31821 68.1361 6.34932 68.0739 6.396C68.0272 6.42712 67.9805 6.46602 67.9338 6.5127C67.8872 6.54381 67.8327 6.57493 67.7705 6.60605C67.7238 6.63717 67.6538 6.64495 67.5604 6.62939C67.5293 6.62939 67.4515 6.66829 67.327 6.74608C67.2181 6.80832 67.1014 6.90168 66.9769 7.02615C66.8525 7.13506 66.728 7.25954 66.6035 7.39957C66.4946 7.5396 66.4324 7.67186 66.4168 7.79633C66.4013 7.90524 66.3701 8.01416 66.3235 8.12307C66.2923 8.23199 66.2301 8.33312 66.1367 8.42648C66.1834 8.47316 66.2068 8.51983 66.2068 8.56651C66.2068 8.61319 66.2068 8.66765 66.2068 8.72988C66.2068 8.82324 66.1756 8.91659 66.1134 9.00995C66.0667 9.1033 66.0434 9.19666 66.0434 9.29001C66.0434 9.35225 66.0589 9.41449 66.0901 9.47672C66.1367 9.5234 66.1601 9.57786 66.1601 9.6401C66.1601 9.68677 66.1367 9.73345 66.0901 9.78013C66.0589 9.81125 66.0434 9.84237 66.0434 9.87348C66.0434 10.0758 66.0823 10.2858 66.1601 10.5036C66.2379 10.7059 66.339 10.9004 66.4635 11.0871C66.588 11.2738 66.7202 11.445 66.8602 11.6006C67.0158 11.7561 67.1637 11.8884 67.3037 11.9973C67.397 12.0751 67.5215 12.1451 67.6771 12.2074C67.8483 12.2696 68.0194 12.3241 68.1906 12.3707C68.3773 12.4019 68.5562 12.433 68.7274 12.4641C68.9141 12.4797 69.0697 12.4874 69.1941 12.4874C69.412 12.4874 69.6064 12.433 69.7776 12.3241C69.9643 12.1996 70.1588 12.1373 70.3611 12.1373C70.47 12.1373 70.5711 12.1062 70.6645 12.044C70.7578 11.9818 70.8356 11.9117 70.8979 11.8339C70.9757 11.7561 71.0457 11.6861 71.1079 11.6239C71.1701 11.5461 71.2246 11.4994 71.2713 11.4839C71.3646 11.4527 71.4269 11.4138 71.458 11.3672C71.5047 11.3049 71.5436 11.2505 71.5747 11.2038C71.6058 11.1416 71.6447 11.0871 71.6914 11.0404C71.7381 10.9937 71.8159 10.9548 71.9248 10.9237C71.847 10.7993 71.8081 10.7059 71.8081 10.6437C71.8081 10.6125 71.8392 10.5736 71.9014 10.527C71.9792 10.4647 72.0181 10.3947 72.0181 10.3169C72.0181 10.3014 72.0026 10.2858 71.9714 10.2702C71.9559 10.2391 71.9481 10.208 71.9481 10.1769C71.9481 10.1302 71.9637 10.0835 71.9948 10.0369C72.0259 9.99018 72.0415 9.9435 72.0415 9.89682C72.0415 9.8657 72.0337 9.83459 72.0181 9.80347C72.0026 9.75679 71.9948 9.71011 71.9948 9.66343C71.9948 9.5234 72.0415 9.40671 72.1348 9.31335C72.0881 9.26668 72.0648 9.22778 72.0648 9.19666C72.0648 9.13442 72.0804 9.07996 72.1115 9.03329C72.1426 8.98661 72.1582 8.93215 72.1582 8.86992ZM77.9695 16.7818C77.9695 16.6884 77.9617 16.6028 77.9462 16.525C77.9462 16.4317 77.9462 16.3383 77.9462 16.245C77.9462 16.1049 77.9384 15.9805 77.9228 15.8716C77.9073 15.7471 77.8995 15.646 77.8995 15.5682C77.8995 15.4904 77.9073 15.4126 77.9228 15.3348C77.954 15.2414 77.9695 15.1558 77.9695 15.078V14.5179C77.9695 14.4557 77.9695 14.4012 77.9695 14.3545C77.9851 14.2923 77.9929 14.2301 77.9929 14.1678C77.9929 13.9967 77.9773 13.88 77.9462 13.8177C77.9151 13.7555 77.8995 13.6933 77.8995 13.631C77.8995 13.5688 77.9073 13.5066 77.9228 13.4443C77.954 13.3665 77.9695 13.2421 77.9695 13.0709C77.9695 12.9464 77.9617 12.8375 77.9462 12.7442C77.9462 12.6508 77.9462 12.5652 77.9462 12.4874C77.9462 12.4563 77.9462 12.4252 77.9462 12.3941C77.9617 12.3474 77.9695 12.3085 77.9695 12.2774C77.9695 12.1996 77.9617 12.114 77.9462 12.0207C77.9462 11.9273 77.9462 11.8339 77.9462 11.7406C77.9462 11.6317 77.9384 11.5305 77.9228 11.4372C77.9228 11.3438 77.9462 11.2505 77.9929 11.1571C77.9462 11.1416 77.9228 11.1104 77.9228 11.0638C77.9228 11.0171 77.9306 10.9782 77.9462 10.9471C77.9773 10.9004 77.9929 10.8615 77.9929 10.8304C77.9929 10.7993 77.9695 10.7604 77.9228 10.7137V10.6203C77.9695 10.5581 77.9929 10.4647 77.9929 10.3403C77.9929 10.2936 77.9851 10.2547 77.9695 10.2236C77.954 10.1769 77.9462 10.138 77.9462 10.1069C77.9462 10.1069 77.954 10.0913 77.9695 10.0602C77.9695 9.99796 77.9617 9.9435 77.9462 9.89682C77.9306 9.85015 77.9228 9.79569 77.9228 9.73345C77.9228 9.6401 77.9695 9.55452 78.0629 9.47672C78.0629 9.44561 78.0551 9.34447 78.0395 9.17332C78.024 9.00217 78.0084 8.87769 77.9929 8.7999C78.0084 8.73766 78.0084 8.67543 77.9929 8.61319C77.9929 8.53539 77.9929 8.41092 77.9929 8.23977C77.9929 8.06862 78.0006 7.93636 78.0162 7.84301C78.0473 7.74965 78.0629 7.66408 78.0629 7.58628C78.0629 7.52404 78.0551 7.44625 78.0395 7.35289C78.0395 7.24398 78.0395 7.1584 78.0395 7.09617C78.0395 7.06505 78.0395 7.04171 78.0395 7.02615C78.0551 7.01059 78.0629 6.98725 78.0629 6.95613C78.0629 6.92501 78.0551 6.8939 78.0395 6.86278C78.024 6.83166 78.0084 6.79276 77.9929 6.74608C78.024 6.59049 78.0395 6.41934 78.0395 6.23263C78.0395 6.03036 78.024 5.85921 77.9929 5.71918L77.8995 5.50913C77.9773 5.12015 78.0162 4.77784 78.0162 4.48222C78.0162 4.35775 78.0006 4.27995 77.9695 4.24883C77.954 4.20215 77.9462 4.1477 77.9462 4.08546C77.9462 3.91431 77.9617 3.7665 77.9929 3.64202C78.0395 3.50199 78.0629 3.37752 78.0629 3.2686C78.0629 3.15969 78.0473 3.05855 78.0162 2.9652C77.9851 2.85628 77.9695 2.74737 77.9695 2.63845V2.24169C77.9695 2.02386 78.0629 1.86049 78.2496 1.75158C78.4519 1.64266 78.6852 1.58821 78.9498 1.58821C79.2143 1.58821 79.4476 1.65044 79.6499 1.77492C79.8677 1.88383 79.9767 2.0472 79.9767 2.26503V2.4284C79.9922 2.44396 80 2.4673 80 2.49842C80 2.56066 79.9844 2.61511 79.9533 2.66179C79.9222 2.69291 79.9066 2.74737 79.9066 2.82516C79.9066 2.87184 79.9144 2.91074 79.93 2.94186C79.9611 2.97298 79.9767 3.02743 79.9767 3.10523C79.9767 3.13635 79.9689 3.17525 79.9533 3.22192C79.9533 3.2686 79.9533 3.3075 79.9533 3.33862C79.9533 3.38529 79.9611 3.43197 79.9767 3.47865C79.9922 3.50977 80 3.54867 80 3.59534C80 3.62646 79.9922 3.65758 79.9767 3.6887C79.9767 3.70426 79.9767 3.7276 79.9767 3.75872C79.9767 3.88319 79.9689 4.03878 79.9533 4.22549C79.9533 4.4122 79.9533 4.75451 79.9533 5.2524C79.9533 5.39243 79.9611 5.51691 79.9767 5.62582C79.9922 5.71918 80 5.78919 80 5.83587C80 5.86699 79.9922 5.92145 79.9767 5.99924C79.9767 6.07704 79.9767 6.13149 79.9767 6.16261C79.9455 6.396 79.9378 6.64495 79.9533 6.90946C79.9689 7.1584 79.9689 7.36845 79.9533 7.5396C79.9222 7.57072 79.9066 7.60962 79.9066 7.6563C79.9066 7.68742 79.9144 7.72631 79.93 7.77299C79.9455 7.80411 79.9533 7.84301 79.9533 7.88969C79.9533 7.98304 79.9455 8.09973 79.93 8.23977C79.9144 8.36424 79.9066 8.48094 79.9066 8.58985C79.9066 8.62097 79.9222 8.65987 79.9533 8.70654C79.9844 8.73766 80 8.76878 80 8.7999C80 8.86214 79.9844 8.92437 79.9533 8.98661C79.9378 9.03329 79.93 9.08774 79.93 9.14998C79.93 9.2589 79.9378 9.36781 79.9533 9.47672C79.9844 9.57008 80 9.67121 80 9.78013C80 9.9046 79.9844 10.0135 79.9533 10.1069C79.9222 10.2002 79.9066 10.2936 79.9066 10.3869C79.9066 10.4647 79.9144 10.5348 79.93 10.597C79.9455 10.6437 79.9533 10.6981 79.9533 10.7604C79.9533 10.7915 79.9455 10.8304 79.93 10.8771C79.9144 10.9082 79.9066 10.9471 79.9066 10.9937C79.9066 11.0249 79.9222 11.0638 79.9533 11.1104C79.9844 11.1416 80 11.1805 80 11.2271C79.9844 11.3983 79.9767 11.5617 79.9767 11.7173C79.9767 11.8728 79.9767 12.0207 79.9767 12.1607C79.9767 12.3163 79.9767 12.4019 79.9767 12.4174C79.9922 12.4174 80 12.4874 80 12.6275C80 12.6586 79.9922 12.6819 79.9767 12.6975C79.9767 12.6975 79.9767 12.713 79.9767 12.7442C79.9767 12.7908 79.9767 12.8453 79.9767 12.9075C79.9922 12.9542 80 13.0009 80 13.0476C80 13.1254 79.9844 13.1954 79.9533 13.2576C79.9378 13.3043 79.93 13.351 79.93 13.3976C79.93 13.4132 79.9378 13.4754 79.9533 13.5844C79.9689 13.6777 79.9767 13.7555 79.9767 13.8177V14.9147C79.9455 14.9769 79.93 15.0469 79.93 15.1247C79.9455 15.2025 79.9144 15.2725 79.8366 15.3348C79.9144 15.3814 79.9533 15.467 79.9533 15.5915C79.9533 15.7626 79.9455 15.9338 79.93 16.1049C79.93 16.2761 79.93 16.4473 79.93 16.6184C79.93 16.9918 79.8677 17.2485 79.7433 17.3886C79.6188 17.5442 79.3698 17.622 78.9964 17.622C78.2963 17.622 77.9462 17.4119 77.9462 16.9918C77.9462 16.9607 77.9462 16.9218 77.9462 16.8751C77.9617 16.844 77.9695 16.8129 77.9695 16.7818Z" fill="black"/>
</svg>
