<svg xmlns="http://www.w3.org/2000/svg" viewBox="0 0 340.85 41.41"><title>Fichier 1</title><g id="Calque_2" data-name="Calque 2"><g id="Calque_1-2" data-name="Calque 1"><path id="VCA_logo_75_of_the_initial_size_dektop_version_" data-name="VCA logo 75 of the initial size dektop version " d="M106.34,21.12v6.37c0,.24-5.51,2.93-9.8,2.93a13.29,13.29,0,0,1-9.61-4,15.24,15.24,0,0,1-4.71-11.07c0-8,6.07-15.1,14.21-15.34h.42A12,12,0,0,1,105,3.21a1.84,1.84,0,0,1,.73,1V7.12h-.28a.22.22,0,0,0,0-.09,8.09,8.09,0,0,0-4.14-5.28,10.39,10.39,0,0,0-3.89-1C89,.22,86.93,10.07,86.93,15.34c0,6.06,4.13,14.19,10.34,14.19,5,0,7.32-3.87,8.27-6.49.18-.65.37-1.29.53-1.92h.26ZM117,29.19V.69h-5.93V.93c.25,0,2.4.41,2.4,1.81V29.19a.91.91,0,0,1-.9.92h0v.26h5.33v-.26a.86.86,0,0,1-.88-.85s0,0,0-.06m205.1,0V.69h-5.91V.93c.24,0,2.42.41,2.42,1.81V29.19a.92.92,0,0,1-.93.92h0v.26H323v-.26a.86.86,0,0,1-.89-.84s0,0,0-.07M23.68,1V1.3c1.18,0,1.73.76,1.39,1.62L16.72,25,8.48,3.49c-.63-1.65.46-2.19,1.78-2.19V1H0V1.3A4.42,4.42,0,0,1,4.31,4.1L14.36,30.41h1L25.66,3.18A3.12,3.12,0,0,1,28.41,1.3V1H23.68ZM334.35,30.37c4.12,0,6.5-2.83,6.5-5.81,0-2.47-1.84-4-4.37-4.78l-3-1c-2.38-.74-3.63-1.48-3.63-3.23,0-2,1.51-3.23,4.12-3.23,2.78,0,3.81,2.17,4.59,4.6h.23V13.51A7.58,7.58,0,0,0,334,11.76c-3.38,0-5.88,2.32-5.88,5.38,0,3.61,2.36,4.41,4.05,5l3.18,1.08c1.38.49,2.66,1.11,2.66,3.2a3.13,3.13,0,0,1-3.35,3.39c-4.13,0-5.73-3.16-6.46-5.71H328v3.85a10.8,10.8,0,0,0,6.4,2.43m-83.73-2a3.1,3.1,0,0,0,2.61,1.77v.26h-8.31v-.26c.35,0,1.81-.36,1.31-1.73l-3.44-9.08h-9.9l-3.57,9.45c-.43,1.13.91,1.35,1.21,1.35v.26h-4v-.26a2.23,2.23,0,0,0,2.1-1.21v0L239.2.88h1l10.44,27.43v0m-12.78-22-4.38,11.58h8.77ZM267,11.83c-3.46,0-4.92,3-5.38,4.58h-.06V12.31h-4.34v.2a1,1,0,0,1,.88.79V29.4a.83.83,0,0,1-.88.7v.26h5.26v-.26a.79.79,0,0,1-.86-.6V19.87c0-4.53,2.56-7.22,4.26-7.22.93,0,1.43.65,1.43,1.74V16.3c0,.71.47,1.18,1.68,1.18,1,0,1.64-.46,1.64-1.18,0-3.18-1.09-4.47-3.63-4.47M46,29.36a5,5,0,0,1-3.07,1c-2.62,0-3.61-1.17-4.05-3.17v-.12l0,.23a8.25,8.25,0,0,1-6.28,3c-2.58,0-4.47-1.43-4.47-4.16,0-5.09,6.89-6.16,10.76-6h.12c0-1.44,0-2.82,0-3.69,0-2.63-.71-4.21-3.4-4.21-1.81,0-3.77.53-3.77,2.51v1.87a1.41,1.41,0,0,1-1.47,1.35h-.12c-1.81,0-1.78-.75-1.78-1.77,0-2.41,2.95-4.52,7.13-4.52,5,0,6.8,2.74,6.8,5.62v9.91c0,1.54.55,2,1.42,2.14a2.93,2.93,0,0,0,2.05-.31Zm-7.3-3.15a5.18,5.18,0,0,0,.26-1.38c0-.5,0-1.09,0-1.73,0-.07,0-.17,0-.24V20.8c-2.67,0-7.36.53-7.36,4a3.6,3.6,0,0,0,3.3,3.88h.46a3.76,3.76,0,0,0,3.31-2.53m28.2,3V17.3c0-3.79-2.49-5.47-6.1-5.47-.25,0-.51,0-.75,0l-.23,0a2.26,2.26,0,0,0-.51.08l-.22,0a2.09,2.09,0,0,0-.47.12.67.67,0,0,1-.19,0,4,4,0,0,0-.52.21h-.11a7.17,7.17,0,0,0-2,1.32h0a1.72,1.72,0,0,0-.36.37.07.07,0,0,0,0,.05,5.57,5.57,0,0,0-.85,1.12l-.06.06a3.17,3.17,0,0,1-.17.29V12.31H49.39v.2a.84.84,0,0,1,.85.79v16a.93.93,0,0,1-.85.81v.26h5.2v-.26a1,1,0,0,1-.84-.94V20c0-.32,0-.6,0-.9a2.27,2.27,0,0,0,.05-.31c0-.17.06-.37.08-.57s0-.15.07-.25a6.24,6.24,0,0,1,5.79-5.07h.1c2.55,0,3.23.78,3.4,3.39,0,.46.07,1,.07,1.47v11.4a1,1,0,0,1-.92.93v.26h5.27v-.26a.86.86,0,0,1-.83-.89v0M174.29.1a8.25,8.25,0,0,0-6,3.34c-1,1.35-1.83,3-1.83,6.78v1c-.18.85-1.07,2.1-2,2.1a3.61,3.61,0,0,0,2-.53V29.52a.93.93,0,0,1-.84.71v.23h5.16v-.23a.79.79,0,0,1-.8-.69V13.48h4V12.39h-4V6.72c0-4.17,1.87-6,4.12-6,1,0,2.26.42,2.26,1.88V4.68c0,.69.47,1.13,1.67,1.13s1.64-.44,1.64-1.13c0-2.47-.85-4.58-5.32-4.58M215.77,18c-1.72,0-3.86,2.08-5.13,3.8-.6.79-1.82,3-2.59,4.17,2.13,2.41,4.4,4.16,6.65,2.51l.15.26a6.24,6.24,0,0,1-8.73-.14h0s0,0,0,0-.15-.16-.22-.23a8.52,8.52,0,0,1-6,2.28c-6.5.28-8.21-3.85-8.21-6.5,0-3.62,3-5.27,4.77-5.89h0l.62-.15.42-.1-.55-.67a6,6,0,0,1-1.7-4,5.36,5.36,0,0,1,5.26-5.45h.35c3.34,0,5.34,1.91,5.34,4.81a3.86,3.86,0,0,1,0,.48c0,.09,0,.18,0,.26a.11.11,0,0,1,0,.06,5,5,0,0,1-.4,1.05l0,0a1.54,1.54,0,0,1-.14.26c-.12.16-.25.29-.38.44a7.61,7.61,0,0,1-3.89,2.17l1.42,1.84c1.83,2.36,3.2,4.15,5,6.27a6.58,6.58,0,0,0,.44-.66,18.18,18.18,0,0,0,2-7.21h5.64V18m-16.12-2.58c.44.53.81,1,1.2,1.49,1.78-.76,2.49-1.81,2.73-4.29,0-2-1.2-4.31-3.29-4.31l-.3,0c-1.77.28-3.62,3-.34,7.1m5.57,12.86c.11-.1.23-.19.36-.33l-.09-.13c-4.32-5.34-6.46-8-7.52-9.26a8,8,0,0,0-1.21.78,4.66,4.66,0,0,0-1.26,1.8l0,0h0a6.79,6.79,0,0,0-.28,2,8.64,8.64,0,0,0,2.21,4.7,5.56,5.56,0,0,0,6.72,1.1.33.33,0,0,0,.12-.06l.29-.17a5.5,5.5,0,0,0,.66-.46m-66-1.8c-1.07,1.81-3.22,4-7.76,4-4.25,0-8.33-3.67-8.33-9.21,0-4.16,2.68-8.12,6.45-9.14h0a6.48,6.48,0,0,1,1.86-.25l.66,0h.06a8.32,8.32,0,0,1,1.58.23h0a7.44,7.44,0,0,1,6.08,7.68v.16H127.17c0,.58.09,1.69.18,2.45.51,3.76,3.12,7.16,6.39,7.16a5,5,0,0,0,2.83-.91,6.43,6.43,0,0,0,1.59-2.15h1.05ZM128.82,14.62a14.41,14.41,0,0,0-1,4.43h8.47c0-2.82-1.13-6.55-4.28-6.55h-.49a3.74,3.74,0,0,0-2.74,2.11M159.64,26.5c-1.08,1.81-3.21,4-7.76,4-4.25,0-8.33-3.67-8.33-9.21,0-4.16,2.67-8.12,6.44-9.14h0a6.62,6.62,0,0,1,1.86-.25l.66,0h.06a8.36,8.36,0,0,1,1.57.23h0a7.45,7.45,0,0,1,6.07,7.68v.15H147.59c0,.58.08,1.69.18,2.45.51,3.76,3.13,7.16,6.41,7.16a4.9,4.9,0,0,0,2.82-.91,6.19,6.19,0,0,0,1.59-2.15h1.05ZM149.25,14.62a14.23,14.23,0,0,0-1,4.43h8.47c0-2.82-1.13-6.55-4.29-6.55H152a3.73,3.73,0,0,0-2.74,2.11M312.64,26.39c-1.06,1.79-3.19,4-7.76,4-4.25,0-8.31-3.66-8.31-9.2C296.57,17,299.25,13,303,12h0a7.52,7.52,0,0,1,1.84-.26c.22,0,.45,0,.66,0h.05a8.76,8.76,0,0,1,1.58.22h0a7.44,7.44,0,0,1,6.07,7.66v.17H300.62a20.38,20.38,0,0,0,.18,2.47c.5,3.77,3.12,7.15,6.39,7.15a4.88,4.88,0,0,0,2.83-.91,7,7,0,0,0,1.58-2.13h1ZM302.26,14.5a14.85,14.85,0,0,0-1,4.44h8.48c0-2.83-1.13-6.56-4.3-6.56H305a3.68,3.68,0,0,0-2.73,2.11M290,14.76A10.13,10.13,0,0,1,292,21c0,5.46-3.72,9.39-8.43,9.35a2.85,2.85,0,0,1-.49,0,7,7,0,0,1-1.88-.42,3.7,3.7,0,0,1-1.94-1.73V41.41h-5.94v-.25c.25,0,2.4-.43,2.4-1.81v-26a.66.66,0,0,0-.67-.64H275v-.25h4.24v2.15a7.45,7.45,0,0,1,5.68-2.4A6.8,6.8,0,0,1,290,14.76m-7.43,14.65c3.88,0,5.82-4.46,5.82-8.55a9.32,9.32,0,0,0-1.78-5.8,4.24,4.24,0,0,0-3.69-1.61c-1.3,0-3.67,1.42-3.67,3.47a4,4,0,0,0,0,.56l0,8.42a8.06,8.06,0,0,0,.25,1.09,3.24,3.24,0,0,0,2,2.22,2.4,2.4,0,0,0,1,.2"/></g></g></svg>