<svg xmlns="http://www.w3.org/2000/svg" viewBox="0 0 103.22 103.48"><defs><style>.cls-1{fill:#57534a;}.cls-2{fill:#ded5cc;}.cls-3{fill:#3e4148;}.cls-4{fill:#fff;}.cls-5{fill:#b6a696;}.cls-6{fill:#f8b134;}</style></defs><g id="Layer_2" data-name="Layer 2"><g id="Layer_2-2" data-name="Layer 2"><rect class="cls-1" x="66.34" y="62.49" width="19.5" height="31.76"/><rect class="cls-2" x="67.69" y="63.84" width="16.65" height="29.05"/><path class="cls-3" d="M90.34,44.91c-1.59,3.56-3.28,4.54-4.79,4.33l.11-.74a1.51,1.51,0,0,0,.3,0c.9,0,1.94-1.2,2.88-3.2V36.44h3v8.8c.88,1.41,2.49,3.21,3.68,3.21h.08c.84-.05,1.78-1.18,2.61-3.09V28.28H92.68V26h7V44.91C95.76,54.57,90.34,44.91,90.34,44.91Z"/><path class="cls-4" d="M64.4,19.31A2.7,2.7,0,0,1,64,20.7a4.35,4.35,0,0,1-1,1.18.39.39,0,0,1-.23.11.19.19,0,0,1-.15-.08l-.44-.31a2.13,2.13,0,0,1-.35-.27,3.5,3.5,0,0,0,.36-.41,1.48,1.48,0,0,0,.36-.94,1.21,1.21,0,0,0-.53-.82,4.38,4.38,0,0,1-.53-.47c0-.06.12-.17.35-.32l.47-.29.44-.33a1.91,1.91,0,0,1,.41-.27.51.51,0,0,1,.21.08A2,2,0,0,1,64.4,19.31Z"/><path class="cls-4" d="M51.73,10.23q0-.66-.06-2c-.05-.88-.07-1.54-.07-2,0-.08.09-.12.28-.12s.61,0,1-.05L53.46,6A3.69,3.69,0,0,1,54,6c.06,0,.15.07.27.2L57,9.11c.24.27.59.66,1.07,1.17a.48.48,0,0,0,.31.18q.09,0,.09-.45c0-.41,0-1-.08-1.82s-.08-1.42-.08-1.83q0-.21.15-.21l1.29,0,1.29,0c.09,0,.14.06.14.18,0,.44,0,1.09-.07,2s-.07,1.54-.07,2V14q0,.15-.21.15l-.51,0h-.52l-.56,0-.55,0a.47.47,0,0,1-.31-.19L56,11.48,54.52,9.9l-.1-.07a.15.15,0,0,0-.06.13c0,.45,0,1.12,0,2s.05,1.56.05,2c0,.14-.06.2-.19.2H51.79c-.14,0-.2-.06-.2-.17,0-.42,0-1.05.07-1.88S51.73,10.65,51.73,10.23Z"/><path class="cls-5" d="M53.6,21.64a.19.19,0,0,1,.11.07c.67.69,1.17,1.22,1.5,1.57l2.31,2.48a.47.47,0,0,0,.3.19l.56,0,.56,0v0H53.45V26c.12,0,.19-.07.19-.21,0-.44,0-1.11,0-2s0-1.56,0-2A.12.12,0,0,1,53.6,21.64Z"/><path class="cls-4" d="M53.71,21.71a.19.19,0,0,0-.11-.07.12.12,0,0,0-.05.12c0,.45,0,1.12,0,2s0,1.56,0,2c0,.14-.07.21-.19.21H51q-.21,0-.21-.18c0-.42,0-1,.08-1.88s.07-1.47.07-1.89,0-1.1-.07-2-.06-1.54-.06-2c0-.09.09-.13.27-.13s.62,0,1-.05l.57-.07a3.26,3.26,0,0,1,.56,0c.06,0,.15.06.26.19l2.66,3,1.08,1.16a.48.48,0,0,0,.31.18q.09,0,.09-.45c0-.4,0-1-.08-1.82s-.08-1.42-.08-1.83q0-.21.15-.21l1.29,0,1.29,0c.09,0,.13.06.13.18,0,.44,0,1.1-.07,2s-.06,1.54-.06,2v3.8c0,.1-.07.16-.21.16h-1l-.56,0-.56,0a.47.47,0,0,1-.3-.19l-2.31-2.48C54.88,22.93,54.38,22.4,53.71,21.71Z"/><path class="cls-3" d="M38.28,83.23H52.11V63.84H38.28Zm16.83,3H32.39v-3h2.89V63.84H23.61v-3h31.5Z"/><path class="cls-5" d="M47,8.5a2,2,0,0,1,.72,1.59,2.18,2.18,0,0,1-.66,1.65,2.73,2.73,0,0,1-1.94.66Q44,12.4,44,12.16c0-.23,0-.57,0-1s0-.79,0-1,0-.57,0-1,0-.8,0-1,.36-.23,1.09-.23A2.81,2.81,0,0,1,47,8.5Z"/><path class="cls-5" d="M62.53,21.91a.19.19,0,0,0,.15.08.39.39,0,0,0,.23-.11,4.35,4.35,0,0,0,1-1.18,2.7,2.7,0,0,0,.45-1.39,2,2,0,0,0-1.12-1.75.51.51,0,0,0-.21-.08,1.91,1.91,0,0,0-.41.27l-.44.33-.47.29c-.23.15-.35.26-.35.32a4.38,4.38,0,0,0,.53.47,1.21,1.21,0,0,1,.53.82,1.48,1.48,0,0,1-.36.94,3.5,3.5,0,0,1-.36.41,2.13,2.13,0,0,0,.35.27ZM51.67,8.25q.06,1.32.06,2c0,.42,0,1-.07,1.89s-.07,1.46-.07,1.88c0,.11.06.17.2.17h2.47c.13,0,.19-.06.19-.2,0-.44,0-1.11-.05-2s0-1.56,0-2a.15.15,0,0,1,.06-.13l.1.07L56,11.48,58.33,14a.47.47,0,0,0,.31.19l.55,0,.56,0h.52l.51,0q.21,0,.21-.15v-3.8c0-.44,0-1.1.07-2s.07-1.53.07-2c0-.12-.05-.18-.14-.18l-1.29,0-1.29,0q-.15,0-.15.21c0,.41,0,1,.08,1.83s.08,1.41.08,1.82,0,.45-.09.45a.48.48,0,0,1-.31-.18c-.48-.51-.83-.9-1.07-1.17L54.29,6.17C54.17,6,54.08,6,54,6a3.69,3.69,0,0,0-.56.06l-.56.07c-.41,0-.75.05-1,.05s-.28,0-.28.12C51.6,6.71,51.62,7.37,51.67,8.25ZM50,8.27a3.8,3.8,0,0,0-1.42-1.45,6.33,6.33,0,0,0-2.64-.69c-.44,0-1.38,0-2.85,0-.77,0-1.32,0-1.66,0q-.21,0-.21.15,0,.66.06,2t.06,2c0,.42,0,1.06-.06,1.91s-.06,1.48-.06,1.9c0,.09.07.13.21.13l1.05,0,1,0h2.28A4.92,4.92,0,0,0,49.13,13a3.87,3.87,0,0,0,1.35-2.94A3.7,3.7,0,0,0,50,8.27ZM42.61,26H18V6.59a3.73,3.73,0,0,1,3.73-3.74H82.11a3.73,3.73,0,0,1,3.73,3.74V26H58.94v0h1c.14,0,.21-.06.21-.16V22q0-.66.06-2c0-.87.07-1.53.07-2,0-.12,0-.18-.13-.18l-1.29,0L57.6,18q-.15,0-.15.21c0,.41,0,1,.08,1.83s.08,1.42.08,1.82,0,.45-.09.45a.48.48,0,0,1-.31-.18l-1.08-1.16-2.66-3c-.11-.13-.2-.19-.26-.19a3.26,3.26,0,0,0-.56,0l-.57.07c-.4,0-.74.05-1,.05s-.27,0-.27.13c0,.43,0,1.09.06,2s.07,1.54.07,2,0,1-.07,1.89-.08,1.46-.08,1.88q0,.18.21.18h2.47V26H48.56A7.61,7.61,0,0,0,49.69,26a.32.32,0,0,0,.26-.33,7.41,7.41,0,0,0-1.31-2.06l-1.32-1.73c0-.05.08-.1.24-.18a4.89,4.89,0,0,0,2-2.72,3.62,3.62,0,0,0,.3-.93c0-.08-.06-.13-.17-.13h-.57l-.57,0-.56,0-.56,0a.34.34,0,0,0-.32.14q-.53,1.09-.75,1.65a3,3,0,0,1-.71,1,2.05,2.05,0,0,1-1.32.38c-.22,0-.33-.17-.33-.5s0-.71,0-1.29.05-1,.05-1.29c0-.06,0-.1-.12-.1l-.67,0-.67,0-.67,0-.67,0c-.1,0-.15,0-.15.13,0,.44,0,1.11.07,2s.07,1.56.07,2,0,1-.07,1.89-.08,1.46-.08,1.88q0,.14.21.18a10.82,10.82,0,0,0,1.23,0Z"/><path class="cls-4" d="M44.36,21.07a2.05,2.05,0,0,0,1.32-.38,3,3,0,0,0,.71-1q.22-.55.75-1.65a.34.34,0,0,1,.32-.14l.56,0,.56,0,.57,0h.57c.11,0,.17.05.17.13a3.62,3.62,0,0,1-.3.93,4.89,4.89,0,0,1-2,2.72c-.16.08-.24.13-.24.18l1.32,1.73A7.41,7.41,0,0,1,50,25.65a.32.32,0,0,1-.26.33,7.61,7.61,0,0,1-1.13.05h-.27c-.45,0-.78,0-1-.05a1,1,0,0,1-.25-.06.53.53,0,0,1-.16-.17l-1-1.54a12.67,12.67,0,0,0-1-1.38c-.52.15-.77.26-.77.33,0,.29,0,.72,0,1.3s0,1,0,1.31A.19.19,0,0,1,44,26c-.25,0-.7,0-1.34,0a10.82,10.82,0,0,1-1.23,0q-.21,0-.21-.18c0-.42,0-1,.08-1.88s.07-1.47.07-1.89,0-1.11-.07-2-.07-1.57-.07-2c0-.09,0-.13.15-.13l.67,0,.67,0,.67,0,.67,0c.08,0,.12,0,.12.1,0,.29,0,.72-.05,1.29s0,1,0,1.29S44.14,21.07,44.36,21.07Z"/><path class="cls-4" d="M45.79,14.2H43.51l-1,0-1.05,0c-.14,0-.21,0-.21-.13,0-.42,0-1.06.06-1.9s.06-1.49.06-1.91,0-1.1-.06-2-.06-1.54-.06-2q0-.12.21-.15c.34,0,.89,0,1.66,0,1.47,0,2.41,0,2.85,0a6.33,6.33,0,0,1,2.64.69A3.8,3.8,0,0,1,50,8.27a3.7,3.7,0,0,1,.5,1.82A3.87,3.87,0,0,1,49.13,13,4.92,4.92,0,0,1,45.79,14.2ZM44,10.14c0,.22,0,.56,0,1s0,.78,0,1,.38.24,1.14.24a2.73,2.73,0,0,0,1.94-.66,2.18,2.18,0,0,0,.66-1.65A2,2,0,0,0,47,8.5a2.81,2.81,0,0,0-1.93-.64c-.73,0-1.09.08-1.09.23s0,.57,0,1S44,9.91,44,10.14Z"/><path class="cls-5" d="M44,26a.19.19,0,0,0,.19-.21c0-.29,0-.73,0-1.31s0-1,0-1.3c0-.07.25-.18.77-.33a12.67,12.67,0,0,1,1,1.38l1,1.54a.53.53,0,0,0,.16.17,1,1,0,0,0,.25.06c.23,0,.56,0,1,.05H42.61C43.25,26,43.7,26,44,26Z"/><path class="cls-3" d="M24.23,45.27c.67,1.2,2.16,3.18,3.47,3.18h0c1,0,2.11-1.23,3.18-3.44V36.44h3v9c.86,1.24,2.48,3,3.81,2.94.94-.05,1.95-1.14,2.85-3.06V36.44h3v8.83a10.31,10.31,0,0,0,1.47,2,3.09,3.09,0,0,0,2,1.09c1,0,2.05-1.08,3.11-3V36.44h3v8.77c.71,1,2.38,3,3.9,3,1.2-.06,2.22-1.54,2.91-2.89V36.44h3v8.83c.6,1,2.08,3,3.58,3h0c1.06,0,2.28-1.09,3.45-3.08v-8.8h3v8.84c.67,1.19,2.15,3.17,3.42,3.17h0c.89,0,1.95-1.16,2.93-3.15V36.44h3v8.83c.67,1.16,2.09,3,3.33,3.23l-.11.74c-2.64-.35-4.72-4.33-4.72-4.33-4.54,9.66-9.37,0-9.37,0-5.26,9.37-10.06,0-10.06,0-4.36,9.07-9.81,0-9.81,0-4.81,9.37-9.54,0-9.54,0-4.24,9.51-9.81,0-9.81,0-4.68,9.66-9.51,0-9.51,0-1.38,2.62-2.82,3.65-4.16,3.81L18.46,48c1.13-.2,2.1-1.5,2.77-2.71V36.44h3Z"/><path class="cls-5" d="M18,26H85.84v.31a3.73,3.73,0,0,1-3.73,3.73H21.74A3.73,3.73,0,0,1,18,26.34Z"/><path class="cls-1" d="M21.74,30.07H82.11a3.73,3.73,0,0,0,3.73-3.73V26h3V29.2a3.73,3.73,0,0,1-3.73,3.73H18.78a3.73,3.73,0,0,1-3.73-3.73V26h3v.31A3.73,3.73,0,0,0,21.74,30.07Z"/><path class="cls-1" d="M18.78,0H85.07A3.73,3.73,0,0,1,88.8,3.73V26h-3V6.59a3.73,3.73,0,0,0-3.73-3.74H21.74A3.73,3.73,0,0,0,18,6.59V26h-3V3.73A3.73,3.73,0,0,1,18.78,0Z"/><path class="cls-6" d="M11.57,45c-1.06,2-2.19,3.17-3.18,3.18h0c-1.31,0-2.78-1.81-3.47-2.93v-17h5.82V26h4.32V29.2a3.73,3.73,0,0,0,3.73,3.73H85.07A3.73,3.73,0,0,0,88.8,29.2V26h3.88v2.25h5.53V45.36c-.83,1.91-1.77,3-2.61,3.09h-.08c-1.19,0-2.8-1.8-3.68-3.21v-8.8h-3v8.88c-.94,2-2,3.17-2.88,3.2a1.51,1.51,0,0,1-.3,0c-1.24-.23-2.66-2.07-3.33-3.23V36.44h-3V45.3c-1,2-2,3.14-2.93,3.15h0c-1.27,0-2.75-2-3.42-3.17V36.44H70v8.8c-1.17,2-2.39,3.08-3.45,3.08h0c-1.5,0-3-2-3.58-3V36.44h-3V45.3c-.69,1.35-1.71,2.83-2.91,2.89-1.52,0-3.19-1.93-3.9-3V36.44h-3v8.84c-1.06,2-2.16,3-3.11,3a3.09,3.09,0,0,1-2-1.09,10.31,10.31,0,0,1-1.47-2V36.44h-3v8.88c-.9,1.92-1.91,3-2.85,3.06-1.33.07-3-1.7-3.81-2.94v-9h-3V45c-1.07,2.21-2.2,3.43-3.18,3.44h0c-1.31,0-2.8-2-3.47-3.18V36.44h-3v8.83c-.67,1.21-1.64,2.51-2.77,2.71l-.23,0c-1.38,0-2.89-1.58-3.66-2.6v-9h-3Z"/><path class="cls-3" d="M18.57,48.72c-3.08.38-5.64-3.81-5.64-3.81-4.69,9.07-9.52,0-9.52,0V26h7.32v2.25H4.91v17c.69,1.12,2.16,2.93,3.47,2.93h0c1,0,2.12-1.14,3.18-3.18V36.44h3v9c.77,1,2.28,2.64,3.66,2.6l.23,0Z"/><path class="cls-3" d="M67.69,92.89H84.34v-29H67.69Zm-54.76-48s2.56,4.19,5.64,3.81c1.34-.16,2.78-1.19,4.16-3.81,0,0,4.83,9.66,9.51,0,0,0,5.57,9.51,9.81,0,0,0,4.73,9.37,9.54,0,0,0,5.45,9.07,9.81,0,0,0,4.8,9.37,10.06,0,0,0,4.83,9.66,9.37,0,0,0,2.08,4,4.72,4.33,1.51.21,3.2-.77,4.79-4.33,0,0,5.42,9.66,9.37,0V26h-7v-.75h8.53V46l-.11.28c-1.17,2.86-2.66,4.55-4.43,5.05V95.89H29.46v-3H64.69v-32H87.34V92.89h6.33V51a9,9,0,0,1-3.16-2.53c-1.29,2-2.78,3-4.46,3h-.13c-2.11,0-3.85-1.58-5-3q-2,2.9-4.49,2.93h-.06c-2.13,0-3.84-1.61-4.94-3-1.53,2-3.21,3-5,2.91a6.87,6.87,0,0,1-4.94-2.85,5.75,5.75,0,0,1-4.35,2.72c-2.27.12-4.19-1.48-5.41-2.85-1.41,2-3,3-4.74,3h0c-2.05,0-3.7-1.44-4.79-2.77a5.66,5.66,0,0,1-4.31,2.83c-2.28.13-4.23-1.53-5.47-3-1.38,2-2.94,3-4.67,3h0c-2.15,0-3.86-1.6-5-3A5.84,5.84,0,0,1,18.33,51a7.18,7.18,0,0,1-5.26-2.69,6.54,6.54,0,0,1-3.64,2.76V60h-3V50.76c-2.51-1.1-4.13-4-4.34-4.4L1.91,46V25.28h8.82V26H3.41V44.91S8.24,54,12.93,44.91Z"/><path class="cls-3" d="M3.37,87.71c1.06,3,4.49,4.93,10.18,5.72V82h3V93.44c2.64-.41,7.87-1.72,9.51-5.75,1.43-3.5.61-10.34-11-23.17C10.14,69.6,1,81,3.37,87.71Zm-2.83,1C-3.16,78.22,13.3,62,14,61.27l1.1-1.08,1,1.13c11,11.84,15.31,21.09,12.69,27.51-2.33,5.7-9.26,7.24-12.29,7.65v2h86.67v5H.19v-5H13.55v-2C6.41,95.53,2,92.93.54,88.71Z"/><rect class="cls-3" x="69.34" y="78.15" width="2.05" height="2.05"/></g></g></svg>