<svg width="250" height="53" viewBox="0 0 250 53" fill="none" xmlns="http://www.w3.org/2000/svg">
<path d="M21.0208 33.3607H8.63954V52.6865H0V0H21.0208C26.3706 0 30.3015 1.41862 32.8134 4.24422C35.3254 7.06983 36.5762 10.2559 36.5762 16.1746C36.5762 28.4188 31.3945 33.3607 21.0208 33.3607Z" fill="white" fill-opacity="0.3"/>
<path d="M14.5149 52.9882H9.79572V34.5811H14.5149V52.9882ZM10.3317 52.3952H13.9789V35.1741H10.3317V52.3952Z" fill="white" fill-opacity="0.3"/>
<path d="M25.5508 52.9882H21.4097L19.6965 46.6277V52.9882H15.6605V34.5811H19.6229L21.5043 41.023V34.5811H25.5403V52.9882H25.5508ZM21.8091 52.3952H25.0147V35.1741H22.0508V44.7788L19.2445 35.1741H16.207V52.3952H19.171V42.5579L21.8196 52.3952H21.8091Z" fill="white" fill-opacity="0.3"/>
<path d="M34.4951 52.9882H26.6964V34.5811H34.2113V38.7439H31.4156V41.5346H34.0327V45.5114H31.4156V48.837H34.4846V52.9998L34.4951 52.9882ZM27.2324 52.3952H33.9591V49.4184H30.8901V44.9067H33.5071V42.1044H30.8901V38.1276H33.6858V35.1508H27.243V52.3719L27.2324 52.3952Z" fill="white" fill-opacity="0.3"/>
<path d="M14.6095 8.10449V25.6511H10.4894V8.10449H14.6095Z" fill="black" fill-opacity="0.6"/>
<path d="M24.5733 8.10449V11.6161H22.1244V25.6511H18.0043V11.6161H15.5659V8.10449H24.5733Z" fill="black" fill-opacity="0.6"/>
<path d="M39.9708 44.8028H51.816V36.9074H57.3024V44.8028H69.1477V49.768H39.9708V44.8028ZM57.828 16.7212V21.8143C57.828 23.7678 57.5967 25.605 57.1238 27.3143L69.0741 35.0469L66.3834 39.5237L54.885 32.1167C52.3415 35.7213 48.1794 38.326 42.3777 39.9307L40.3176 35.2446C44.5113 34.2446 47.5593 32.6283 49.4617 30.419C51.3641 28.2097 52.31 25.3259 52.31 21.7677V16.7212H57.828Z" fill="white" fill-opacity="0.3"/>
<path d="M76.6626 16.5591V44.3965H89.3171V49.3617H71.1762V16.5591H76.6626ZM98.1564 28.4894H101.194V33.4546H98.1564V49.7803H92.6699V15.7451H98.1564V28.4894Z" fill="white" fill-opacity="0.3"/>
<path d="M101.478 38.9888H130.655V43.954H118.809V51.0354H113.323V43.954H101.478V38.9888ZM103.191 16.7212H128.941V35.0353H103.191V16.7212ZM108.677 30.0701H123.455V21.6863H108.677V30.0701Z" fill="white" fill-opacity="0.3"/>
<path d="M132.399 16.3605H151.444V19.6977H143.509V23.0699C143.509 23.942 143.414 24.8024 143.225 25.6745L151.822 31.9885L149.973 34.8025L141.869 28.8141C140.986 30.1746 139.809 31.3257 138.338 32.2792C136.866 33.2327 135.163 34.0234 133.24 34.6746L131.706 31.7095C132.893 31.3606 133.986 30.9304 134.985 30.4304C135.983 29.9304 136.856 29.3374 137.602 28.6629C138.348 27.9885 138.926 27.1862 139.347 26.2559C139.767 25.3373 139.977 24.2675 139.977 23.0466V19.7094H132.389V16.3721L132.399 16.3605ZM146.935 51.198C144.907 51.198 143.078 51.0468 141.428 50.7561C139.778 50.4654 138.39 50.0119 137.255 49.4073C136.109 48.8143 135.237 48.0584 134.617 47.1515C133.997 46.2445 133.692 45.1747 133.692 43.9538C133.692 42.7328 133.997 41.663 134.617 40.7561C135.237 39.8491 136.109 39.1049 137.255 38.5235C138.401 37.9421 139.788 37.5002 141.428 37.1979C143.067 36.8956 144.907 36.756 146.935 36.756C148.964 36.756 150.792 36.9072 152.443 37.1979C154.082 37.5002 155.48 37.9421 156.615 38.5235C157.761 39.1049 158.633 39.8491 159.253 40.7561C159.873 41.663 160.178 42.7328 160.178 43.9538C160.178 45.1747 159.873 46.2445 159.253 47.1515C158.633 48.0584 157.761 48.8143 156.615 49.4073C155.47 50.0003 154.082 50.4538 152.443 50.7561C150.803 51.0585 148.964 51.198 146.935 51.198ZM146.935 47.8608C148.428 47.8608 149.773 47.7794 150.971 47.6166C152.169 47.4538 153.199 47.2096 154.051 46.884C154.902 46.5584 155.554 46.1514 156.006 45.6631C156.458 45.1747 156.689 44.6049 156.689 43.9538C156.689 43.3026 156.458 42.7444 156.006 42.2677C155.554 41.7909 154.902 41.3956 154.051 41.07C153.199 40.7444 152.18 40.5002 150.971 40.3374C149.762 40.1747 148.428 40.0933 146.935 40.0933C145.443 40.0933 144.097 40.1747 142.899 40.3374C141.701 40.5002 140.671 40.7444 139.82 41.07C138.968 41.3956 138.317 41.7909 137.865 42.2677C137.413 42.7444 137.181 43.3026 137.181 43.9538C137.181 44.6049 137.413 45.1747 137.865 45.6631C138.317 46.1514 138.968 46.5584 139.82 46.884C140.671 47.2096 141.69 47.4538 142.899 47.6166C144.097 47.7794 145.443 47.8608 146.935 47.8608ZM159.485 15.9535V36.1397H155.985V25.4303L149.941 27.0583V23.721L155.985 22.0931V15.9419H159.485V15.9535Z" fill="white" fill-opacity="0.3"/>
<path d="M162.112 46.2334H174.409V39.1171H163.815V16.7681H167.315V24.8612H185.035V16.7681H188.535V39.1171H177.909V46.2334H190.248V49.5707H162.112V46.2334ZM185.035 28.21H167.315V35.7799H185.035V28.21Z" fill="white" fill-opacity="0.3"/>
<path d="M206.561 49.1631V20.1047H192.613V16.7675H210.05V49.1631H206.55H206.561ZM219.247 49.5701H215.747V15.9419H219.247V49.5584V49.5701Z" fill="white" fill-opacity="0.3"/>
<path d="M221.864 30.0358H250V33.373H237.661V36.2684H248.287V45.0243H227.077V47.0592H248.634V50.3964H223.577V41.687H244.787V39.6056H223.577V36.2684H234.161V33.373H221.864V30.0358ZM238.218 15.5473V16.2333C238.218 17.5124 237.987 18.7217 237.514 19.8613L248.592 24.2101L247.162 27.3846L235.454 22.7799C233.194 24.9194 229.463 26.4427 224.271 27.3381L222.946 24.1636C225.069 23.8148 226.877 23.3729 228.38 22.8613C229.883 22.3497 231.102 21.745 232.027 21.0706C232.963 20.3962 233.646 19.6403 234.077 18.838C234.508 18.024 234.728 17.1403 234.728 16.1868V15.5356H238.228L238.218 15.5473Z" fill="white" fill-opacity="0.3"/>
<path d="M51.2172 7.43084C50.8178 7.86108 50.1977 8.08201 49.3674 8.08201H48.001V11.3611H47.0761V3.51221H49.3674C50.1662 3.51221 50.7758 3.72151 51.1962 4.15175C51.6166 4.58198 51.8268 5.1285 51.8268 5.80292C51.8268 6.47735 51.6271 7.00061 51.2172 7.43084ZM50.513 6.86107C50.7547 6.61688 50.8809 6.25642 50.8809 5.80292C50.8809 4.8378 50.3764 4.34942 49.3779 4.34942H48.0115V7.23317H49.3779C49.8929 7.23317 50.2713 7.10526 50.513 6.86107Z" fill="white" fill-opacity="0.3"/>
<path d="M52.3945 3.97796C52.2684 3.83842 52.2158 3.67563 52.2158 3.47795C52.2158 3.28028 52.2789 3.11749 52.3945 2.97795C52.5101 2.83841 52.6678 2.78027 52.8464 2.78027C53.0251 2.78027 53.1618 2.85004 53.2774 2.97795C53.393 3.11749 53.456 3.28028 53.456 3.47795C53.456 3.67563 53.393 3.83842 53.2774 3.97796C53.1618 4.11749 53.0146 4.17563 52.8464 4.17563C52.6783 4.17563 52.5206 4.10587 52.3945 3.97796ZM53.2879 5.18727V11.3617H52.363V5.18727H53.2879Z" fill="white" fill-opacity="0.3"/>
<path d="M58.627 5.75606C59.0474 6.20955 59.2576 6.86072 59.2576 7.72119V11.3608H58.3432V7.87235C58.3432 7.25607 58.2066 6.79095 57.9228 6.45374C57.6495 6.12815 57.2607 5.96536 56.7877 5.96536C56.3147 5.96536 55.9153 6.13978 55.621 6.47699C55.3373 6.81421 55.1901 7.30258 55.1901 7.95375V11.3724H54.2652V5.19791H55.1901V6.08164C55.3688 5.76769 55.621 5.5235 55.9364 5.34908C56.2517 5.17466 56.5985 5.09326 56.9769 5.09326C57.6601 5.09326 58.2066 5.32582 58.627 5.77931V5.75606Z" fill="white" fill-opacity="0.3"/>
<path d="M65.2172 8.65152H60.7608C60.7923 9.25618 60.9815 9.73293 61.3283 10.0818C61.6752 10.419 62.0851 10.5934 62.5791 10.5934C62.9784 10.5934 63.3148 10.4887 63.5775 10.2794C63.8403 10.0701 64.0295 9.79107 64.1451 9.45385H65.1436C64.9964 10.0469 64.6916 10.5353 64.2502 10.9074C63.7983 11.2794 63.2412 11.4655 62.5791 11.4655C62.0535 11.4655 61.5806 11.3376 61.1601 11.0701C60.7397 10.8027 60.4139 10.4306 60.1722 9.95386C59.9304 9.46548 59.8148 8.90734 59.8148 8.2678C59.8148 7.62826 59.9304 7.07011 60.1617 6.59336C60.3929 6.11662 60.7187 5.74452 61.1391 5.4887C61.5595 5.23289 62.0325 5.10498 62.5791 5.10498C63.1256 5.10498 63.5775 5.23289 63.9874 5.4887C64.3974 5.74452 64.7127 6.09336 64.9334 6.54685C65.1541 6.98872 65.2592 7.50035 65.2592 8.05849C65.2592 8.25617 65.2592 8.46547 65.2277 8.67478L65.2172 8.65152ZM64.061 6.8143C63.9034 6.53523 63.6932 6.31429 63.4199 6.17476C63.1571 6.02359 62.8523 5.95382 62.5265 5.95382C62.0535 5.95382 61.6541 6.11662 61.3283 6.45383C61.0025 6.79104 60.8133 7.24453 60.7608 7.82593H64.2817C64.2817 7.43058 64.1977 7.105 64.0505 6.8143H64.061Z" fill="white" fill-opacity="0.3"/>
<path d="M68.8957 3.51221V11.3611H67.9708V3.51221H68.8957Z" fill="white" fill-opacity="0.3"/>
<path d="M74.2349 5.75606C74.6554 6.20955 74.8656 6.86072 74.8656 7.72119V11.3608H73.9512V7.87235C73.9512 7.25607 73.8145 6.79095 73.5308 6.45374C73.2575 6.12815 72.8686 5.96536 72.3956 5.96536C71.9227 5.96536 71.5233 6.13978 71.229 6.47699C70.9452 6.81421 70.7981 7.30258 70.7981 7.95375V11.3724H69.8731V5.19791H70.7981V6.08164C70.9767 5.76769 71.229 5.5235 71.5443 5.34908C71.8596 5.17466 72.2064 5.09326 72.5848 5.09326C73.268 5.09326 73.8145 5.32582 74.2349 5.77931V5.75606Z" fill="white" fill-opacity="0.3"/>
<path d="M78.0397 6.03544H76.8731V11.3611H75.9482V6.03544H75.2229V5.1866H75.9482V4.74474C75.9482 4.05868 76.1058 3.54705 76.4316 3.2331C76.7575 2.91914 77.2725 2.75635 77.9872 2.75635V3.61682C77.5773 3.61682 77.2935 3.70984 77.1253 3.88426C76.9571 4.05868 76.8731 4.34938 76.8731 4.75636V5.19823H78.0397V6.04707V6.03544Z" fill="white" fill-opacity="0.3"/>
<path d="M79.5217 11.0701C79.1013 10.8026 78.765 10.4305 78.5232 9.95377C78.2815 9.46539 78.1659 8.90725 78.1659 8.26771C78.1659 7.62817 78.292 7.08165 78.5338 6.59327C78.786 6.1049 79.1223 5.7328 79.5428 5.47699C79.9737 5.22117 80.4466 5.09326 80.9827 5.09326C81.5187 5.09326 81.9917 5.22117 82.4226 5.47699C82.8535 5.7328 83.1899 6.1049 83.4316 6.58165C83.6838 7.05839 83.7995 7.61654 83.7995 8.25608C83.7995 8.89562 83.6733 9.45376 83.4211 9.94214C83.1688 10.4305 82.822 10.8026 82.3911 11.0584C81.9601 11.3259 81.4767 11.4538 80.9406 11.4538C80.4046 11.4538 79.9422 11.3259 79.5217 11.0584V11.0701ZM81.8761 10.3026C82.1704 10.1282 82.4016 9.87237 82.5803 9.52353C82.7589 9.17469 82.8535 8.75608 82.8535 8.26771C82.8535 7.77933 82.7694 7.34909 82.5908 7.01188C82.4121 6.67467 82.1809 6.40723 81.8971 6.24443C81.6133 6.07001 81.3085 5.98862 80.9722 5.98862C80.6358 5.98862 80.3205 6.07001 80.0367 6.24443C79.753 6.41885 79.5322 6.67467 79.3641 7.01188C79.1959 7.36072 79.1118 7.77933 79.1118 8.26771C79.1118 8.75608 79.1959 9.19795 79.3641 9.53516C79.5322 9.884 79.753 10.1398 80.0262 10.3026C80.2995 10.477 80.6148 10.5584 80.9406 10.5584C81.2665 10.5584 81.5818 10.477 81.8761 10.3026Z" fill="white" fill-opacity="0.3"/>
<path d="M86.0381 5.37322C86.3429 5.17554 86.7108 5.08252 87.1417 5.08252V6.14067H86.9C85.8594 6.14067 85.3444 6.76858 85.3444 8.01278V11.3733H84.4195V5.1988H85.3444V6.19881C85.5126 5.84997 85.7438 5.5709 86.0381 5.37322Z" fill="white" fill-opacity="0.3"/>
<path d="M95.466 5.37322C95.8023 5.5709 96.0756 5.87322 96.2753 6.26858C96.475 6.66393 96.5696 7.1523 96.5696 7.72208V11.3616H95.6552V7.87324C95.6552 7.25696 95.5185 6.79184 95.2453 6.45462C94.972 6.12904 94.5936 5.96625 94.1312 5.96625C93.6687 5.96625 93.2693 6.14067 92.9855 6.47788C92.7017 6.81509 92.5546 7.3151 92.5546 7.95464V11.3616H91.6402V7.87324C91.6402 7.25696 91.5036 6.79184 91.2303 6.45462C90.957 6.12904 90.5786 5.96625 90.1162 5.96625C89.6537 5.96625 89.2543 6.14067 88.9706 6.47788C88.6868 6.81509 88.5396 7.3151 88.5396 7.95464V11.3616H87.6147V5.18717H88.5396V6.08253C88.7183 5.75694 88.9706 5.51276 89.2754 5.33834C89.5802 5.16392 89.927 5.08252 90.2949 5.08252C90.7678 5.08252 91.1777 5.1988 91.5351 5.43136C91.8924 5.66392 92.1657 6.00113 92.3339 6.45462C92.4915 6.02439 92.7438 5.67555 93.1116 5.44299C93.469 5.1988 93.8684 5.08252 94.3098 5.08252C94.7513 5.08252 95.1296 5.18717 95.466 5.38485V5.37322Z" fill="white" fill-opacity="0.3"/>
<path d="M97.4734 6.59327C97.7047 6.11653 98.02 5.74443 98.4299 5.48861C98.8293 5.22117 99.2812 5.09326 99.7752 5.09326C100.269 5.09326 100.69 5.20954 101.047 5.4421C101.404 5.67466 101.678 5.96536 101.856 6.32583V5.19791H102.792V11.3724H101.856V10.2212C101.678 10.5817 101.404 10.884 101.036 11.1166C100.669 11.3491 100.248 11.477 99.7647 11.477C99.2812 11.477 98.8188 11.3375 98.4194 11.0701C98.02 10.8026 97.7047 10.4189 97.4734 9.93051C97.2422 9.44213 97.1266 8.88399 97.1266 8.26771C97.1266 7.65142 97.2422 7.08165 97.4734 6.6049V6.59327ZM101.594 7.04677C101.425 6.69793 101.194 6.44211 100.91 6.25606C100.616 6.07001 100.301 5.97699 99.9539 5.97699C99.607 5.97699 99.2917 6.07001 99.0079 6.24443C98.7242 6.41885 98.4929 6.6863 98.3248 7.03514C98.1566 7.38398 98.0725 7.79096 98.0725 8.25608C98.0725 8.7212 98.1566 9.13981 98.3248 9.48865C98.4929 9.83749 98.7242 10.1049 99.0079 10.291C99.2917 10.477 99.607 10.5701 99.9539 10.5701C100.301 10.5701 100.616 10.477 100.91 10.291C101.194 10.1049 101.425 9.83749 101.594 9.48865C101.762 9.13981 101.846 8.73283 101.846 8.26771C101.846 7.80259 101.762 7.39561 101.594 7.04677Z" fill="white" fill-opacity="0.3"/>
<path d="M104.873 6.03502V9.67458C104.873 9.97691 104.925 10.1862 105.051 10.3141C105.167 10.442 105.367 10.5002 105.651 10.5002H106.334V11.3723H105.503C104.988 11.3723 104.599 11.2444 104.347 10.9769C104.084 10.7095 103.958 10.2792 103.958 9.68621V6.04664H103.233V5.1978H103.958V3.63965H104.883V5.1978H106.334V6.04664H104.883L104.873 6.03502Z" fill="white" fill-opacity="0.3"/>
<path d="M106.87 3.97796C106.744 3.83842 106.691 3.67563 106.691 3.47795C106.691 3.28028 106.754 3.11749 106.87 2.97795C106.986 2.83841 107.143 2.78027 107.322 2.78027C107.501 2.78027 107.637 2.85004 107.753 2.97795C107.868 3.10586 107.932 3.28028 107.932 3.47795C107.932 3.67563 107.868 3.83842 107.753 3.97796C107.637 4.11749 107.49 4.17563 107.322 4.17563C107.154 4.17563 106.996 4.10587 106.87 3.97796ZM107.763 5.18727V11.3617H106.838V5.18727H107.763Z" fill="white" fill-opacity="0.3"/>
<path d="M109.75 11.0701C109.329 10.8026 108.993 10.4305 108.751 9.95377C108.509 9.47702 108.394 8.90725 108.394 8.26771C108.394 7.62817 108.52 7.08165 108.762 6.59327C109.014 6.1049 109.35 5.7328 109.771 5.47699C110.202 5.22117 110.674 5.09326 111.211 5.09326C111.747 5.09326 112.22 5.22117 112.65 5.47699C113.081 5.7328 113.418 6.1049 113.659 6.58165C113.912 7.05839 114.027 7.61654 114.027 8.25608C114.027 8.89562 113.901 9.45376 113.649 9.94214C113.397 10.4305 113.05 10.8026 112.619 11.0584C112.188 11.3142 111.705 11.4538 111.168 11.4538C110.632 11.4538 110.17 11.3259 109.75 11.0584V11.0701ZM112.104 10.3026C112.398 10.1282 112.629 9.87237 112.808 9.52353C112.987 9.17469 113.081 8.75608 113.081 8.26771C113.081 7.77933 112.997 7.34909 112.819 7.01188C112.64 6.67467 112.409 6.40723 112.125 6.24443C111.841 6.08164 111.526 5.98862 111.2 5.98862C110.874 5.98862 110.548 6.07001 110.265 6.24443C109.981 6.41885 109.76 6.67467 109.592 7.01188C109.424 7.34909 109.34 7.77933 109.34 8.26771C109.34 8.75608 109.424 9.19795 109.592 9.53516C109.76 9.884 109.981 10.1398 110.254 10.3026C110.527 10.477 110.843 10.5584 111.168 10.5584C111.494 10.5584 111.81 10.477 112.104 10.3026Z" fill="white" fill-opacity="0.3"/>
<path d="M119.009 5.75606C119.43 6.20955 119.64 6.86072 119.64 7.72119V11.3608H118.725V7.87235C118.725 7.25607 118.589 6.79095 118.305 6.45374C118.032 6.12815 117.643 5.96536 117.17 5.96536C116.697 5.96536 116.298 6.13978 116.003 6.47699C115.719 6.81421 115.572 7.30258 115.572 7.95375V11.3724H114.647V5.19791H115.572V6.08164C115.751 5.76769 116.003 5.5235 116.319 5.34908C116.634 5.17466 116.981 5.09326 117.359 5.09326C118.042 5.09326 118.589 5.32582 119.009 5.77931V5.75606Z" fill="white" fill-opacity="0.3"/>
<path d="M127.018 3.5126V4.34982H125.084V11.3615H124.159V4.33819H122.215V3.50098H127.018V3.5126Z" fill="white" fill-opacity="0.3"/>
<path d="M132.61 8.65152H128.154C128.185 9.25618 128.374 9.73293 128.721 10.0818C129.068 10.419 129.478 10.5934 129.972 10.5934C130.371 10.5934 130.708 10.4887 130.97 10.2794C131.233 10.0701 131.422 9.79107 131.538 9.45385H132.536C132.389 10.0469 132.084 10.5353 131.643 10.9074C131.191 11.2794 130.634 11.4655 129.972 11.4655C129.446 11.4655 128.973 11.3376 128.553 11.0701C128.132 10.8027 127.807 10.4306 127.565 9.95386C127.323 9.46548 127.208 8.90734 127.208 8.2678C127.208 7.62826 127.323 7.07011 127.554 6.59336C127.786 6.11662 128.111 5.74452 128.532 5.4887C128.952 5.23289 129.425 5.10498 129.972 5.10498C130.518 5.10498 130.97 5.23289 131.38 5.4887C131.79 5.74452 132.105 6.09336 132.326 6.54685C132.547 6.98872 132.652 7.50035 132.652 8.05849C132.652 8.25617 132.652 8.46547 132.62 8.67478L132.61 8.65152ZM131.454 6.8143C131.296 6.53523 131.086 6.31429 130.813 6.17476C130.55 6.02359 130.245 5.95382 129.919 5.95382C129.446 5.95382 129.047 6.11662 128.721 6.45383C128.395 6.77941 128.206 7.24453 128.154 7.82593H131.674C131.674 7.43058 131.59 7.105 131.443 6.8143H131.454Z" fill="white" fill-opacity="0.3"/>
<path d="M133.251 6.59327C133.482 6.11653 133.797 5.74443 134.218 5.48861C134.638 5.2328 135.101 5.09326 135.626 5.09326C136.309 5.09326 136.877 5.27931 137.318 5.63978C137.76 6.01187 138.054 6.52351 138.201 7.17467H137.203C137.108 6.80258 136.919 6.50025 136.646 6.27932C136.372 6.05839 136.026 5.95373 135.626 5.95373C135.101 5.95373 134.67 6.15141 134.344 6.55839C134.018 6.96537 133.86 7.52351 133.86 8.26771C133.86 9.0119 134.029 9.58167 134.344 9.98865C134.67 10.3956 135.101 10.5933 135.626 10.5933C136.036 10.5933 136.372 10.4887 136.646 10.2794C136.919 10.07 137.108 9.76772 137.203 9.38399H138.201C138.054 10.0119 137.749 10.5235 137.308 10.8956C136.856 11.2794 136.299 11.4654 135.626 11.4654C135.101 11.4654 134.628 11.3375 134.218 11.0701C133.808 10.8026 133.482 10.4305 133.251 9.95377C133.02 9.47702 132.904 8.90725 132.904 8.26771C132.904 7.62817 133.02 7.07002 133.251 6.59327Z" fill="white" fill-opacity="0.3"/>
<path d="M142.731 5.37229C143.068 5.56997 143.341 5.8723 143.53 6.26765C143.719 6.663 143.824 7.15138 143.824 7.72115V11.3607H142.91V7.87231C142.91 7.25603 142.773 6.79091 142.489 6.4537C142.216 6.12811 141.827 5.96532 141.354 5.96532C140.881 5.96532 140.482 6.13974 140.188 6.47695C139.904 6.81417 139.757 7.30254 139.757 7.95371V11.3723H138.832V3.02344H139.757V6.06997C139.935 5.75602 140.198 5.51183 140.513 5.33741C140.829 5.16299 141.197 5.08159 141.596 5.08159C142.016 5.08159 142.395 5.18625 142.731 5.38392V5.37229Z" fill="white" fill-opacity="0.3"/>
<path d="M149.09 5.75606C149.51 6.20955 149.721 6.86072 149.721 7.72119V11.3608H148.806V7.87235C148.806 7.25607 148.67 6.79095 148.386 6.45374C148.113 6.12815 147.724 5.96536 147.251 5.96536C146.778 5.96536 146.378 6.13978 146.084 6.47699C145.8 6.81421 145.653 7.30258 145.653 7.95375V11.3724H144.728V5.19791H145.653V6.08164C145.832 5.76769 146.084 5.5235 146.399 5.34908C146.715 5.17466 147.061 5.09326 147.44 5.09326C148.123 5.09326 148.67 5.32582 149.09 5.77931V5.75606Z" fill="white" fill-opacity="0.3"/>
<path d="M151.644 11.0701C151.224 10.8026 150.887 10.4305 150.646 9.95377C150.404 9.46539 150.288 8.90725 150.288 8.26771C150.288 7.62817 150.414 7.08165 150.656 6.59327C150.908 6.1049 151.245 5.7328 151.665 5.47699C152.096 5.22117 152.569 5.09326 153.105 5.09326C153.641 5.09326 154.114 5.22117 154.545 5.47699C154.976 5.7328 155.312 6.1049 155.554 6.58165C155.806 7.05839 155.922 7.61654 155.922 8.25608C155.922 8.89562 155.796 9.45376 155.543 9.94214C155.291 10.4305 154.944 10.8026 154.513 11.0584C154.082 11.3259 153.599 11.4538 153.063 11.4538C152.527 11.4538 152.064 11.3259 151.644 11.0584V11.0701ZM153.998 10.3026C154.293 10.1282 154.524 9.87237 154.703 9.52353C154.881 9.17469 154.976 8.75608 154.976 8.26771C154.976 7.77933 154.892 7.34909 154.713 7.01188C154.534 6.67467 154.303 6.40723 154.019 6.24443C153.736 6.07001 153.431 5.98862 153.094 5.98862C152.758 5.98862 152.443 6.07001 152.159 6.24443C151.875 6.41885 151.655 6.67467 151.486 7.01188C151.318 7.36072 151.234 7.77933 151.234 8.26771C151.234 8.75608 151.318 9.19795 151.486 9.53516C151.655 9.884 151.875 10.1398 152.149 10.3026C152.422 10.477 152.737 10.5584 153.063 10.5584C153.389 10.5584 153.704 10.477 153.998 10.3026Z" fill="white" fill-opacity="0.3"/>
<path d="M157.456 3.02344V11.3607H156.531V3.02344H157.456Z" fill="white" fill-opacity="0.3"/>
<path d="M159.443 11.0701C159.022 10.8026 158.686 10.4305 158.444 9.95377C158.202 9.47702 158.087 8.90725 158.087 8.26771C158.087 7.62817 158.213 7.08165 158.455 6.59327C158.707 6.1049 159.043 5.7328 159.464 5.47699C159.895 5.22117 160.368 5.09326 160.904 5.09326C161.44 5.09326 161.913 5.22117 162.344 5.47699C162.775 5.7328 163.111 6.1049 163.353 6.58165C163.605 7.05839 163.72 7.61654 163.72 8.25608C163.72 8.89562 163.594 9.45376 163.342 9.94214C163.09 10.4305 162.743 10.8026 162.312 11.0584C161.881 11.3142 161.398 11.4538 160.862 11.4538C160.326 11.4538 159.863 11.3259 159.443 11.0584V11.0701ZM161.797 10.3026C162.091 10.1282 162.323 9.87237 162.501 9.52353C162.68 9.17469 162.775 8.75608 162.775 8.26771C162.775 7.77933 162.69 7.34909 162.512 7.01188C162.333 6.66304 162.102 6.40723 161.818 6.24443C161.534 6.08164 161.219 5.98862 160.893 5.98862C160.567 5.98862 160.242 6.07001 159.958 6.24443C159.674 6.41885 159.453 6.67467 159.285 7.01188C159.117 7.34909 159.033 7.77933 159.033 8.26771C159.033 8.75608 159.117 9.19795 159.285 9.53516C159.453 9.884 159.674 10.1398 159.947 10.3026C160.22 10.477 160.536 10.5584 160.862 10.5584C161.187 10.5584 161.503 10.477 161.797 10.3026Z" fill="white" fill-opacity="0.3"/>
<path d="M167.904 5.43136C168.261 5.66392 168.534 5.95462 168.713 6.31509V5.18717H169.648V11.4895C169.648 12.0477 169.543 12.5593 169.323 12.9896C169.102 13.4314 168.797 13.7686 168.387 14.0245C167.988 14.2686 167.515 14.3965 166.979 14.3965C166.243 14.3965 165.633 14.2105 165.15 13.8268C164.666 13.4431 164.372 12.9198 164.288 12.257H165.202C165.308 12.6291 165.518 12.9314 165.833 13.164C166.148 13.3965 166.537 13.5128 166.979 13.5128C167.483 13.5128 167.904 13.3384 168.229 12.9779C168.555 12.6291 168.713 12.1291 168.713 11.4895V10.1988C168.534 10.5593 168.261 10.8616 167.904 11.0942C167.546 11.3384 167.126 11.4547 166.642 11.4547C166.159 11.4547 165.696 11.3151 165.297 11.0477C164.898 10.7802 164.572 10.3965 164.341 9.90814C164.109 9.41976 163.994 8.86162 163.994 8.24534C163.994 7.62905 164.109 7.05928 164.341 6.58253C164.572 6.10578 164.887 5.73369 165.297 5.47787C165.696 5.21043 166.148 5.08252 166.642 5.08252C167.136 5.08252 167.546 5.1988 167.914 5.43136H167.904ZM168.461 7.04765C168.292 6.69881 168.061 6.443 167.777 6.25695C167.483 6.0709 167.168 5.97788 166.821 5.97788C166.474 5.97788 166.159 6.0709 165.875 6.24532C165.591 6.41974 165.36 6.68718 165.192 7.03602C165.024 7.38486 164.94 7.79184 164.94 8.25696C164.94 8.72208 165.024 9.14069 165.192 9.48953C165.36 9.83837 165.591 10.1058 165.875 10.2919C166.159 10.4779 166.474 10.5709 166.821 10.5709C167.168 10.5709 167.483 10.4779 167.777 10.2919C168.061 10.1058 168.292 9.83837 168.461 9.48953C168.629 9.14069 168.713 8.73371 168.713 8.26859C168.713 7.80347 168.629 7.39649 168.461 7.04765Z" fill="white" fill-opacity="0.3"/>
<path d="M175.408 5.18652L172.045 14.268H171.088L172.192 11.2912L169.943 5.18652H170.973L172.728 10.1866L174.462 5.18652H175.419H175.408Z" fill="white" fill-opacity="0.3"/>
<path d="M177.951 5.36162C178.267 4.74533 178.687 4.26858 179.234 3.91974C179.77 3.5709 180.369 3.39648 181.031 3.39648C181.809 3.39648 182.481 3.60579 183.059 4.01277C183.637 4.41975 184.058 5.01278 184.321 5.7686H183.207C183.007 5.29185 182.723 4.93138 182.355 4.67556C181.987 4.41975 181.546 4.29184 181.031 4.29184C180.516 4.29184 180.095 4.41975 179.696 4.67556C179.307 4.93138 178.992 5.29185 178.771 5.7686C178.55 6.23372 178.435 6.79186 178.435 7.41977C178.435 8.04769 178.55 8.5942 178.771 9.05932C178.992 9.52444 179.307 9.89654 179.696 10.1407C180.095 10.3965 180.537 10.5244 181.031 10.5244C181.525 10.5244 181.987 10.3965 182.355 10.1524C182.723 9.89654 183.007 9.53607 183.207 9.07095H184.321C184.058 9.82677 183.637 10.3965 183.059 10.8151C182.481 11.2338 181.809 11.4314 181.031 11.4314C180.369 11.4314 179.77 11.257 179.234 10.9198C178.698 10.5826 178.267 10.1058 177.951 9.48956C177.636 8.87327 177.478 8.19885 177.478 7.4314C177.478 6.66395 177.636 5.9779 177.951 5.36162Z" fill="white" fill-opacity="0.3"/>
<path d="M186.087 11.0701C185.666 10.8026 185.33 10.4305 185.088 9.95377C184.846 9.47702 184.731 8.90725 184.731 8.26771C184.731 7.62817 184.857 7.08165 185.099 6.59327C185.351 6.1049 185.687 5.7328 186.108 5.47699C186.539 5.22117 187.012 5.09326 187.548 5.09326C188.084 5.09326 188.557 5.22117 188.987 5.47699C189.418 5.7328 189.755 6.1049 189.996 6.58165C190.249 7.05839 190.364 7.61654 190.364 8.25608C190.364 8.89562 190.238 9.45376 189.986 9.94214C189.734 10.4305 189.387 10.8026 188.956 11.0584C188.525 11.3142 188.042 11.4538 187.505 11.4538C186.969 11.4538 186.507 11.3259 186.087 11.0584V11.0701ZM188.441 10.3026C188.735 10.1282 188.966 9.87237 189.145 9.52353C189.324 9.17469 189.418 8.75608 189.418 8.26771C189.418 7.77933 189.334 7.34909 189.156 7.01188C188.977 6.67467 188.746 6.40723 188.462 6.24443C188.178 6.08164 187.863 5.98862 187.537 5.98862C187.211 5.98862 186.885 6.07001 186.602 6.24443C186.318 6.41885 186.097 6.67467 185.929 7.01188C185.761 7.34909 185.677 7.77933 185.677 8.26771C185.677 8.75608 185.761 9.19795 185.929 9.53516C186.097 9.884 186.318 10.1398 186.591 10.3026C186.864 10.477 187.18 10.5584 187.505 10.5584C187.831 10.5584 188.147 10.477 188.441 10.3026Z" fill="white" fill-opacity="0.3"/>
<path d="M190.827 11.2216C190.701 11.0821 190.648 10.9193 190.648 10.7216C190.648 10.5239 190.711 10.3611 190.827 10.2216C190.942 10.0821 191.1 10.0239 191.279 10.0239C191.457 10.0239 191.594 10.0937 191.71 10.2216C191.825 10.3611 191.888 10.5239 191.888 10.7216C191.888 10.9193 191.825 11.0821 191.71 11.2216C191.594 11.3611 191.447 11.4193 191.279 11.4193C191.111 11.4193 190.953 11.3495 190.827 11.2216Z" fill="white" fill-opacity="0.3"/>
<path d="M193.465 9.94238L192.33 12.9773H191.71L192.456 9.94238H193.475H193.465Z" fill="white" fill-opacity="0.3"/>
<path d="M196.944 10.5239H199.424V11.3611H196.008V3.51221H196.933V10.5239H196.944Z" fill="white" fill-opacity="0.3"/>
<path d="M200.938 6.03502V9.67458C200.938 9.97691 200.99 10.1862 201.116 10.3141C201.232 10.442 201.432 10.5002 201.716 10.5002H202.399V11.3723H201.568C201.053 11.3723 200.664 11.2444 200.412 10.9769C200.149 10.7095 200.023 10.2792 200.023 9.68621V6.04664H199.298V5.1978H200.023V3.63965H200.948V5.1978H202.399V6.04664H200.948L200.938 6.03502Z" fill="white" fill-opacity="0.3"/>
<path d="M202.903 6.59284C203.134 6.11609 203.45 5.74399 203.86 5.48818C204.259 5.22073 204.721 5.09282 205.215 5.09282C205.646 5.09282 206.056 5.2091 206.424 5.43004C206.802 5.65097 207.086 5.94167 207.275 6.30214V3.03467H208.211V11.3719H207.275V10.2091C207.097 10.5812 206.823 10.8836 206.456 11.1161C206.098 11.3487 205.678 11.4766 205.194 11.4766C204.711 11.4766 204.248 11.3371 203.849 11.0696C203.45 10.8022 203.124 10.4185 202.893 9.93007C202.661 9.4417 202.546 8.88355 202.546 8.26727C202.546 7.65099 202.661 7.08121 202.893 6.60446L202.903 6.59284ZM207.023 7.04633C206.855 6.69749 206.624 6.44167 206.34 6.25563C206.056 6.06958 205.73 5.97655 205.384 5.97655C205.037 5.97655 204.721 6.06958 204.438 6.244C204.154 6.41842 203.923 6.68586 203.754 7.0347C203.586 7.38354 203.502 7.79052 203.502 8.25564C203.502 8.72076 203.586 9.13937 203.754 9.48821C203.923 9.83705 204.154 10.1045 204.438 10.2905C204.721 10.4766 205.037 10.5696 205.384 10.5696C205.73 10.5696 206.046 10.4766 206.34 10.2905C206.634 10.1045 206.855 9.83705 207.023 9.48821C207.191 9.13937 207.275 8.73239 207.275 8.26727C207.275 7.80215 207.191 7.39517 207.023 7.04633Z" fill="white" fill-opacity="0.3"/>
<path d="M214.339 7.73291H247.982" stroke="white" stroke-opacity="0.3" stroke-width="0.25" stroke-miterlimit="10"/>
</svg>
