<?xml version="1.0" encoding="UTF-8"?>
<svg xmlns="http://www.w3.org/2000/svg" viewBox="0 0 47.47 62.17">
    <defs>
        <style>
        .cls-1 {
            fill: #004e81;
        }

        .cls-2 {
            fill: #ecc21a;
        }
        </style>
    </defs>
    <g>
        <g>
            <path class="cls-1" d="m27.28,39.15H11.21v22.68H0V0h27.28c6.94,0,12.04,1.66,15.3,4.98,3.26,3.32,4.89,7.06,4.89,14,0,14.37-6.73,20.17-20.19,20.17Z"/>
            <g>
                <path class="cls-1" d="m18.85,62.17h-6.13v-21.6h6.13v21.6Zm-5.44-.7h4.74v-20.21h-4.74v20.21Z"/>
                <path class="cls-1" d="m33.17,62.17h-5.37l-2.22-7.46v7.46h-5.24v-21.6h5.15l2.45,7.56v-7.56h5.24v21.6Zm-4.85-.7h4.16v-20.21h-3.85v11.27l-3.65-11.27h-3.95v20.21h3.85v-11.54l3.43,11.54Z"/>
                <path class="cls-1" d="m44.78,62.17h-10.12v-21.6h9.76v4.88h-3.63v3.27h3.4v4.67h-3.4v3.9h3.99v4.88Zm-9.43-.7h8.73v-3.49h-3.99v-5.29h3.4v-3.28h-3.4v-4.66h3.63v-3.49h-8.37v20.21Z"/>
            </g>
            <path class="cls-2" d="m18.97,9.52v20.59h-5.35V9.52h5.35Z"/>
            <path class="cls-2" d="m31.9,9.52v4.12h-3.18v16.47h-5.35V13.64h-3.17v-4.12h11.7Z"/>
        </g>
    </g>
</svg>