<svg width="200" height="40" viewBox="0 0 200 40" fill="none" xmlns="http://www.w3.org/2000/svg">
<path d="M16.8166 25.1777H6.91163V39.7631H0V0H16.8166C21.0964 0 24.2411 1.07065 26.2507 3.20316C28.2603 5.33567 29.2609 7.74024 29.2609 12.2071C29.2609 21.448 25.1156 25.1777 16.8166 25.1777Z" fill="#004E81"/>
<path d="M11.6119 39.9912H7.83655V26.0992H11.6119V39.9912ZM8.26537 39.5436H11.1831V26.5467H8.26537V39.5436Z" fill="#004E81"/>
<path d="M20.4406 39.9912H17.1277L15.7572 35.1909V39.9912H12.5284V26.0992H15.6983L17.2034 30.9609V26.0992H20.4322V39.9912H20.4406ZM17.4472 39.5436H20.0118V26.5467H17.6406V33.7955L15.3956 26.5467H12.9656V39.5436H15.3368V32.1193L17.4556 39.5436H17.4472Z" fill="#004E81"/>
<path d="M27.5961 39.9912H21.3571V26.0992H27.369V29.2409H25.1324V31.3471H27.2261V34.3484H25.1324V36.8583H27.5876V40L27.5961 39.9912ZM21.7859 39.5436H27.1672V37.297H24.712V33.892H26.8057V31.7771H24.712V28.7758H26.9486V26.5292H21.7943V39.5261L21.7859 39.5436Z" fill="#004E81"/>
<path d="M11.6876 6.11671V19.3594H8.39151V6.11671H11.6876Z" fill="#ECC21A"/>
<path d="M19.6586 6.11671V8.767H17.6995V19.3594H14.4034V8.767H12.4527V6.11671H19.6586Z" fill="#ECC21A"/>
<path d="M31.9768 33.8131H41.453V27.8543H45.8421V33.8131H55.3183V37.5603H31.9768V33.8131ZM46.2625 12.6196V16.4634C46.2625 17.9377 46.0775 19.3243 45.6992 20.6143L55.2594 26.4502L53.1069 29.8289L43.9082 24.2387C41.8734 26.9592 38.5437 28.925 33.9023 30.136L32.2543 26.5994C35.6092 25.8447 38.0476 24.6248 39.5695 22.9574C41.0914 21.29 41.8482 19.1136 41.8482 16.4283V12.6196H46.2625Z" fill="#004E81"/>
<path d="M61.3302 12.4967V33.5059H71.4538V37.2532H56.9411V12.4967H61.3302ZM78.5252 21.5006H80.9552V25.2479H78.5252V37.5691H74.1361V11.8824H78.5252V21.5006Z" fill="#004E81"/>
<path d="M81.1822 29.4252H104.524V33.1724H95.0475V38.5169H90.6584V33.1724H81.1822V29.4252ZM82.5528 12.6196H103.153V26.4414H82.5528V12.6196ZM86.9419 22.6942H98.764V16.3668H86.9419V22.6942Z" fill="#004E81"/>
<path d="M105.919 12.3475H121.155V14.8662H114.807V17.4111C114.807 18.0693 114.731 18.7187 114.58 19.3769L121.458 24.1422L119.978 26.2659L113.495 21.7464C112.789 22.7731 111.847 23.6419 110.67 24.3616C109.493 25.0812 108.131 25.6779 106.592 26.1694L105.365 23.9315C106.315 23.6683 107.189 23.3436 107.988 22.9662C108.787 22.5888 109.485 22.1413 110.082 21.6323C110.679 21.1233 111.141 20.5178 111.477 19.8157C111.814 19.1224 111.982 18.315 111.982 17.3936V14.8749H105.911V12.3563L105.919 12.3475ZM117.548 38.6397C115.925 38.6397 114.462 38.5257 113.142 38.3063C111.822 38.0869 110.712 37.7446 109.804 37.2883C108.888 36.8407 108.19 36.2703 107.694 35.5858C107.198 34.9013 106.954 34.0939 106.954 33.1724C106.954 32.251 107.198 31.4436 107.694 30.7591C108.19 30.0746 108.888 29.5129 109.804 29.0742C110.721 28.6354 111.83 28.3019 113.142 28.0737C114.454 27.8455 115.925 27.7402 117.548 27.7402C119.171 27.7402 120.634 27.8543 121.954 28.0737C123.266 28.3019 124.384 28.6354 125.292 29.0742C126.209 29.5129 126.907 30.0746 127.403 30.7591C127.899 31.4436 128.143 32.251 128.143 33.1724C128.143 34.0939 127.899 34.9013 127.403 35.5858C126.907 36.2703 126.209 36.8407 125.292 37.2883C124.376 37.7358 123.266 38.0781 121.954 38.3063C120.642 38.5344 119.171 38.6397 117.548 38.6397ZM117.548 36.1211C118.742 36.1211 119.818 36.0597 120.777 35.9368C121.735 35.8139 122.559 35.6297 123.241 35.3839C123.922 35.1382 124.443 34.8311 124.805 34.4625C125.166 34.0939 125.351 33.6639 125.351 33.1724C125.351 32.681 125.166 32.2598 124.805 31.8999C124.443 31.5401 123.922 31.2418 123.241 30.996C122.559 30.7503 121.744 30.566 120.777 30.4432C119.81 30.3203 118.742 30.2589 117.548 30.2589C116.354 30.2589 115.278 30.3203 114.319 30.4432C113.361 30.566 112.537 30.7503 111.856 30.996C111.175 31.2418 110.653 31.5401 110.292 31.8999C109.93 32.2598 109.745 32.681 109.745 33.1724C109.745 33.6639 109.93 34.0939 110.292 34.4625C110.653 34.8311 111.175 35.1382 111.856 35.3839C112.537 35.6297 113.352 35.8139 114.319 35.9368C115.278 36.0597 116.354 36.1211 117.548 36.1211ZM127.588 12.0404V27.2751H124.788V19.1926L119.953 20.4212V17.9026L124.788 16.674V12.0316H127.588V12.0404Z" fill="#004E81"/>
<path d="M129.69 34.8925H139.527V29.5217H131.052V12.6546H133.852V18.7626H148.028V12.6546H150.828V29.5217H142.327V34.8925H152.199V37.4111H129.69V34.8925ZM148.028 21.29H133.852V27.003H148.028V21.29Z" fill="#004E81"/>
<path d="M165.248 37.104V15.1733H154.091V12.6547H168.04V37.104H165.24H165.248ZM175.397 37.4111H172.597V12.0316H175.397V37.4024V37.4111Z" fill="#004E81"/>
<path d="M177.491 22.6678H200V25.1865H190.129V27.3716H198.629V33.9798H181.661V35.5156H198.907V38.0342H178.862V31.4612H195.829V29.8903H178.862V27.3716H187.329V25.1865H177.491V22.6678ZM190.574 11.7332V12.251C190.574 13.2163 190.389 14.129 190.011 14.989L198.873 18.2712L197.73 20.6669L188.363 17.1917C186.555 18.8065 183.57 19.9561 179.416 20.6318L178.357 18.2361C180.055 17.9728 181.502 17.6393 182.704 17.2532C183.906 16.867 184.882 16.4107 185.622 15.9017C186.37 15.3927 186.917 14.8223 187.261 14.2167C187.606 13.6024 187.783 12.9355 187.783 12.2159V11.7244H190.583L190.574 11.7332Z" fill="#004E81"/>
<path d="M40.9737 5.60771C40.6542 5.93241 40.1581 6.09915 39.4938 6.09915H38.4008V8.57392H37.6608V2.65027H39.4938C40.1329 2.65027 40.6206 2.80823 40.9569 3.13294C41.2932 3.45764 41.4614 3.8701 41.4614 4.3791C41.4614 4.88809 41.3016 5.283 40.9737 5.60771ZM40.4103 5.17769C40.6037 4.9934 40.7046 4.72135 40.7046 4.3791C40.7046 3.65071 40.301 3.28212 39.5022 3.28212H38.4092V5.45852H39.5022C39.9143 5.45852 40.217 5.36198 40.4103 5.17769Z" fill="#004E81"/>
<path d="M41.9154 3.0013C41.8145 2.89599 41.7725 2.77313 41.7725 2.62394C41.7725 2.47476 41.8229 2.35189 41.9154 2.24658C42.0079 2.14128 42.134 2.0974 42.277 2.0974C42.4199 2.0974 42.5292 2.15005 42.6217 2.24658C42.7142 2.35189 42.7646 2.47476 42.7646 2.62394C42.7646 2.77313 42.7142 2.89599 42.6217 3.0013C42.5292 3.10661 42.4115 3.15049 42.277 3.15049C42.1424 3.15049 42.0163 3.09784 41.9154 3.0013ZM42.6301 3.91398V8.57392H41.8902V3.91398H42.6301Z" fill="#004E81"/>
<path d="M46.9016 4.34398C47.2379 4.68624 47.4061 5.17768 47.4061 5.82709V8.57391H46.6745V5.94118C46.6745 5.47606 46.5652 5.12503 46.3382 4.87053C46.1196 4.62481 45.8085 4.50195 45.4301 4.50195C45.0517 4.50195 44.7322 4.63359 44.4968 4.88808C44.2698 5.14258 44.152 5.51116 44.152 6.00261V8.58269H43.4121V3.92275H44.152V4.58971C44.295 4.35276 44.4968 4.16847 44.749 4.03683C45.0013 3.9052 45.2788 3.84377 45.5815 3.84377C46.128 3.84377 46.5652 4.01928 46.9016 4.36154V4.34398Z" fill="#004E81"/>
<path d="M52.1736 6.52915H48.6084C48.6337 6.98549 48.785 7.3453 49.0625 7.60857C49.34 7.86307 49.6679 7.99471 50.0631 7.99471C50.3826 7.99471 50.6517 7.91572 50.8619 7.75776C51.0721 7.5998 51.2234 7.38918 51.3159 7.13468H52.1147C51.997 7.58225 51.7531 7.95083 51.4 8.23165C51.0384 8.51248 50.5928 8.65289 50.0631 8.65289C49.6427 8.65289 49.2643 8.55636 48.9279 8.35451C48.5916 8.15267 48.331 7.87185 48.1376 7.51204C47.9442 7.14346 47.8517 6.72222 47.8517 6.23955C47.8517 5.75688 47.9442 5.33565 48.1292 4.97584C48.3141 4.61603 48.5748 4.33521 48.9111 4.14214C49.2475 3.94907 49.6258 3.85254 50.0631 3.85254C50.5003 3.85254 50.8619 3.94907 51.1898 4.14214C51.5177 4.33521 51.77 4.59848 51.9465 4.94074C52.1231 5.27422 52.2072 5.66035 52.2072 6.08159C52.2072 6.23077 52.2072 6.38874 52.182 6.5467L52.1736 6.52915ZM51.2486 5.14258C51.1225 4.93196 50.9544 4.76522 50.7357 4.65991C50.5255 4.54583 50.2817 4.49317 50.021 4.49317C49.6427 4.49317 49.3231 4.61603 49.0625 4.87053C48.8018 5.12503 48.6505 5.46728 48.6084 5.90607H51.4252C51.4252 5.60769 51.3579 5.36197 51.2402 5.14258H51.2486Z" fill="#004E81"/>
<path d="M55.1165 2.65027V8.57392H54.3765V2.65027H55.1165Z" fill="#004E81"/>
<path d="M59.3879 4.34398C59.7242 4.68624 59.8924 5.17768 59.8924 5.82709V8.57391H59.1609V5.94118C59.1609 5.47606 59.0515 5.12503 58.8245 4.87053C58.6059 4.62481 58.2948 4.50195 57.9164 4.50195C57.5381 4.50195 57.2185 4.63359 56.9831 4.88808C56.7561 5.14258 56.6384 5.51116 56.6384 6.00261V8.58269H55.8984V3.92275H56.6384V4.58971C56.7813 4.35276 56.9831 4.16847 57.2354 4.03683C57.4876 3.9052 57.7651 3.84377 58.0678 3.84377C58.6143 3.84377 59.0515 4.01928 59.3879 4.36154V4.34398Z" fill="#004E81"/>
<path d="M62.4317 4.55462H61.4984V8.57393H60.7584V4.55462H60.1783V3.91399H60.7584V3.58051C60.7584 3.06274 60.8846 2.6766 61.1452 2.43966C61.4059 2.20271 61.8179 2.07985 62.3896 2.07985V2.72926C62.0617 2.72926 61.8347 2.79946 61.7002 2.9311C61.5656 3.06274 61.4984 3.28213 61.4984 3.58928V3.92276H62.4317V4.56339V4.55462Z" fill="#004E81"/>
<path d="M63.6173 8.35452C63.2809 8.15267 63.0119 7.87185 62.8185 7.51204C62.6251 7.14346 62.5326 6.72222 62.5326 6.23955C62.5326 5.75688 62.6335 5.34442 62.8269 4.97584C63.0287 4.60726 63.2977 4.32643 63.6341 4.13337C63.9788 3.9403 64.3572 3.84377 64.786 3.84377C65.2148 3.84377 65.5932 3.9403 65.938 4.13337C66.2827 4.32643 66.5518 4.60726 66.7452 4.96706C66.9469 5.32687 67.0394 5.74811 67.0394 6.23078C67.0394 6.71344 66.9385 7.13468 66.7367 7.50326C66.5349 7.87185 66.2575 8.15267 65.9127 8.34574C65.568 8.54758 65.1812 8.64412 64.7524 8.64412C64.3236 8.64412 63.9536 8.54758 63.6173 8.34574V8.35452ZM65.5007 7.77531C65.7362 7.64368 65.9211 7.45061 66.0641 7.18734C66.207 6.92406 66.2827 6.60814 66.2827 6.23955C66.2827 5.87097 66.2154 5.54627 66.0725 5.29177C65.9295 5.03727 65.7446 4.83543 65.5175 4.71257C65.2905 4.58093 65.0467 4.5195 64.7776 4.5195C64.5085 4.5195 64.2563 4.58093 64.0293 4.71257C63.8022 4.8442 63.6257 5.03727 63.4911 5.29177C63.3566 5.55504 63.2893 5.87097 63.2893 6.23955C63.2893 6.60814 63.3566 6.94161 63.4911 7.19611C63.6257 7.45939 63.8022 7.65245 64.0209 7.77531C64.2395 7.90695 64.4917 7.96838 64.7524 7.96838C65.013 7.96838 65.2653 7.90695 65.5007 7.77531Z" fill="#004E81"/>
<path d="M68.8304 4.0544C69.0742 3.90521 69.3685 3.83501 69.7133 3.83501V4.6336H69.5199C68.6875 4.6336 68.2755 5.10749 68.2755 6.0465V8.5827H67.5355V3.92276H68.2755V4.67748C68.41 4.41421 68.595 4.20359 68.8304 4.0544Z" fill="#004E81"/>
<path d="M76.3727 4.0544C76.6417 4.20359 76.8604 4.43176 77.0201 4.73014C77.1799 5.02851 77.2555 5.3971 77.2555 5.82711V8.57393H76.524V5.94119C76.524 5.47608 76.4147 5.12505 76.1961 4.87055C75.9775 4.62483 75.6748 4.50197 75.3048 4.50197C74.9349 4.50197 74.6153 4.6336 74.3883 4.8881C74.1613 5.1426 74.0436 5.51996 74.0436 6.00262V8.57393H73.3121V5.94119C73.3121 5.47608 73.2028 5.12505 72.9841 4.87055C72.7655 4.62483 72.4628 4.50197 72.0928 4.50197C71.7229 4.50197 71.4034 4.6336 71.1763 4.8881C70.9493 5.1426 70.8316 5.51996 70.8316 6.00262V8.57393H70.0917V3.91399H70.8316V4.58972C70.9745 4.344 71.1763 4.15971 71.4202 4.02807C71.664 3.89644 71.9415 3.83501 72.2358 3.83501C72.6142 3.83501 72.9421 3.92276 73.228 4.09828C73.5139 4.2738 73.7325 4.52829 73.867 4.87055C73.9931 4.54585 74.1949 4.28257 74.4892 4.10706C74.7751 3.92276 75.0946 3.83501 75.4478 3.83501C75.8009 3.83501 76.1036 3.91399 76.3727 4.06318V4.0544Z" fill="#004E81"/>
<path d="M77.9786 4.97584C78.1636 4.61603 78.4159 4.33521 78.7438 4.14214C79.0633 3.9403 79.4249 3.84377 79.8201 3.84377C80.2153 3.84377 80.5516 3.93152 80.8375 4.10704C81.1233 4.28255 81.342 4.50195 81.4849 4.774V3.92275H82.2332V8.58269H81.4849V7.71388C81.342 7.98593 81.1233 8.2141 80.8291 8.38962C80.5348 8.56513 80.1984 8.66167 79.8117 8.66167C79.4249 8.66167 79.0549 8.55636 78.7354 8.35452C78.4159 8.15267 78.1636 7.86307 77.9786 7.49449C77.7937 7.12591 77.7012 6.70467 77.7012 6.23955C77.7012 5.77444 77.7937 5.34442 77.9786 4.98462V4.97584ZM81.2747 5.3181C81.1402 5.05482 80.9552 4.86176 80.7282 4.72134C80.4927 4.58093 80.2405 4.51072 79.963 4.51072C79.6855 4.51072 79.4333 4.58093 79.2063 4.71257C78.9792 4.8442 78.7943 5.04605 78.6597 5.30932C78.5252 5.57259 78.4579 5.87975 78.4579 6.23078C78.4579 6.58181 78.5252 6.89774 78.6597 7.16101C78.7943 7.42428 78.9792 7.62613 79.2063 7.76654C79.4333 7.90695 79.6855 7.97716 79.963 7.97716C80.2405 7.97716 80.4927 7.90695 80.7282 7.76654C80.9552 7.62613 81.1402 7.42428 81.2747 7.16101C81.4092 6.89774 81.4765 6.59058 81.4765 6.23955C81.4765 5.88852 81.4092 5.58137 81.2747 5.3181Z" fill="#004E81"/>
<path d="M83.8981 4.55461V7.30142C83.8981 7.52959 83.9401 7.68756 84.041 7.78409C84.1335 7.88063 84.2933 7.9245 84.5203 7.9245H85.0668V8.58269H84.4026C83.9906 8.58269 83.6795 8.48615 83.4777 8.28431C83.2675 8.08247 83.1666 7.75777 83.1666 7.3102V4.56338H82.5864V3.92275H83.1666V2.7468H83.9065V3.92275H85.0668V4.56338H83.9065L83.8981 4.55461Z" fill="#004E81"/>
<path d="M85.4957 3.0013C85.3948 2.89599 85.3527 2.77313 85.3527 2.62394C85.3527 2.47476 85.4032 2.35189 85.4957 2.24658C85.5882 2.14128 85.7143 2.0974 85.8572 2.0974C86.0002 2.0974 86.1095 2.15005 86.202 2.24658C86.2944 2.34312 86.3449 2.47476 86.3449 2.62394C86.3449 2.77313 86.2944 2.89599 86.202 3.0013C86.1095 3.10661 85.9918 3.15049 85.8572 3.15049C85.7227 3.15049 85.5966 3.09784 85.4957 3.0013ZM86.2104 3.91398V8.57392H85.4704V3.91398H86.2104Z" fill="#004E81"/>
<path d="M87.7995 8.35452C87.4632 8.15267 87.1942 7.87185 87.0008 7.51204C86.8074 7.15223 86.7149 6.72222 86.7149 6.23955C86.7149 5.75688 86.8158 5.34442 87.0092 4.97584C87.211 4.60726 87.48 4.32643 87.8164 4.13337C88.1611 3.9403 88.5395 3.84377 88.9683 3.84377C89.3971 3.84377 89.7755 3.9403 90.1202 4.13337C90.465 4.32643 90.734 4.60726 90.9274 4.96706C91.1292 5.32687 91.2217 5.74811 91.2217 6.23078C91.2217 6.71344 91.1208 7.13468 90.919 7.50326C90.7172 7.87185 90.4398 8.15267 90.095 8.34574C89.7503 8.53881 89.3635 8.64412 88.9347 8.64412C88.5058 8.64412 88.1359 8.54758 87.7995 8.34574V8.35452ZM89.683 7.77531C89.9184 7.64368 90.1034 7.45061 90.2464 7.18734C90.3893 6.92406 90.465 6.60814 90.465 6.23955C90.465 5.87097 90.3977 5.54627 90.2548 5.29177C90.1118 5.03727 89.9269 4.83543 89.6998 4.71257C89.4728 4.58971 89.2206 4.5195 88.9599 4.5195C88.6992 4.5195 88.4386 4.58093 88.2116 4.71257C87.9845 4.8442 87.808 5.03727 87.6734 5.29177C87.5389 5.54627 87.4716 5.87097 87.4716 6.23955C87.4716 6.60814 87.5389 6.94161 87.6734 7.19611C87.808 7.45939 87.9845 7.65245 88.2031 7.77531C88.4218 7.90695 88.674 7.96838 88.9347 7.96838C89.1953 7.96838 89.4476 7.90695 89.683 7.77531Z" fill="#004E81"/>
<path d="M95.2073 4.34398C95.5436 4.68624 95.7118 5.17768 95.7118 5.82709V8.57391H94.9803V5.94118C94.9803 5.47606 94.8709 5.12503 94.6439 4.87053C94.4253 4.62481 94.1142 4.50195 93.7358 4.50195C93.3575 4.50195 93.0379 4.63359 92.8025 4.88808C92.5755 5.14258 92.4578 5.51116 92.4578 6.00261V8.58269H91.7178V3.92275H92.4578V4.58971C92.6007 4.35276 92.8025 4.16847 93.0548 4.03683C93.307 3.9052 93.5845 3.84377 93.8872 3.84377C94.4337 3.84377 94.871 4.01928 95.2073 4.36154V4.34398Z" fill="#004E81"/>
<path d="M101.614 2.65027V3.28213H100.067V8.57392H99.3273V3.27335H97.7718V2.64149H101.614V2.65027Z" fill="#004E81"/>
<path d="M106.088 6.52915H102.522C102.548 6.98549 102.699 7.3453 102.977 7.60857C103.254 7.86307 103.582 7.99471 103.977 7.99471C104.297 7.99471 104.566 7.91572 104.776 7.75776C104.986 7.5998 105.137 7.38918 105.23 7.13468H106.029C105.911 7.58225 105.667 7.95083 105.314 8.23165C104.952 8.51248 104.507 8.65289 103.977 8.65289C103.557 8.65289 103.178 8.55636 102.842 8.35451C102.506 8.15267 102.245 7.87185 102.052 7.51204C101.858 7.14346 101.766 6.72222 101.766 6.23955C101.766 5.75688 101.858 5.33565 102.043 4.97584C102.228 4.61603 102.489 4.33521 102.825 4.14214C103.162 3.94907 103.54 3.85254 103.977 3.85254C104.414 3.85254 104.776 3.94907 105.104 4.14214C105.432 4.33521 105.684 4.59848 105.861 4.94074C106.037 5.27422 106.121 5.66035 106.121 6.08159C106.121 6.23077 106.121 6.38874 106.096 6.5467L106.088 6.52915ZM105.163 5.14258C105.037 4.93196 104.868 4.76522 104.65 4.65991C104.44 4.54583 104.196 4.49317 103.935 4.49317C103.557 4.49317 103.237 4.61603 102.977 4.87053C102.716 5.11625 102.565 5.46728 102.522 5.90607H105.339C105.339 5.60769 105.272 5.36197 105.154 5.14258H105.163Z" fill="#004E81"/>
<path d="M106.601 4.97584C106.786 4.61603 107.038 4.33521 107.374 4.14214C107.71 3.94907 108.08 3.84377 108.501 3.84377C109.047 3.84377 109.501 3.98418 109.855 4.25623C110.208 4.53705 110.443 4.92319 110.561 5.41463H109.762C109.686 5.1338 109.535 4.90563 109.316 4.73889C109.098 4.57215 108.82 4.49317 108.501 4.49317C108.08 4.49317 107.736 4.64236 107.475 4.94951C107.214 5.25667 107.088 5.6779 107.088 6.23955C107.088 6.8012 107.223 7.23122 107.475 7.53837C107.736 7.84552 108.08 7.99471 108.501 7.99471C108.829 7.99471 109.098 7.91573 109.316 7.75776C109.535 7.5998 109.686 7.37163 109.762 7.08203H110.561C110.443 7.55592 110.199 7.94205 109.846 8.22288C109.485 8.51248 109.039 8.65289 108.501 8.65289C108.08 8.65289 107.702 8.55636 107.374 8.35452C107.046 8.15267 106.786 7.87185 106.601 7.51204C106.416 7.15223 106.323 6.72222 106.323 6.23955C106.323 5.75689 106.416 5.33565 106.601 4.97584Z" fill="#004E81"/>
<path d="M114.185 4.05438C114.454 4.20357 114.673 4.43174 114.824 4.73012C114.975 5.0285 115.059 5.39708 115.059 5.82709V8.57391H114.328V5.94118C114.328 5.47606 114.218 5.12503 113.991 4.87053C113.773 4.62481 113.462 4.50195 113.083 4.50195C112.705 4.50195 112.385 4.63359 112.15 4.88808C111.923 5.14258 111.805 5.51116 111.805 6.00261V8.58269H111.065V2.28168H111.805V4.58093C111.948 4.34399 112.158 4.15969 112.411 4.02806C112.663 3.89642 112.957 3.83499 113.277 3.83499C113.613 3.83499 113.916 3.91397 114.185 4.06316V4.05438Z" fill="#004E81"/>
<path d="M119.272 4.34398C119.608 4.68624 119.776 5.17768 119.776 5.82709V8.57391H119.045V5.94118C119.045 5.47606 118.936 5.12503 118.708 4.87053C118.49 4.62481 118.179 4.50195 117.8 4.50195C117.422 4.50195 117.103 4.63359 116.867 4.88808C116.64 5.14258 116.522 5.51116 116.522 6.00261V8.58269H115.782V3.92275H116.522V4.58971C116.665 4.35276 116.867 4.16847 117.119 4.03683C117.372 3.9052 117.649 3.84377 117.952 3.84377C118.498 3.84377 118.936 4.01928 119.272 4.36154V4.34398Z" fill="#004E81"/>
<path d="M121.315 8.35452C120.979 8.15267 120.71 7.87185 120.516 7.51204C120.323 7.14346 120.23 6.72222 120.23 6.23955C120.23 5.75688 120.331 5.34442 120.525 4.97584C120.726 4.60726 120.996 4.32643 121.332 4.13337C121.677 3.9403 122.055 3.84377 122.484 3.84377C122.913 3.84377 123.291 3.9403 123.636 4.13337C123.981 4.32643 124.25 4.60726 124.443 4.96706C124.645 5.32687 124.737 5.74811 124.737 6.23078C124.737 6.71344 124.636 7.13468 124.435 7.50326C124.233 7.87185 123.955 8.15267 123.611 8.34574C123.266 8.54758 122.879 8.64412 122.45 8.64412C122.021 8.64412 121.651 8.54758 121.315 8.34574V8.35452ZM123.199 7.77531C123.434 7.64368 123.619 7.45061 123.762 7.18734C123.905 6.92406 123.981 6.60814 123.981 6.23955C123.981 5.87097 123.913 5.54627 123.77 5.29177C123.627 5.03727 123.442 4.83543 123.215 4.71257C122.988 4.58093 122.744 4.5195 122.475 4.5195C122.206 4.5195 121.954 4.58093 121.727 4.71257C121.5 4.8442 121.323 5.03727 121.189 5.29177C121.054 5.55504 120.987 5.87097 120.987 6.23955C120.987 6.60814 121.054 6.94161 121.189 7.19611C121.323 7.45939 121.5 7.65245 121.719 7.77531C121.937 7.90695 122.19 7.96838 122.45 7.96838C122.711 7.96838 122.963 7.90695 123.199 7.77531Z" fill="#004E81"/>
<path d="M125.965 2.28168V8.57391H125.225V2.28168H125.965Z" fill="#004E81"/>
<path d="M127.554 8.35452C127.218 8.15267 126.949 7.87185 126.755 7.51204C126.562 7.15223 126.469 6.72222 126.469 6.23955C126.469 5.75688 126.57 5.34442 126.764 4.97584C126.965 4.60726 127.235 4.32643 127.571 4.13337C127.916 3.9403 128.294 3.84377 128.723 3.84377C129.152 3.84377 129.53 3.9403 129.875 4.13337C130.219 4.32643 130.489 4.60726 130.682 4.96706C130.884 5.32687 130.976 5.74811 130.976 6.23078C130.976 6.71344 130.875 7.13468 130.674 7.50326C130.472 7.87185 130.194 8.15267 129.849 8.34574C129.505 8.53881 129.118 8.64412 128.689 8.64412C128.26 8.64412 127.89 8.54758 127.554 8.34574V8.35452ZM129.437 7.77531C129.673 7.64368 129.858 7.45061 130.001 7.18734C130.144 6.92406 130.219 6.60814 130.219 6.23955C130.219 5.87097 130.152 5.54627 130.009 5.29177C129.866 5.0285 129.681 4.83543 129.454 4.71257C129.227 4.58971 128.975 4.5195 128.714 4.5195C128.454 4.5195 128.193 4.58093 127.966 4.71257C127.739 4.8442 127.562 5.03727 127.428 5.29177C127.293 5.54627 127.226 5.87097 127.226 6.23955C127.226 6.60814 127.293 6.94161 127.428 7.19611C127.562 7.45939 127.739 7.65245 127.958 7.77531C128.176 7.90695 128.428 7.96838 128.689 7.96838C128.95 7.96838 129.202 7.90695 129.437 7.77531Z" fill="#004E81"/>
<path d="M134.323 4.09828C134.609 4.2738 134.827 4.49319 134.97 4.76524V3.91399H135.718V8.67046C135.718 9.0917 135.634 9.47783 135.458 9.80254C135.281 10.136 135.037 10.3905 134.71 10.5836C134.39 10.7679 134.012 10.8644 133.583 10.8644C132.994 10.8644 132.507 10.724 132.12 10.4344C131.733 10.1448 131.498 9.74988 131.43 9.24966H132.162C132.246 9.53049 132.414 9.75866 132.666 9.93417C132.919 10.1097 133.23 10.1974 133.583 10.1974C133.986 10.1974 134.323 10.0658 134.583 9.79376C134.844 9.53049 134.97 9.15313 134.97 8.67046V7.69635C134.827 7.9684 134.609 8.19657 134.323 8.37208C134.037 8.55638 133.701 8.64413 133.314 8.64413C132.927 8.64413 132.557 8.53882 132.237 8.33698C131.918 8.13514 131.657 7.84554 131.472 7.47696C131.287 7.10837 131.195 6.68713 131.195 6.22202C131.195 5.7569 131.287 5.32689 131.472 4.96708C131.657 4.60728 131.91 4.32645 132.237 4.13338C132.557 3.93154 132.919 3.83501 133.314 3.83501C133.709 3.83501 134.037 3.92276 134.331 4.09828H134.323ZM134.768 5.31811C134.634 5.05484 134.449 4.86177 134.222 4.72136C133.986 4.58095 133.734 4.51074 133.457 4.51074C133.179 4.51074 132.927 4.58095 132.7 4.71258C132.473 4.84422 132.288 5.04606 132.153 5.30934C132.019 5.57261 131.952 5.87976 131.952 6.23079C131.952 6.58183 132.019 6.89775 132.153 7.16103C132.288 7.4243 132.473 7.62614 132.7 7.76656C132.927 7.90697 133.179 7.97717 133.457 7.97717C133.734 7.97717 133.986 7.90697 134.222 7.76656C134.449 7.62614 134.634 7.4243 134.768 7.16103C134.903 6.89775 134.97 6.5906 134.97 6.23957C134.97 5.88854 134.903 5.58139 134.768 5.31811Z" fill="#004E81"/>
<path d="M140.326 3.91399L137.636 10.7679H136.87L137.753 8.52127L135.954 3.91399H136.778L138.182 7.68757L139.569 3.91399H140.335H140.326Z" fill="#004E81"/>
<path d="M142.361 4.04562C142.613 3.58051 142.95 3.2207 143.387 2.95743C143.816 2.69415 144.295 2.56252 144.825 2.56252C145.447 2.56252 145.985 2.72048 146.448 3.02763C146.91 3.33478 147.246 3.78235 147.457 4.35277H146.565C146.405 3.99297 146.178 3.72092 145.884 3.52785C145.59 3.33478 145.237 3.23825 144.825 3.23825C144.413 3.23825 144.076 3.33478 143.757 3.52785C143.446 3.72092 143.193 3.99297 143.017 4.35277C142.84 4.70381 142.748 5.12504 142.748 5.59893C142.748 6.07283 142.84 6.48529 143.017 6.83632C143.193 7.18735 143.446 7.46818 143.757 7.65247C144.076 7.84553 144.43 7.94207 144.825 7.94207C145.22 7.94207 145.59 7.84553 145.884 7.66124C146.178 7.46818 146.405 7.19613 146.565 6.8451H147.457C147.246 7.41552 146.91 7.84553 146.448 8.16146C145.985 8.47739 145.447 8.62658 144.825 8.62658C144.295 8.62658 143.816 8.49494 143.387 8.24044C142.958 7.98595 142.613 7.62614 142.361 7.16102C142.109 6.69591 141.983 6.18691 141.983 5.60771C141.983 5.02851 142.109 4.51074 142.361 4.04562Z" fill="#004E81"/>
<path d="M148.869 8.35452C148.533 8.15267 148.264 7.87185 148.07 7.51204C147.877 7.15223 147.784 6.72222 147.784 6.23955C147.784 5.75688 147.885 5.34442 148.079 4.97584C148.281 4.60726 148.55 4.32643 148.886 4.13337C149.231 3.9403 149.609 3.84377 150.038 3.84377C150.467 3.84377 150.845 3.9403 151.19 4.13337C151.535 4.32643 151.804 4.60726 151.997 4.96706C152.199 5.32687 152.291 5.74811 152.291 6.23078C152.291 6.71344 152.19 7.13468 151.989 7.50326C151.787 7.87185 151.509 8.15267 151.165 8.34574C150.82 8.53881 150.433 8.64412 150.004 8.64412C149.575 8.64412 149.205 8.54758 148.869 8.34574V8.35452ZM150.753 7.77531C150.988 7.64368 151.173 7.45061 151.316 7.18734C151.459 6.92406 151.535 6.60814 151.535 6.23955C151.535 5.87097 151.467 5.54627 151.324 5.29177C151.181 5.03727 150.996 4.83543 150.769 4.71257C150.542 4.58971 150.29 4.5195 150.029 4.5195C149.769 4.5195 149.508 4.58093 149.281 4.71257C149.054 4.8442 148.878 5.03727 148.743 5.29177C148.608 5.54627 148.541 5.87097 148.541 6.23955C148.541 6.60814 148.608 6.94161 148.743 7.19611C148.878 7.45939 149.054 7.65245 149.273 7.77531C149.491 7.90695 149.744 7.96838 150.004 7.96838C150.265 7.96838 150.517 7.90695 150.753 7.77531Z" fill="#004E81"/>
<path d="M152.661 8.4686C152.56 8.36329 152.518 8.24043 152.518 8.09124C152.518 7.94206 152.569 7.81919 152.661 7.71389C152.754 7.60858 152.88 7.5647 153.023 7.5647C153.166 7.5647 153.275 7.61735 153.368 7.71389C153.46 7.81919 153.51 7.94206 153.51 8.09124C153.51 8.24043 153.46 8.36329 153.368 8.4686C153.275 8.57391 153.157 8.61779 153.023 8.61779C152.888 8.61779 152.762 8.56514 152.661 8.4686Z" fill="#004E81"/>
<path d="M154.772 7.50328L153.864 9.79376H153.368L153.965 7.50328H154.78H154.772Z" fill="#004E81"/>
<path d="M157.555 7.94206H159.539V8.57392H156.807V2.65027H157.546V7.94206H157.555Z" fill="#004E81"/>
<path d="M160.75 4.55461V7.30142C160.75 7.52959 160.792 7.68756 160.893 7.78409C160.985 7.88063 161.145 7.9245 161.372 7.9245H161.919V8.58269H161.255C160.843 8.58269 160.531 8.48615 160.33 8.28431C160.119 8.08247 160.018 7.75777 160.018 7.3102V4.56338H159.438V3.92275H160.018V2.7468H160.758V3.92275H161.919V4.56338H160.758L160.75 4.55461Z" fill="#004E81"/>
<path d="M162.322 4.97585C162.507 4.61605 162.76 4.33522 163.088 4.14216C163.407 3.94031 163.777 3.84378 164.172 3.84378C164.517 3.84378 164.845 3.93154 165.139 4.09828C165.442 4.26502 165.669 4.48441 165.82 4.75646V2.29047H166.569V8.5827H165.82V7.70512C165.677 7.98595 165.459 8.21412 165.164 8.38963C164.878 8.56515 164.542 8.66168 164.155 8.66168C163.769 8.66168 163.399 8.55637 163.079 8.35453C162.76 8.15269 162.499 7.86309 162.314 7.4945C162.129 7.12592 162.036 6.70468 162.036 6.23957C162.036 5.77445 162.129 5.34444 162.314 4.98463L162.322 4.97585ZM165.618 5.31811C165.484 5.05484 165.299 4.86177 165.072 4.72136C164.845 4.58094 164.584 4.51074 164.307 4.51074C164.029 4.51074 163.777 4.58094 163.55 4.71258C163.323 4.84422 163.138 5.04606 163.003 5.30933C162.869 5.57261 162.802 5.87976 162.802 6.23079C162.802 6.58182 162.869 6.89775 163.003 7.16102C163.138 7.4243 163.323 7.62614 163.55 7.76655C163.777 7.90697 164.029 7.97717 164.307 7.97717C164.584 7.97717 164.836 7.90697 165.072 7.76655C165.307 7.62614 165.484 7.4243 165.618 7.16102C165.753 6.89775 165.82 6.5906 165.82 6.23957C165.82 5.88854 165.753 5.58138 165.618 5.31811Z" fill="#004E81"/>
<path d="M171.471 5.83589H198.386" stroke="#004E81" stroke-width="0.25" stroke-miterlimit="10"/>
</svg>
