<svg width="200" height="200" viewBox="0 0 200 200" fill="none" xmlns="http://www.w3.org/2000/svg">
<path d="M107.844 118.719H71.0312V170.656H45.3438V29.0625H107.844C123.75 29.0625 135.437 32.875 142.906 40.4687C150.375 48.0625 154.094 56.625 154.094 72.5312C154.094 105.437 138.687 118.719 107.844 118.719Z" fill="#004E81"/>
<path d="M88.5 171.469H74.4688V122H88.5V171.469ZM76.0625 169.875H86.9062V123.594H76.0625V169.875Z" fill="#004E81"/>
<path d="M121.312 171.469H109L103.906 154.375V171.469H91.9062V122H103.688L109.281 139.313V122H121.281V171.469H121.312ZM110.187 169.875H119.719V123.594H110.906V149.406L102.562 123.594H93.5313V169.875H102.344V143.438L110.219 169.875H110.187Z" fill="#004E81"/>
<path d="M147.906 171.469H124.719V122H147.063V133.187H138.75V140.687H146.531V151.375H138.75V160.312H147.875V171.5L147.906 171.469ZM126.312 169.844H146.312V161.844H137.188V149.719H144.969V142.187H137.188V131.5H145.5V123.5H126.344V169.844H126.312Z" fill="#004E81"/>
<path d="M88.7813 50.8438V98H76.5312V50.8438H88.7813Z" fill="#ECC21A"/>
<path d="M118.406 50.8438V60.2813H111.125V98H98.875V60.2813H91.625V50.8438H118.406Z" fill="#ECC21A"/>
</svg>
