<svg width="251" height="60" viewBox="0 0 251 60" fill="none" xmlns="http://www.w3.org/2000/svg">
<g filter="url(#filter0_d_8_1636)">
<path d="M24.9529 32.4937H12.9821V51.2654H4.62891V0.0893555H24.9529C30.1254 0.0893555 33.926 1.4673 36.3547 4.2119C38.7834 6.9565 39.9927 10.0512 39.9927 15.8002C39.9927 27.6935 34.9828 32.4937 24.9529 32.4937Z" fill="white" fill-opacity="0.3"/>
<path d="M18.6627 51.5586H14.0999V33.6792H18.6627V51.5586ZM14.6182 50.9826H18.1444V34.2552H14.6182V50.9826Z" fill="white" fill-opacity="0.3"/>
<path d="M29.3327 51.5586H25.3289L23.6725 45.3804V51.5586H19.7703V33.6792H23.6014L25.4204 39.9364V33.6792H29.3226V51.5586H29.3327ZM25.7151 50.9826H28.8145V34.2552H25.9488V43.5846L23.2355 34.2552H20.2987V50.9826H23.1644V41.4273L25.7252 50.9826H25.7151Z" fill="white" fill-opacity="0.3"/>
<path d="M37.9806 51.5586H30.4404V33.6792H37.7062V37.7227H35.0031V40.4334H37.5335V44.2962H35.0031V47.5264H37.9704V51.5699L37.9806 51.5586ZM30.9587 50.9826H37.4623V48.0912H34.495V43.7088H37.0254V40.9868H34.495V37.1241H37.1981V34.2326H30.9688V50.96L30.9587 50.9826Z" fill="white" fill-opacity="0.3"/>
<path d="M18.7541 7.96143V25.005H14.7706V7.96143H18.7541Z" fill="black" fill-opacity="0.6"/>
<path d="M28.3877 7.96143V11.3724H26.0199V25.005H22.0364V11.3724H19.6788V7.96143H28.3877Z" fill="black" fill-opacity="0.6"/>
<path d="M43.2748 43.6081H54.7274V35.939H60.0319V43.6081H71.4845V48.4309H43.2748V43.6081ZM60.54 16.3315V21.2786C60.54 23.1761 60.3165 24.9606 59.8592 26.621L71.4134 34.1319L68.8119 38.4803L57.6947 31.2857C55.2355 34.787 51.2113 37.317 45.6019 38.8756L43.6101 34.3239C47.6648 33.3526 50.6117 31.7826 52.4511 29.6366C54.2904 27.4906 55.205 24.6896 55.205 21.2334V16.3315H60.54Z" fill="white" fill-opacity="0.3"/>
<path d="M78.7503 16.1734V43.2128H90.9854V48.0356H73.4458V16.1734H78.7503ZM99.5316 27.7617H102.468V32.5846H99.5316V48.4422H94.2271V15.3828H99.5316V27.7617Z" fill="white" fill-opacity="0.3"/>
<path d="M102.743 37.9608H130.953V42.7836H119.5V49.662H114.195V42.7836H102.743V37.9608ZM104.399 16.3315H129.296V34.1206H104.399V16.3315ZM109.704 29.2978H123.992V21.1544H109.704V29.2978Z" fill="white" fill-opacity="0.3"/>
<path d="M132.639 15.9808H151.053V19.2224H143.381V22.4978C143.381 23.3449 143.289 24.1807 143.106 25.0278L151.419 31.1608L149.63 33.8941L141.795 28.0774C140.942 29.3989 139.804 30.517 138.381 31.4432C136.958 32.3694 135.312 33.1374 133.452 33.7699L131.969 30.8898C133.117 30.5509 134.174 30.133 135.139 29.6473C136.105 29.1617 136.948 28.5856 137.67 27.9306C138.391 27.2755 138.95 26.4961 139.357 25.5926C139.763 24.7003 139.966 23.6612 139.966 22.4752V19.2337H132.629V15.9921L132.639 15.9808ZM146.693 49.8196C144.732 49.8196 142.964 49.6727 141.369 49.3904C139.773 49.108 138.432 48.6675 137.334 48.0802C136.227 47.5042 135.383 46.77 134.784 45.889C134.184 45.0081 133.889 43.969 133.889 42.783C133.889 41.5971 134.184 40.558 134.784 39.677C135.383 38.796 136.227 38.0731 137.334 37.5084C138.442 36.9437 139.783 36.5145 141.369 36.2208C142.954 35.9272 144.732 35.7916 146.693 35.7916C148.655 35.7916 150.423 35.9385 152.018 36.2208C153.604 36.5145 154.955 36.9437 156.053 37.5084C157.16 38.0731 158.004 38.796 158.603 39.677C159.203 40.558 159.498 41.5971 159.498 42.783C159.498 43.969 159.203 45.0081 158.603 45.889C158.004 46.77 157.16 47.5042 156.053 48.0802C154.945 48.6562 153.604 49.0967 152.018 49.3904C150.433 49.684 148.655 49.8196 146.693 49.8196ZM146.693 46.578C148.137 46.578 149.437 46.499 150.596 46.3408C151.754 46.1827 152.75 45.9455 153.573 45.6293C154.396 45.313 155.026 44.9177 155.463 44.4433C155.9 43.969 156.124 43.4155 156.124 42.783C156.124 42.1505 155.9 41.6084 155.463 41.1453C155.026 40.6822 154.396 40.2982 153.573 39.9819C152.75 39.6657 151.764 39.4285 150.596 39.2704C149.427 39.1123 148.137 39.0332 146.693 39.0332C145.25 39.0332 143.95 39.1123 142.791 39.2704C141.633 39.4285 140.637 39.6657 139.814 39.9819C138.991 40.2982 138.361 40.6822 137.924 41.1453C137.487 41.6084 137.263 42.1505 137.263 42.783C137.263 43.4155 137.487 43.969 137.924 44.4433C138.361 44.9177 138.991 45.313 139.814 45.6293C140.637 45.9455 141.623 46.1827 142.791 46.3408C143.95 46.499 145.25 46.578 146.693 46.578ZM158.827 15.5855V35.193H155.443V24.7906L149.6 26.3719V23.1303L155.443 21.5491V15.5742H158.827V15.5855Z" fill="white" fill-opacity="0.3"/>
<path d="M161.367 44.9971H173.257V38.0848H163.014V16.3765H166.398V24.2375H183.531V16.3765H186.915V38.0848H176.641V44.9971H188.571V48.2387H161.367V44.9971ZM183.531 27.4904H166.398V34.8432H183.531V27.4904Z" fill="white" fill-opacity="0.3"/>
<path d="M204.343 47.843V19.6177H190.858V16.3761H207.716V47.843H204.332H204.343ZM216.608 48.2383H213.224V15.5742H216.608V48.227V48.2383Z" fill="white" fill-opacity="0.3"/>
<path d="M219.138 29.2636H246.342V32.5052H234.412V35.3175H244.686V43.8224H224.179V45.799H245.021V49.0405H220.795V40.5808H241.302V38.5591H220.795V35.3175H231.028V32.5052H219.138V29.2636ZM234.95 15.1905V15.8569C234.95 17.0993 234.727 18.2739 234.27 19.3808L244.98 23.605L243.598 26.6884L232.278 22.2158C230.093 24.294 226.486 25.7736 221.466 26.6433L220.185 23.5598C222.238 23.221 223.986 22.7918 225.439 22.2948C226.892 21.7979 228.071 21.2105 228.965 20.5555C229.869 19.9004 230.53 19.1662 230.947 18.3869C231.363 17.5963 231.577 16.7379 231.577 15.8117V15.1792H234.961L234.95 15.1905Z" fill="white" fill-opacity="0.3"/>
<path d="M54.1484 7.30678C53.7622 7.72468 53.1627 7.93928 52.3599 7.93928H51.0388V11.1244H50.1446V3.50049H52.3599C53.1322 3.50049 53.7216 3.70379 54.1281 4.12169C54.5345 4.5396 54.7378 5.07044 54.7378 5.72553C54.7378 6.38062 54.5447 6.88888 54.1484 7.30678ZM53.4675 6.75335C53.7013 6.51616 53.8232 6.16602 53.8232 5.72553C53.8232 4.78808 53.3354 4.3137 52.37 4.3137H51.049V7.11477H52.37C52.868 7.11477 53.2338 6.99053 53.4675 6.75335Z" fill="white" fill-opacity="0.3"/>
<path d="M55.2867 3.9529C55.1647 3.81736 55.1139 3.65924 55.1139 3.46723C55.1139 3.27522 55.1749 3.1171 55.2867 2.98156C55.3985 2.84602 55.5509 2.78955 55.7236 2.78955C55.8964 2.78955 56.0285 2.85732 56.1403 2.98156C56.2521 3.1171 56.313 3.27522 56.313 3.46723C56.313 3.65924 56.2521 3.81736 56.1403 3.9529C56.0285 4.08843 55.8862 4.14491 55.7236 4.14491C55.561 4.14491 55.4086 4.07714 55.2867 3.9529ZM56.1504 5.12754V11.125H55.2562V5.12754H56.1504Z" fill="white" fill-opacity="0.3"/>
<path d="M61.3126 5.68042C61.7191 6.12091 61.9223 6.75341 61.9223 7.58921V11.1244H61.0382V7.73604C61.0382 7.13742 60.9061 6.68564 60.6317 6.35809C60.3675 6.04184 59.9915 5.88372 59.5342 5.88372C59.077 5.88372 58.6908 6.05314 58.4063 6.38068C58.1319 6.70823 57.9896 7.1826 57.9896 7.8151V11.1357H57.0954V5.13827H57.9896V5.99667C58.1624 5.69171 58.4063 5.45452 58.7111 5.2851C59.016 5.11568 59.3513 5.03662 59.7172 5.03662C60.3777 5.03662 60.9061 5.26251 61.3126 5.703V5.68042Z" fill="white" fill-opacity="0.3"/>
<path d="M67.6843 8.49272H63.3756C63.4061 9.08004 63.589 9.54312 63.9244 9.88196C64.2597 10.2095 64.656 10.3789 65.1336 10.3789C65.5198 10.3789 65.845 10.2773 66.099 10.074C66.3531 9.87066 66.536 9.59959 66.6478 9.27205H67.6132C67.4709 9.84807 67.1762 10.3225 66.7494 10.6839C66.3124 11.0453 65.7738 11.226 65.1336 11.226C64.6255 11.226 64.1682 11.1018 63.7618 10.842C63.3553 10.5822 63.0403 10.2208 62.8065 9.75772C62.5728 9.28334 62.461 8.7412 62.461 8.11999C62.461 7.49879 62.5728 6.95665 62.7964 6.49357C63.0199 6.03049 63.335 5.66906 63.7414 5.42057C64.1479 5.17209 64.6052 5.04785 65.1336 5.04785C65.6621 5.04785 66.099 5.17209 66.4953 5.42057C66.8917 5.66906 67.1965 6.0079 67.4099 6.44839C67.6233 6.87758 67.7249 7.37455 67.7249 7.91669C67.7249 8.1087 67.7249 8.312 67.6945 8.51531L67.6843 8.49272ZM66.5665 6.70816C66.414 6.43709 66.2108 6.22249 65.9466 6.08696C65.6925 5.94013 65.3978 5.87236 65.0828 5.87236C64.6255 5.87236 64.2394 6.03049 63.9244 6.35803C63.6093 6.68558 63.4264 7.12607 63.3756 7.6908H66.7799C66.7799 7.30678 66.6986 6.99053 66.5563 6.70816H66.5665Z" fill="white" fill-opacity="0.3"/>
<path d="M71.2409 3.50049V11.1244H70.3466V3.50049H71.2409Z" fill="white" fill-opacity="0.3"/>
<path d="M76.4032 5.68042C76.8096 6.12091 77.0129 6.75341 77.0129 7.58921V11.1244H76.1288V7.73604C76.1288 7.13742 75.9967 6.68564 75.7223 6.35809C75.4581 6.04184 75.0821 5.88372 74.6248 5.88372C74.1675 5.88372 73.7814 6.05314 73.4968 6.38068C73.2225 6.70823 73.0802 7.1826 73.0802 7.8151V11.1357H72.1859V5.13827H73.0802V5.99667C73.253 5.69171 73.4968 5.45452 73.8017 5.2851C74.1066 5.11568 74.4419 5.03662 74.8077 5.03662C75.4683 5.03662 75.9967 5.26251 76.4032 5.703V5.68042Z" fill="white" fill-opacity="0.3"/>
<path d="M80.0818 5.95169H78.9538V11.1246H78.0596V5.95169H77.3584V5.12718H78.0596V4.69799C78.0596 4.0316 78.212 3.53464 78.527 3.22968C78.8421 2.92473 79.34 2.7666 80.031 2.7666V3.60241C79.6347 3.60241 79.3603 3.69276 79.1977 3.86218C79.0351 4.0316 78.9538 4.31397 78.9538 4.70928V5.13848H80.0818V5.96299V5.95169Z" fill="white" fill-opacity="0.3"/>
<path d="M81.5147 10.8421C81.1082 10.5823 80.783 10.2209 80.5493 9.75778C80.3156 9.28341 80.2038 8.74126 80.2038 8.12006C80.2038 7.49885 80.3257 6.968 80.5595 6.49363C80.8034 6.01925 81.1285 5.65783 81.535 5.40934C81.9517 5.16086 82.409 5.03662 82.9272 5.03662C83.4455 5.03662 83.9028 5.16086 84.3194 5.40934C84.736 5.65783 85.0612 6.01925 85.295 6.48234C85.5388 6.94542 85.6506 7.48756 85.6506 8.10876C85.6506 8.72997 85.5287 9.27211 85.2848 9.74649C85.0409 10.2209 84.7056 10.5823 84.2889 10.8308C83.8723 11.0905 83.4048 11.2148 82.8866 11.2148C82.3683 11.2148 81.9212 11.0905 81.5147 10.8308V10.8421ZM83.791 10.0966C84.0755 9.9272 84.2991 9.67872 84.4718 9.33988C84.6446 9.00104 84.736 8.59443 84.736 8.12006C84.736 7.64568 84.6548 7.22778 84.482 6.90024C84.3092 6.57269 84.0857 6.31292 83.8113 6.15479C83.5369 5.98537 83.2422 5.90631 82.917 5.90631C82.5919 5.90631 82.287 5.98537 82.0126 6.15479C81.7383 6.32421 81.5249 6.57269 81.3623 6.90024C81.1997 7.23908 81.1184 7.64568 81.1184 8.12006C81.1184 8.59443 81.1997 9.02363 81.3623 9.35117C81.5249 9.69001 81.7383 9.9385 82.0025 10.0966C82.2667 10.266 82.5715 10.3451 82.8866 10.3451C83.2016 10.3451 83.5064 10.266 83.791 10.0966Z" fill="white" fill-opacity="0.3"/>
<path d="M87.8151 5.30824C88.1098 5.11624 88.4655 5.02588 88.8821 5.02588V6.05369H88.6484C87.6423 6.05369 87.1444 6.6636 87.1444 7.87213V11.1363H86.2502V5.13883H87.1444V6.11016C87.307 5.77133 87.5306 5.50025 87.8151 5.30824Z" fill="white" fill-opacity="0.3"/>
<path d="M96.9304 5.30824C97.2556 5.50025 97.5198 5.79391 97.7129 6.17793C97.906 6.56195 97.9974 7.03633 97.9974 7.58976V11.125H97.1134V7.73659C97.1134 7.13798 96.9812 6.68619 96.717 6.35865C96.4528 6.0424 96.087 5.88427 95.6399 5.88427C95.1927 5.88427 94.8066 6.05369 94.5322 6.38124C94.2578 6.70878 94.1156 7.19445 94.1156 7.81566V11.125H93.2315V7.73659C93.2315 7.13798 93.0994 6.68619 92.8351 6.35865C92.5709 6.0424 92.2051 5.88427 91.758 5.88427C91.3108 5.88427 90.9247 6.05369 90.6503 6.38124C90.3759 6.70878 90.2337 7.19445 90.2337 7.81566V11.125H89.3394V5.12753H90.2337V5.99722C90.4064 5.68097 90.6503 5.44378 90.945 5.27436C91.2397 5.10494 91.5751 5.02588 91.9307 5.02588C92.388 5.02588 92.7843 5.13883 93.1298 5.36472C93.4753 5.59061 93.7396 5.91816 93.9022 6.35865C94.0546 5.94075 94.2985 5.60191 94.6541 5.37601C94.9996 5.13883 95.3858 5.02588 95.8126 5.02588C96.2394 5.02588 96.6052 5.12753 96.9304 5.31954V5.30824Z" fill="white" fill-opacity="0.3"/>
<path d="M98.8714 6.49363C99.0949 6.03055 99.3998 5.66912 99.7961 5.42064C100.182 5.16086 100.619 5.03662 101.097 5.03662C101.574 5.03662 101.981 5.14957 102.326 5.37546C102.672 5.60135 102.936 5.88372 103.109 6.23385V5.13827H104.013V11.1357H103.109V10.0176C102.936 10.3677 102.672 10.6614 102.316 10.8872C101.961 11.1131 101.554 11.2374 101.087 11.2374C100.619 11.2374 100.172 11.1018 99.7859 10.8421C99.3998 10.5823 99.0949 10.2096 98.8714 9.73519C98.6478 9.26082 98.536 8.71867 98.536 8.12006C98.536 7.52144 98.6478 6.968 98.8714 6.50492V6.49363ZM102.855 6.93412C102.692 6.59528 102.469 6.3468 102.194 6.16609C101.91 5.98537 101.605 5.89501 101.27 5.89501C100.934 5.89501 100.629 5.98537 100.355 6.15479C100.081 6.32421 99.8571 6.58399 99.6945 6.92283C99.5319 7.26167 99.4506 7.65698 99.4506 8.10876C99.4506 8.56055 99.5319 8.96716 99.6945 9.306C99.8571 9.64483 100.081 9.90461 100.355 10.0853C100.629 10.266 100.934 10.3564 101.27 10.3564C101.605 10.3564 101.91 10.266 102.194 10.0853C102.469 9.90461 102.692 9.64483 102.855 9.306C103.017 8.96716 103.099 8.57184 103.099 8.12006C103.099 7.66827 103.017 7.27296 102.855 6.93412Z" fill="white" fill-opacity="0.3"/>
<path d="M106.025 5.9517V9.48692C106.025 9.78058 106.076 9.98388 106.198 10.1081C106.31 10.2324 106.503 10.2888 106.777 10.2888H107.438V11.1359H106.635C106.137 11.1359 105.761 11.0117 105.517 10.7519C105.263 10.4921 105.141 10.0742 105.141 9.49821V5.96299H104.44V5.13848H105.141V3.625H106.036V5.13848H107.438V5.96299H106.036L106.025 5.9517Z" fill="white" fill-opacity="0.3"/>
<path d="M107.956 3.9529C107.834 3.81736 107.784 3.65924 107.784 3.46723C107.784 3.27522 107.845 3.1171 107.956 2.98156C108.068 2.84602 108.221 2.78955 108.393 2.78955C108.566 2.78955 108.698 2.85732 108.81 2.98156C108.922 3.1058 108.983 3.27522 108.983 3.46723C108.983 3.65924 108.922 3.81736 108.81 3.9529C108.698 4.08843 108.556 4.14491 108.393 4.14491C108.231 4.14491 108.078 4.07714 107.956 3.9529ZM108.82 5.12754V11.125H107.926V5.12754H108.82Z" fill="white" fill-opacity="0.3"/>
<path d="M110.741 10.8421C110.334 10.5823 110.009 10.2209 109.775 9.75778C109.541 9.2947 109.43 8.74126 109.43 8.12006C109.43 7.49885 109.552 6.968 109.785 6.49363C110.029 6.01925 110.354 5.65783 110.761 5.40934C111.178 5.16086 111.635 5.03662 112.153 5.03662C112.671 5.03662 113.129 5.16086 113.545 5.40934C113.962 5.65783 114.287 6.01925 114.521 6.48234C114.765 6.94542 114.877 7.48756 114.877 8.10876C114.877 8.72997 114.755 9.27211 114.511 9.74649C114.267 10.2209 113.931 10.5823 113.515 10.8308C113.098 11.0793 112.631 11.2148 112.112 11.2148C111.594 11.2148 111.147 11.0905 110.741 10.8308V10.8421ZM113.017 10.0966C113.301 9.9272 113.525 9.67872 113.698 9.33988C113.87 9.00104 113.962 8.59443 113.962 8.12006C113.962 7.64568 113.881 7.22778 113.708 6.90024C113.535 6.57269 113.312 6.31292 113.037 6.15479C112.763 5.99667 112.458 5.90631 112.143 5.90631C111.828 5.90631 111.513 5.98537 111.239 6.15479C110.964 6.32421 110.751 6.57269 110.588 6.90024C110.426 7.22778 110.344 7.64568 110.344 8.12006C110.344 8.59443 110.426 9.02363 110.588 9.35117C110.751 9.69001 110.964 9.9385 111.228 10.0966C111.493 10.266 111.797 10.3451 112.112 10.3451C112.427 10.3451 112.732 10.266 113.017 10.0966Z" fill="white" fill-opacity="0.3"/>
<path d="M119.693 5.68042C120.1 6.12091 120.303 6.75341 120.303 7.58921V11.1244H119.419V7.73604C119.419 7.13742 119.287 6.68564 119.012 6.35809C118.748 6.04184 118.372 5.88372 117.915 5.88372C117.458 5.88372 117.072 6.05314 116.787 6.38068C116.513 6.70823 116.37 7.1826 116.37 7.8151V11.1357H115.476V5.13827H116.37V5.99667C116.543 5.69171 116.787 5.45452 117.092 5.2851C117.397 5.11568 117.732 5.03662 118.098 5.03662C118.758 5.03662 119.287 5.26251 119.693 5.703V5.68042Z" fill="white" fill-opacity="0.3"/>
<path d="M127.437 3.50104V4.31426H125.567V11.1249H124.673V4.30296H122.793V3.48975H127.437V3.50104Z" fill="white" fill-opacity="0.3"/>
<path d="M132.843 8.49272H128.534C128.565 9.08004 128.748 9.54312 129.083 9.88196C129.419 10.2095 129.815 10.3789 130.293 10.3789C130.679 10.3789 131.004 10.2773 131.258 10.074C131.512 9.87066 131.695 9.59959 131.807 9.27205H132.772C132.63 9.84807 132.335 10.3225 131.908 10.6839C131.471 11.0453 130.933 11.226 130.293 11.226C129.784 11.226 129.327 11.1018 128.921 10.842C128.514 10.5822 128.199 10.2208 127.965 9.75772C127.732 9.28334 127.62 8.7412 127.62 8.11999C127.62 7.49879 127.732 6.95665 127.955 6.49357C128.179 6.03049 128.494 5.66906 128.9 5.42057C129.307 5.17209 129.764 5.04785 130.293 5.04785C130.821 5.04785 131.258 5.17209 131.654 5.42057C132.051 5.66906 132.355 6.0079 132.569 6.44839C132.782 6.87758 132.884 7.37455 132.884 7.91669C132.884 8.1087 132.884 8.312 132.853 8.51531L132.843 8.49272ZM131.725 6.70816C131.573 6.43709 131.37 6.22249 131.105 6.08696C130.851 5.94013 130.557 5.87236 130.242 5.87236C129.784 5.87236 129.398 6.03049 129.083 6.35803C128.768 6.67428 128.585 7.12607 128.534 7.6908H131.939C131.939 7.30678 131.857 6.99053 131.715 6.70816H131.725Z" fill="white" fill-opacity="0.3"/>
<path d="M133.463 6.49363C133.686 6.03055 133.991 5.66912 134.398 5.42064C134.804 5.17216 135.251 5.03662 135.759 5.03662C136.42 5.03662 136.969 5.21734 137.396 5.56747C137.822 5.9289 138.107 6.42586 138.249 7.05836H137.284C137.192 6.69693 137.009 6.40327 136.745 6.18867C136.481 5.97408 136.146 5.87242 135.759 5.87242C135.251 5.87242 134.835 6.06443 134.52 6.45975C134.205 6.85506 134.052 7.3972 134.052 8.12006C134.052 8.84292 134.215 9.39635 134.52 9.79167C134.835 10.187 135.251 10.379 135.759 10.379C136.156 10.379 136.481 10.2773 136.745 10.074C137.009 9.87073 137.192 9.57707 137.284 9.20434H138.249C138.107 9.81425 137.812 10.3112 137.385 10.6726C136.948 11.0454 136.41 11.2261 135.759 11.2261C135.251 11.2261 134.794 11.1018 134.398 10.8421C134.001 10.5823 133.686 10.2209 133.463 9.75778C133.239 9.2947 133.127 8.74126 133.127 8.12006C133.127 7.49885 133.239 6.95671 133.463 6.49363Z" fill="white" fill-opacity="0.3"/>
<path d="M142.629 5.30788C142.954 5.49989 143.218 5.79355 143.401 6.17757C143.584 6.56159 143.686 7.03597 143.686 7.5894V11.1246H142.802V7.73623C142.802 7.13762 142.67 6.68583 142.395 6.35829C142.131 6.04204 141.755 5.88391 141.298 5.88391C140.84 5.88391 140.454 6.05333 140.17 6.38088C139.895 6.70842 139.753 7.1828 139.753 7.8153V11.1359H138.859V3.02637H139.753V5.98556C139.926 5.68061 140.18 5.44342 140.485 5.274C140.79 5.10458 141.145 5.02552 141.531 5.02552C141.938 5.02552 142.304 5.12717 142.629 5.31918V5.30788Z" fill="white" fill-opacity="0.3"/>
<path d="M148.777 5.68042C149.183 6.12091 149.387 6.75341 149.387 7.58921V11.1244H148.503V7.73604C148.503 7.13742 148.37 6.68564 148.096 6.35809C147.832 6.04184 147.456 5.88372 146.999 5.88372C146.541 5.88372 146.155 6.05314 145.871 6.38068C145.596 6.70823 145.454 7.1826 145.454 7.8151V11.1357H144.56V5.13827H145.454V5.99667C145.627 5.69171 145.871 5.45452 146.175 5.2851C146.48 5.11568 146.816 5.03662 147.182 5.03662C147.842 5.03662 148.37 5.26251 148.777 5.703V5.68042Z" fill="white" fill-opacity="0.3"/>
<path d="M151.246 10.8421C150.84 10.5823 150.515 10.2209 150.281 9.75778C150.047 9.28341 149.935 8.74126 149.935 8.12006C149.935 7.49885 150.057 6.968 150.291 6.49363C150.535 6.01925 150.86 5.65783 151.267 5.40934C151.683 5.16086 152.141 5.03662 152.659 5.03662C153.177 5.03662 153.634 5.16086 154.051 5.40934C154.468 5.65783 154.793 6.01925 155.027 6.48234C155.27 6.94542 155.382 7.48756 155.382 8.10876C155.382 8.72997 155.26 9.27211 155.016 9.74649C154.773 10.2209 154.437 10.5823 154.021 10.8308C153.604 11.0905 153.136 11.2148 152.618 11.2148C152.1 11.2148 151.653 11.0905 151.246 10.8308V10.8421ZM153.523 10.0966C153.807 9.9272 154.031 9.67872 154.203 9.33988C154.376 9.00104 154.468 8.59443 154.468 8.12006C154.468 7.64568 154.386 7.22778 154.214 6.90024C154.041 6.57269 153.817 6.31292 153.543 6.15479C153.269 5.98537 152.974 5.90631 152.649 5.90631C152.323 5.90631 152.019 5.98537 151.744 6.15479C151.47 6.32421 151.256 6.57269 151.094 6.90024C150.931 7.23908 150.85 7.64568 150.85 8.12006C150.85 8.59443 150.931 9.02363 151.094 9.35117C151.256 9.69001 151.47 9.9385 151.734 10.0966C151.998 10.266 152.303 10.3451 152.618 10.3451C152.933 10.3451 153.238 10.266 153.523 10.0966Z" fill="white" fill-opacity="0.3"/>
<path d="M156.866 3.02637V11.1246H155.972V3.02637H156.866Z" fill="white" fill-opacity="0.3"/>
<path d="M158.787 10.8421C158.38 10.5823 158.055 10.2209 157.821 9.75778C157.587 9.2947 157.476 8.74126 157.476 8.12006C157.476 7.49885 157.598 6.968 157.831 6.49363C158.075 6.01925 158.4 5.65783 158.807 5.40934C159.224 5.16086 159.681 5.03662 160.199 5.03662C160.717 5.03662 161.175 5.16086 161.591 5.40934C162.008 5.65783 162.333 6.01925 162.567 6.48234C162.811 6.94542 162.922 7.48756 162.922 8.10876C162.922 8.72997 162.801 9.27211 162.557 9.74649C162.313 10.2209 161.977 10.5823 161.561 10.8308C161.144 11.0793 160.677 11.2148 160.158 11.2148C159.64 11.2148 159.193 11.0905 158.787 10.8308V10.8421ZM161.063 10.0966C161.347 9.9272 161.571 9.67872 161.744 9.33988C161.916 9.00104 162.008 8.59443 162.008 8.12006C162.008 7.64568 161.927 7.22778 161.754 6.90024C161.581 6.5614 161.358 6.31292 161.083 6.15479C160.809 5.99667 160.504 5.90631 160.189 5.90631C159.874 5.90631 159.559 5.98537 159.284 6.15479C159.01 6.32421 158.797 6.57269 158.634 6.90024C158.472 7.22778 158.39 7.64568 158.39 8.12006C158.39 8.59443 158.472 9.02363 158.634 9.35117C158.797 9.69001 159.01 9.9385 159.274 10.0966C159.539 10.266 159.843 10.3451 160.158 10.3451C160.473 10.3451 160.778 10.266 161.063 10.0966Z" fill="white" fill-opacity="0.3"/>
<path d="M166.967 5.36472C167.312 5.59061 167.577 5.87298 167.749 6.22311V5.12753H168.654V11.2492C168.654 11.7914 168.552 12.2883 168.339 12.7062C168.125 13.1354 167.831 13.463 167.434 13.7115C167.048 13.9486 166.591 14.0729 166.073 14.0729C165.361 14.0729 164.772 13.8922 164.305 13.5195C163.837 13.1467 163.553 12.6385 163.471 11.9947H164.355C164.457 12.3561 164.66 12.6498 164.965 12.8757C165.27 13.1015 165.646 13.2145 166.073 13.2145C166.56 13.2145 166.967 13.0451 167.282 12.6949C167.597 12.3561 167.749 11.8704 167.749 11.2492V9.99552C167.577 10.3457 167.312 10.6393 166.967 10.8652C166.621 11.1024 166.215 11.2153 165.748 11.2153C165.28 11.2153 164.833 11.0798 164.447 10.82C164.061 10.5603 163.746 10.1875 163.522 9.71316C163.298 9.23878 163.187 8.69664 163.187 8.09802C163.187 7.49941 163.298 6.94597 163.522 6.48289C163.746 6.01981 164.05 5.65838 164.447 5.4099C164.833 5.15012 165.27 5.02588 165.748 5.02588C166.225 5.02588 166.621 5.13883 166.977 5.36472H166.967ZM167.506 6.93467C167.343 6.59583 167.119 6.34735 166.845 6.16664C166.56 5.98592 166.256 5.89557 165.92 5.89557C165.585 5.89557 165.28 5.98592 165.006 6.15534C164.731 6.32476 164.508 6.58454 164.345 6.92338C164.183 7.26222 164.101 7.65753 164.101 8.10932C164.101 8.5611 164.183 8.96771 164.345 9.30655C164.508 9.64539 164.731 9.90516 165.006 10.0859C165.28 10.2666 165.585 10.3569 165.92 10.3569C166.256 10.3569 166.56 10.2666 166.845 10.0859C167.119 9.90516 167.343 9.64539 167.506 9.30655C167.668 8.96771 167.749 8.5724 167.749 8.12061C167.749 7.66883 167.668 7.27351 167.506 6.93467Z" fill="white" fill-opacity="0.3"/>
<path d="M174.223 5.12695L170.971 13.9481H170.046L171.113 11.0566L168.938 5.12695H169.934L171.631 9.98365L173.308 5.12695H174.233H174.223Z" fill="white" fill-opacity="0.3"/>
<path d="M176.682 5.29698C176.986 4.69836 177.393 4.23528 177.921 3.89644C178.44 3.5576 179.019 3.38818 179.659 3.38818C180.411 3.38818 181.061 3.59149 181.62 3.9868C182.179 4.38211 182.586 4.95814 182.84 5.69229H181.763C181.57 5.22921 181.295 4.87908 180.94 4.63059C180.584 4.38211 180.157 4.25787 179.659 4.25787C179.161 4.25787 178.755 4.38211 178.369 4.63059C177.993 4.87908 177.688 5.22921 177.474 5.69229C177.261 6.14408 177.149 6.68622 177.149 7.29613C177.149 7.90604 177.261 8.43689 177.474 8.88867C177.688 9.34046 177.993 9.70189 178.369 9.93908C178.755 10.1876 179.181 10.3118 179.659 10.3118C180.137 10.3118 180.584 10.1876 180.94 9.95037C181.295 9.70189 181.57 9.35176 181.763 8.89997H182.84C182.586 9.63412 182.179 10.1876 181.62 10.5942C181.061 11.0008 180.411 11.1928 179.659 11.1928C179.019 11.1928 178.44 11.0234 177.921 10.6958C177.403 10.3683 176.986 9.90519 176.682 9.30658C176.377 8.70796 176.224 8.05287 176.224 7.30742C176.224 6.56198 176.377 5.89559 176.682 5.29698Z" fill="white" fill-opacity="0.3"/>
<path d="M184.547 10.8421C184.141 10.5823 183.816 10.2209 183.582 9.75778C183.348 9.2947 183.236 8.74126 183.236 8.12006C183.236 7.49885 183.358 6.968 183.592 6.49363C183.836 6.01925 184.161 5.65783 184.568 5.40934C184.984 5.16086 185.441 5.03662 185.96 5.03662C186.478 5.03662 186.935 5.16086 187.352 5.40934C187.769 5.65783 188.094 6.01925 188.327 6.48234C188.571 6.94542 188.683 7.48756 188.683 8.10876C188.683 8.72997 188.561 9.27211 188.317 9.74649C188.073 10.2209 187.738 10.5823 187.321 10.8308C186.905 11.0793 186.437 11.2148 185.919 11.2148C185.401 11.2148 184.954 11.0905 184.547 10.8308V10.8421ZM186.823 10.0966C187.108 9.9272 187.332 9.67872 187.504 9.33988C187.677 9.00104 187.769 8.59443 187.769 8.12006C187.769 7.64568 187.687 7.22778 187.515 6.90024C187.342 6.57269 187.118 6.31292 186.844 6.15479C186.569 5.99667 186.265 5.90631 185.95 5.90631C185.635 5.90631 185.32 5.98537 185.045 6.15479C184.771 6.32421 184.557 6.57269 184.395 6.90024C184.232 7.22778 184.151 7.64568 184.151 8.12006C184.151 8.59443 184.232 9.02363 184.395 9.35117C184.557 9.69001 184.771 9.9385 185.035 10.0966C185.299 10.266 185.604 10.3451 185.919 10.3451C186.234 10.3451 186.539 10.266 186.823 10.0966Z" fill="white" fill-opacity="0.3"/>
<path d="M189.13 10.989C189.008 10.8535 188.958 10.6954 188.958 10.5034C188.958 10.3114 189.018 10.1532 189.13 10.0177C189.242 9.88216 189.394 9.82568 189.567 9.82568C189.74 9.82568 189.872 9.89345 189.984 10.0177C190.096 10.1532 190.157 10.3114 190.157 10.5034C190.157 10.6954 190.096 10.8535 189.984 10.989C189.872 11.1246 189.73 11.181 189.567 11.181C189.405 11.181 189.252 11.1133 189.13 10.989Z" fill="white" fill-opacity="0.3"/>
<path d="M191.681 9.74658L190.583 12.6945H189.984L190.705 9.74658H191.691H191.681Z" fill="white" fill-opacity="0.3"/>
<path d="M195.045 10.3112H197.443V11.1244H194.14V3.50049H195.034V10.3112H195.045Z" fill="white" fill-opacity="0.3"/>
<path d="M198.906 5.9517V9.48692C198.906 9.78058 198.957 9.98388 199.079 10.1081C199.191 10.2324 199.384 10.2888 199.658 10.2888H200.319V11.1359H199.516C199.018 11.1359 198.642 11.0117 198.398 10.7519C198.144 10.4921 198.022 10.0742 198.022 9.49821V5.96299H197.321V5.13848H198.022V3.625H198.916V5.13848H200.319V5.96299H198.916L198.906 5.9517Z" fill="white" fill-opacity="0.3"/>
<path d="M200.806 6.49327C201.03 6.03019 201.335 5.66876 201.731 5.42028C202.117 5.1605 202.564 5.03626 203.042 5.03626C203.459 5.03626 203.855 5.14921 204.211 5.36381C204.576 5.5784 204.851 5.86077 205.034 6.2109V3.03711H205.938V11.1354H205.034V10.0059C204.861 10.3673 204.597 10.661 204.241 10.8869C203.896 11.1128 203.489 11.237 203.022 11.237C202.554 11.237 202.107 11.1015 201.721 10.8417C201.335 10.5819 201.02 10.2092 200.796 9.73483C200.573 9.26046 200.461 8.71831 200.461 8.1197C200.461 7.52108 200.573 6.96764 200.796 6.50456L200.806 6.49327ZM204.79 6.93376C204.627 6.59492 204.404 6.34644 204.129 6.16573C203.855 5.98501 203.54 5.89465 203.205 5.89465C202.869 5.89465 202.564 5.98501 202.29 6.15443C202.016 6.32385 201.792 6.58363 201.629 6.92247C201.467 7.26131 201.386 7.65662 201.386 8.1084C201.386 8.56019 201.467 8.9668 201.629 9.30564C201.792 9.64448 202.016 9.90425 202.29 10.085C202.564 10.2657 202.869 10.356 203.205 10.356C203.54 10.356 203.845 10.2657 204.129 10.085C204.414 9.90425 204.627 9.64448 204.79 9.30564C204.952 8.9668 205.034 8.57148 205.034 8.1197C205.034 7.66791 204.952 7.2726 204.79 6.93376Z" fill="white" fill-opacity="0.3"/>
<path d="M211.863 7.60059H244.391" stroke="white" stroke-opacity="0.3" stroke-width="0.25" stroke-miterlimit="10"/>
</g>
<defs>
<filter id="filter0_d_8_1636" x="0.628906" y="0.0893555" width="249.713" height="59.4805" filterUnits="userSpaceOnUse" color-interpolation-filters="sRGB">
<feFlood flood-opacity="0" result="BackgroundImageFix"/>
<feColorMatrix in="SourceAlpha" type="matrix" values="0 0 0 0 0 0 0 0 0 0 0 0 0 0 0 0 0 0 127 0" result="hardAlpha"/>
<feOffset dy="4"/>
<feGaussianBlur stdDeviation="2"/>
<feComposite in2="hardAlpha" operator="out"/>
<feColorMatrix type="matrix" values="0 0 0 0 0 0 0 0 0 0 0 0 0 0 0 0 0 0 0.25 0"/>
<feBlend mode="normal" in2="BackgroundImageFix" result="effect1_dropShadow_8_1636"/>
<feBlend mode="normal" in="SourceGraphic" in2="effect1_dropShadow_8_1636" result="shape"/>
</filter>
</defs>
</svg>
