<svg width="62" height="81" viewBox="0 0 62 81" fill="none" xmlns="http://www.w3.org/2000/svg">
<path d="M35.6322 50.6555H14.6448V80H0V0H35.6322C44.7006 0 51.3638 2.15405 55.6218 6.44449C59.8799 10.7349 62 15.5727 62 24.5597C62 43.1516 53.2167 50.6555 35.6322 50.6555Z" fill="#004E81"/>
<path d="M24.6164 80.7322H16.666V52.7021H24.6164V80.7322ZM17.5691 79.8292H23.7134V53.6052H17.5691V79.8292Z" fill="#004E81"/>
<path d="M43.2091 80.7322H36.2326L33.3463 71.0465V80.7322H26.5469V52.7021H33.2224L36.3919 62.5118V52.7021H43.1914V80.7322H43.2091ZM36.9054 79.8292H42.3061V53.6052H37.3127V68.2311L32.5849 53.6052H27.4676V79.8292H32.461V64.8491L36.9231 79.8292H36.9054Z" fill="#004E81"/>
<path d="M58.2772 80.7322H45.1387V52.7021H57.7991V59.0412H53.0891V63.2909H57.4981V69.3467H53.0891V74.4108H58.2595V80.7499L58.2772 80.7322ZM46.0417 79.8115H57.3742V75.2785H52.2037V68.4082H56.6128V64.1408H52.2037V58.0851H56.9138V53.5521H46.0594V79.8115H46.0417Z" fill="#004E81"/>
<path d="M25 12V39H18V12H25Z" fill="#ECC21A"/>
<path d="M41 12V17.4036H36.9218V39H30.0607V17.4036H26V12H41Z" fill="#ECC21A"/>
</svg>
